<svg xmlns="http://www.w3.org/2000/svg" width="8mm" height="8mm" viewBox="0 0 22.68 22.68"><defs><style>.a{isolation:isolate;}.b{mix-blend-mode:multiply;}.c{fill:#dadada;}.d,.f,.g{fill:none;}.d{stroke:#dadada;}.d,.g{stroke-miterlimit:10;}.e{fill:#1d1d1b;}.f{stroke:#1d1d1b;}.g{stroke:#f3e600;}</style></defs><title>DPE_</title><g class="a"><g class="b"><path class="c" d="M18.51,19.54H4.62V11L7.4,8.22l.07-.07,4.09-4.1,7,7Zm-7-17.21-5,5L3.41,10.51V20.76H19.72V10.51Z"/><path class="d" d="M18.51,19.54H4.62V11L7.4,8.22l.07-.07,4.09-4.1,7,7Zm-7-17.21-5,5L3.41,10.51V20.76H19.72V10.51Z"/></g><rect class="e" x="2.22" y="6.24" width="11.4" height="1.19" transform="translate(-2.5 7.7) rotate(-45.51)"/><rect class="f" x="2.22" y="6.23" width="11.4" height="1.19" transform="translate(-2.5 7.69) rotate(-45.5)"/><rect class="e" x="14.53" y="1.05" width="1.19" height="11.4" transform="translate(-0.35 12.67) rotate(-45)"/><rect class="f" x="14.53" y="1.05" width="1.19" height="11.4" transform="translate(-0.35 12.67) rotate(-45)"/><rect class="g" x="-3313.31" y="-230.79" width="4692.54" height="1133.5"/></g></svg>