<svg xmlns="http://www.w3.org/2000/svg" width="12.23mm" height="9.86mm" viewBox="0 0 34.65 27.94"><defs><style>.a{fill:#e94591;}.b{fill:#fff;}.c{fill:none;stroke:#f3e600;stroke-miterlimit:10;}</style></defs><title>DPE_</title><path class="a" d="M3.91,10.09a.75.75,0,0,1,0,1.5.76.76,0,0,1,0-1.5m21.21-.8a.84.84,0,1,1-.85.84.85.85,0,0,1,.85-.84M18.58,6.37a12.47,12.47,0,0,1,1.73.12l-.08,1.42a12.12,12.12,0,0,0-7.16,1.24l-.54-1.31a12.94,12.94,0,0,1,3.79-1.28,13.26,13.26,0,0,1,2.26-.19m7-2.28a5.57,5.57,0,0,0-3.36,1,14.75,14.75,0,0,0-4.62-.73c-4.75,0-8.85,2.2-10.73,5.37A4,4,0,0,0,5.27,9,3.46,3.46,0,0,0,3.58,7.84a.7.7,0,0,0-.88.37.61.61,0,0,0,.4.8,2,2,0,0,1,.41.18A2.07,2.07,0,0,0,2.2,10.46a1.55,1.55,0,0,0,.62,1.82,2,2,0,0,0,1.1.33,1.91,1.91,0,0,0,1-.27,2,2,0,0,0,.89-1.81,3.63,3.63,0,0,1,.52.38,7.43,7.43,0,0,0-.51,2.69A8.24,8.24,0,0,0,9.05,20C9,21,9,23.33,9.71,24.14a2.94,2.94,0,0,0,2.1.65,3.69,3.69,0,0,0,2.2-.6,3,3,0,0,0,.61-1.64,15.18,15.18,0,0,0,4.57.22,3.39,3.39,0,0,0,.53,1.37,3,3,0,0,0,2.12.65,3.57,3.57,0,0,0,2.18-.6c.63-.58.71-2.19.7-3.16a9.76,9.76,0,0,0,2.09-1.57c2.82-.09,3.47-1.38,3.54-1.54a.57.57,0,0,0,0-.48.67.67,0,0,0-.37-.33,1.58,1.58,0,0,1-.6-.4c1.88-.07,2.3-.55,2.44-.71.76-.87.74-3.75-.24-4.5a2.28,2.28,0,0,0-1.42-.36H29.7a1.42,1.42,0,0,1-.45,0,2.52,2.52,0,0,1-.59-.92,6.67,6.67,0,0,0-1.94-2.54A3.9,3.9,0,0,1,28,5.45a.58.58,0,0,0,.18-.6.62.62,0,0,0-.46-.45,8.85,8.85,0,0,0-2.14-.31"/><path class="b" d="M19.22,16.55a.52.52,0,0,0-.73.16,1.74,1.74,0,0,1-1.41.93,1.74,1.74,0,0,1-1.41-.93,3.73,3.73,0,0,1-.32-.7h.91a.54.54,0,0,0,0-1.07H15.17a.78.78,0,0,1,0-.16.39.39,0,0,1,0-.09,2,2,0,0,1,0-.23H16.3a.53.53,0,0,0,.53-.53.53.53,0,0,0-.53-.53h-.89a2.81,2.81,0,0,1,.37-.71,1.63,1.63,0,0,1,1.3-.77,1.63,1.63,0,0,1,1.3.77.53.53,0,0,0,.86-.63,2.54,2.54,0,0,0-4.32,0,4.37,4.37,0,0,0-.64,1.34H13.9a.53.53,0,0,0-.53.53.52.52,0,0,0,.53.53h.21a1.28,1.28,0,0,0,0,.19.57.57,0,0,0,0,.13c0,.05,0,.11,0,.16h-.23a.54.54,0,0,0,0,1.07h.37a4.79,4.79,0,0,0,.53,1.27,2.78,2.78,0,0,0,2.31,1.42,2.78,2.78,0,0,0,2.31-1.42.53.53,0,0,0-.17-.73"/><rect class="c" x="-2577.69" y="-227.78" width="4692.54" height="1133.5"/></svg>