<svg xmlns="http://www.w3.org/2000/svg" width="27mm" height="27mm" viewBox="0 0 76.54 76.54"><defs><style>.a,.c,.e,.f{fill:none;}.a,.e{stroke:#2caf85;}.a{stroke-linecap:round;stroke-linejoin:round;stroke-width:1.42px;}.b{fill:#fff;}.c{stroke:#fff;stroke-width:3px;}.c,.e,.f{stroke-miterlimit:10;}.d{fill:#2caf85;}.e{stroke-width:2px;}.f{stroke:#f3e600;}</style></defs><title>DPE_</title><line class="a" x1="39.78" y1="31.35" x2="19.22" y2="31.35"/><line class="a" x1="19.22" y1="46.05" x2="39.78" y2="46.05"/><path class="a" d="M26.17,38.7a7.35,7.35,0,1,1-7.35-7.35,7.35,7.35,0,0,1,7.35,7.35"/><path class="a" d="M26.17,38.7a7.35,7.35,0,1,1-7.35-7.35A7.35,7.35,0,0,1,26.17,38.7Z"/><path class="a" d="M21.29,38.7a2.48,2.48,0,1,1-2.47-2.47A2.47,2.47,0,0,1,21.29,38.7Zm2.43,0a4.91,4.91,0,1,1-4.9-4.91A4.9,4.9,0,0,1,23.72,38.7Z"/><path class="a" d="M37.54,46.05H58.1a7.35,7.35,0,1,0,0-14.7H37.54"/><path class="a" d="M44.49,38.7a7.35,7.35,0,1,1-7.35-7.35,7.35,7.35,0,0,1,7.35,7.35"/><path class="a" d="M44.49,38.7a7.35,7.35,0,1,1-7.35-7.35A7.35,7.35,0,0,1,44.49,38.7Z"/><path class="a" d="M39.63,38.7a2.49,2.49,0,1,1-2.49-2.49A2.48,2.48,0,0,1,39.63,38.7Zm2.45,0a4.94,4.94,0,1,1-4.94-4.94A4.94,4.94,0,0,1,42.08,38.7Z"/><path class="a" d="M28.23,31.2H48.79a7.35,7.35,0,1,0,0-14.7H28.23"/><path class="a" d="M35.18,23.85a7.35,7.35,0,1,1-7.35-7.35,7.35,7.35,0,0,1,7.35,7.35"/><path class="a" d="M35.18,23.85a7.35,7.35,0,1,1-7.35-7.35A7.35,7.35,0,0,1,35.18,23.85Z"/><path class="a" d="M30.24,23.85a2.41,2.41,0,1,1-2.41-2.41A2.41,2.41,0,0,1,30.24,23.85Zm2.37,0a4.78,4.78,0,1,1-4.78-4.78A4.79,4.79,0,0,1,32.61,23.85Z"/><path class="b" d="M14.21,74A11.51,11.51,0,1,0,2.69,62.48,11.51,11.51,0,0,0,14.21,74"/><path class="c" d="M14.21,74A11.51,11.51,0,1,0,2.69,62.48,11.51,11.51,0,0,0,14.21,74Z"/><path class="b" d="M14.21,73.86A11.38,11.38,0,1,0,2.82,62.48,11.38,11.38,0,0,0,14.21,73.86"/><path class="d" d="M14.21,52.52a10,10,0,1,1-10,10,10,10,0,0,1,10-10m0-1.42A11.38,11.38,0,1,0,25.59,62.48,11.38,11.38,0,0,0,14.21,51.1Z"/><polyline class="b" points="8.71 62.55 12.56 66.48 20.19 58.69"/><polyline class="e" points="8.71 62.55 12.56 66.48 20.19 58.69"/><rect class="f" x="-2402.21" y="-181.73" width="4692.54" height="1133.5"/></svg>