<svg xmlns="http://www.w3.org/2000/svg" width="8mm" height="8mm" viewBox="0 0 22.68 22.68"><defs><style>.a{isolation:isolate;}.b{mix-blend-mode:multiply;}.c{fill:#1d1d1b;}.d{fill:none;stroke:#f3e600;stroke-miterlimit:10;}</style></defs><title>DPE_</title><g class="a"><g class="b"><path class="c" d="M14.33,12.42a3.3,3.3,0,0,0-1.11,2.09H8.68a3.29,3.29,0,0,0-1.17-2.18,5.25,5.25,0,0,1-1.9-4.68,5.38,5.38,0,1,1,8.72,4.77m-1.57,6.1H9.14a.44.44,0,0,1-.43-.44v-.67h4.48v.67a.44.44,0,0,1-.43.44m-1.13,1.76H10.28a.43.43,0,0,1-.44-.43v-.46h2.22v.46a.43.43,0,0,1-.43.43m-2.92-4.9h4.48v1.16H8.71Zm6.4-11.81a6.25,6.25,0,0,0-10.37,4A6.16,6.16,0,0,0,6.94,13a2.34,2.34,0,0,1,.87,1.8v3.27A1.32,1.32,0,0,0,9,19.35v.5a1.31,1.31,0,0,0,1.3,1.31H11.6a1.31,1.31,0,0,0,1.31-1.31v-.48A1.3,1.3,0,0,0,14,18.08v-3.2a2.48,2.48,0,0,1,.83-1.79,6.31,6.31,0,0,0,.22-9.52Z"/></g><rect class="d" x="-3423.48" y="-287.17" width="4692.54" height="1133.5"/></g></svg>