<svg xmlns="http://www.w3.org/2000/svg" width="90.34mm" height="31.74mm" viewBox="0 0 256.08 89.97"><defs><style>.a{fill:#fff;}.b{fill:none;stroke:#f3e600;stroke-miterlimit:10;}.c{fill:#ededed;}.d{fill:#eaf3e0;}.e{fill:#b3b3b3;}.f{fill:#a5cc74;}</style></defs><title>DPE_</title><rect class="a" width="256.08" height="89.97"/><rect class="b" x="-1326.76" y="-381.86" width="4692.54" height="1133.5"/><rect class="c" x="193.11" y="4.25" width="58.7" height="67.3"/><rect class="d" x="130.16" y="4.25" width="58.7" height="67.3"/><rect class="c" x="67.2" y="4.25" width="58.7" height="67.3"/><rect class="c" x="4.25" y="4.25" width="58.7" height="67.3"/><rect class="e" x="193.11" y="71.55" width="58.7" height="14.17"/><rect class="f" x="130.16" y="71.55" width="58.7" height="14.17"/><rect class="e" x="67.2" y="71.55" width="58.7" height="14.17"/><rect class="e" x="4.25" y="71.55" width="58.7" height="14.17"/><path class="f" d="M159.51,15.22l20.41,20.4V61.17H139.1V35.62L147,27.77l12.55-12.55m0-2-1,1L146,26.77l-7.85,7.85-.41.42V62.59h43.64V35l-.41-.42-20.41-20.4-1-1Z"/><path class="f" d="M177.6,58.85H141.42V36.59L159.51,18.5,177.6,36.59Zm-34.76-1.42h33.34V37.17L159.51,20.5,142.84,37.17Z"/></svg>