<svg xmlns="http://www.w3.org/2000/svg" xmlns:xlink="http://www.w3.org/1999/xlink" width="14mm" height="14mm" viewBox="0 0 39.69 39.69"><defs><style>.a,.c,.e{fill:none;}.b{clip-path:url(#a);}.c{stroke:#9d9d9c;stroke-linecap:round;stroke-linejoin:round;}.d{fill:#9d9d9c;}.e{stroke:#f3e600;stroke-miterlimit:10;}</style><clipPath id="a"><rect class="a" x="6.69" y="4.79" width="26.31" height="29.69"/></clipPath></defs><title>DPE_</title><g class="b"><path class="c" d="M15.51,8.91,14.22,7.62m-.38,5.62H11.9m3.61,4.32-1.29,1.29m5.62.39v1.94m4.33-3.62,1.29,1.29m.39-5.61h1.94M24.17,8.91l1.29-1.29m-5.62-.39V5.29m-5,17.64-1.5,11m6.48-11V34m5-11,1.5,11M9.05,26H30.63M8.06,29.62H31.62m-20.5-6.69H28.54a1.5,1.5,0,0,1,1.47.8l2.45,9c.19.68-.37,1.25-1.24,1.25H8.51C7.6,34,7,33.4,7.22,32.69l2.45-9A1.49,1.49,0,0,1,11.12,22.93Z"/><path class="d" d="M24.15,13.26A4.31,4.31,0,1,1,19.84,9a4.31,4.31,0,0,1,4.31,4.31"/><path class="c" d="M24.15,13.26A4.31,4.31,0,1,1,19.84,9,4.31,4.31,0,0,1,24.15,13.26Z"/></g><rect class="e" x="-2100.47" y="-379.28" width="4692.54" height="1133.5"/></svg>