<svg xmlns="http://www.w3.org/2000/svg" width="14mm" height="14mm" viewBox="0 0 39.69 39.69"><defs><style>.a,.b{fill:none;}.a{stroke:#9d9d9c;stroke-linecap:round;stroke-linejoin:round;}.b{stroke:#f3e600;stroke-miterlimit:10;}</style></defs><title>DPE_</title><path class="a" d="M.64,31.1c1.4,0,0,2.41,1.47,2.41S2,31.1,3.54,31.1h0c1.46,0-.11,2.37,1.41,2.41S5,31.1,6.34,31.1s0,2.41,1.45,2.41,0-2.41,1.41-2.41,0,2.41,1.47,2.41-.08-2.41,1.43-2.41h0c1.46,0-.11,2.37,1.41,2.41s.05-2.41,1.42-2.41,0,2.41,1.45,2.41,0-2.41,1.41-2.41,0,2.41,1.47,2.41-.09-2.44,1.41-2.44-.11,2.37,1.4,2.4.05-2.4,1.43-2.4,0,2.4,1.45,2.4,0-2.4,1.4-2.4,0,2.4,1.48,2.4-.08-2.4,1.42-2.4h0c1.46,0-.1,2.37,1.41,2.4s.05-2.4,1.42-2.4,0,2.4,1.45,2.4,0-2.4,1.41-2.4,0,2.4,1.47,2.4-.07-2.4,1.43-2.4h0c1.45,0-.11,2.37,1.4,2.4"/><path class="a" d="M26.43,30.53V27.76m-20,2.77V27.76m23-20.61-5.71,5.6-3.56,3.51v11.4H38.65V16.26Zm-18.52,0-5.7,5.6L1.59,16.26v11.4H20.13V16.26Z"/><rect class="b" x="-1952.92" y="-379.28" width="4692.54" height="1133.5"/></svg>