<svg xmlns="http://www.w3.org/2000/svg" width="14mm" height="14mm" viewBox="0 0 39.69 39.69"><defs><style>.a,.b,.c{fill:none;}.a,.b{stroke:#9d9d9c;stroke-linejoin:round;}.a{stroke-linecap:round;}.c{stroke:#f3e600;stroke-miterlimit:10;}</style></defs><title>DPE_</title><line class="a" x1="5.43" y1="17.29" x2="12.86" y2="17.29"/><line class="a" x1="9.15" y1="26.98" x2="28.62" y2="26.98"/><line class="b" x1="15.52" y1="30.02" x2="22.24" y2="30.02"/><line class="b" x1="13.34" y1="33.22" x2="13.34" y2="35.83"/><line class="b" x1="24.68" y1="33.22" x2="24.68" y2="35.83"/><path class="a" d="M21.44,21.05c1.88-2.51-1.89-5,0-7.52"/><path class="a" d="M19.65,21.05c1.88-2.51-1.89-5,0-7.52"/><path class="a" d="M17.86,21.05c1.89-2.51-1.89-5,0-7.52"/><path class="a" d="M16.07,21.05c1.89-2.51-1.89-5,0-7.52"/><polyline class="a" points="10.97 14.67 13.34 17.2 10.81 19.91"/><line class="a" x1="25.48" y1="17.29" x2="32.69" y2="17.29"/><polyline class="a" points="31.03 14.67 33.39 17.2 30.86 19.91"/><path class="a" d="M12.72,6.24H25A3.74,3.74,0,0,1,28.78,10V29.7A3.75,3.75,0,0,1,25,33.44H12.72A3.74,3.74,0,0,1,9,29.7V10A3.75,3.75,0,0,1,12.72,6.24Z"/><rect class="c" x="-1859.92" y="-379.28" width="4692.54" height="1133.5"/><circle class="a" cx="12.36" cy="30.02" r="1.05"/></svg>