<svg xmlns="http://www.w3.org/2000/svg" width="4mm" height="4mm" viewBox="0 0 11.34 11.34"><defs><style>.a{isolation:isolate;}.b{mix-blend-mode:multiply;}.c{fill:#1d1d1b;}.d{fill:none;stroke:#f3e600;stroke-miterlimit:10;}</style></defs><title>DPE_</title><g class="a"><g class="b"><path class="c" d="M8.85,5.53a.14.14,0,0,0,0-.06.54.54,0,0,0-.1-.18s0,0,0,0a.3.3,0,0,0-.08-.08V3.7a3.26,3.26,0,0,1-.56.23,8.13,8.13,0,0,1-2.38.31,8.09,8.09,0,0,1-2.38-.31,3.26,3.26,0,0,1-.56-.23V5.17a.3.3,0,0,0-.08.08l0,0a.87.87,0,0,0-.11.18s0,0,0,.06a.07.07,0,0,0,0,0,.28.28,0,0,0,0,.09v.08s0,0,0,.07,0,0,0,.07a.15.15,0,0,0,0,.07h0l0,0a.87.87,0,0,0,.09.11l.06,0h0l.13.1a1.91,1.91,0,0,0,.43.2l.36.12h0l.12,0h.05l.25,0,.09,0,.22,0a2.23,2.23,0,0,0,.27,0,3.16,3.16,0,0,0,.32,0H6.35c.12,0,.22,0,.33,0l.27,0,.21,0,.1,0,.25,0h0l.12,0h0l.36-.12.23-.09.1,0,.09-.06a.71.71,0,0,0,.14-.1l.06,0L8.77,6a.71.71,0,0,0,.07-.16,0,0,0,0,0,0,0,.34.34,0,0,0,0-.14.28.28,0,0,0,0-.09.07.07,0,0,0,0,0"/><path class="c" d="M2.49,2.68l0,.07A.72.72,0,0,0,2.67,3l.06,0h0l.13.1a2.48,2.48,0,0,0,.43.2l.16.06.19.05c.12,0,.24.06.37.09l.38.06.27,0,.32,0,.3,0h.78l.29,0,.33,0,.27,0,.38-.06a3.15,3.15,0,0,0,.36-.09l.2-.05.16-.06.12,0,.11,0,.19-.11A.71.71,0,0,0,8.61,3l.06,0a.64.64,0,0,0,.1-.13.31.31,0,0,0,.05-.1s0,0,0-.05a.29.29,0,0,0,0-.09.25.25,0,0,0,0-.08.71.71,0,0,0-.4-.6,5.76,5.76,0,0,0-2.8-.55,5.76,5.76,0,0,0-2.8.55.71.71,0,0,0-.4.6V2.6s0,.06,0,.08"/><path class="c" d="M8.61,8.31V6.85a4.32,4.32,0,0,1-.56.23,8.13,8.13,0,0,1-2.38.31,8.09,8.09,0,0,1-2.38-.31,4.32,4.32,0,0,1-.56-.23V8.31a.67.67,0,0,0-.26.51.72.72,0,0,0,.39.6A5.83,5.83,0,0,0,5.67,10a5.76,5.76,0,0,0,2.8-.55.71.71,0,0,0,.4-.6.67.67,0,0,0-.26-.51"/></g><rect class="d" x="-2731.27" y="-287.42" width="4692.54" height="1133.5"/></g></svg>