<svg xmlns="http://www.w3.org/2000/svg" width="33.09mm" height="16.43mm" viewBox="0 0 93.8 46.57"><defs><style>.a{fill:#f7ab5c;}.b{fill:none;stroke:#f3e600;stroke-miterlimit:10;}</style></defs><title>DPE_</title><path class="a" d="M59.1,29.34l.79.79L80.33,9.69l-.78-.79Zm10.22,5.51.79-.79-6.29-6.29-.79.79ZM67.75,38l.79.79L89,18.34l-.78-.79ZM78,13.62l-.78.78,6.29,6.29.78-.78Zm-4.71,17.3L67,24.63,64.61,27l6.29,6.29Zm6.29-6.29-6.29-6.29-.79.78,6.29,6.29Zm-4.72,4.71-6.29-6.29-.79.79L74,30.13Zm-5.51-7.07,6.29,6.29L78,26.2l-6.29-6.29ZM74,17.55l6.29,6.29,2.36-2.36L76.4,15.19Zm6.29-9.44.79.79a1.12,1.12,0,0,1,0,1.57l-2.36,2.36,6.29,6.29,2.36-2.36a1.12,1.12,0,0,1,1.57,0l.79.79a1.12,1.12,0,0,1,0,1.57L69.32,39.57a1.12,1.12,0,0,1-1.57,0L67,38.78a1.12,1.12,0,0,1,0-1.57l1.58-1.57-6.29-6.3-1.58,1.58a1.12,1.12,0,0,1-1.57,0l-.79-.79a1.12,1.12,0,0,1,0-1.57L78.76,8.11a1.12,1.12,0,0,1,1.57,0"/><path class="a" d="M43.33,38.3l-1.11-8.9,2.22-2.22,1.12,1.11,2.38-2.39-1.11-1.11a.56.56,0,0,1,0-.79.57.57,0,0,1,.79,0l1.11,1.11,3.66-3.66-1.11-1.11a.56.56,0,0,1,0-.79.57.57,0,0,1,.79,0l1.11,1.12L56.84,17l-1.11-1.11a.55.55,0,0,1,.78-.78l1.12,1.11L60,13.83l-2.22-2.22L44.44,25l-2.19-2.19-4.48,4.42ZM60,9.38l-1.72,1.15.57.58Zm-3.89.56L43.56,22.5l.88.88L57,10.82ZM43.64,31.83l6.36.91-6.47-1.85ZM30.29,33.92a.56.56,0,0,1,.75.23,2.26,2.26,0,0,0,3,.42l2.11-2.11-.59-2.37a.55.55,0,0,1,.41-.67.54.54,0,0,1,.67.4l.43,1.72,1.09-1.09-1.38-2.78A1.11,1.11,0,0,1,37,26.38L41.47,22l-.1-.1a.55.55,0,0,1,.78-.78l.63.62L55.33,9.15a1.16,1.16,0,0,1,.79-.32,1.14,1.14,0,0,1,.79.32l.58.58L59.4,8.46A1,1,0,0,1,60,8.27a1.11,1.11,0,0,1,.79.33,1.12,1.12,0,0,1,.14,1.4l-1.28,1.91L60.8,13a1.13,1.13,0,0,1,0,1.58L46.34,29.07a1.08,1.08,0,0,1-.78.33,1.11,1.11,0,0,1-.79-.33l-.33-.32-1,1,6.83,2a1.11,1.11,0,0,1-.3,2.18h-.16L43.79,33l.65,5.19a1.13,1.13,0,0,1-1.11,1.25,1.1,1.1,0,0,1-1-.62l-3.65-7.3-1.3,1.31.37,1.47a.55.55,0,0,1-.41.67.32.32,0,0,1-.13,0,.56.56,0,0,1-.54-.42l-.21-.83-1.64,1.64a2.88,2.88,0,0,1-2.06.72,2.93,2.93,0,0,1-2.72-1.42.54.54,0,0,1,.24-.73"/><path class="a" d="M8.79,36.07A1.11,1.11,0,1,0,7.68,35a1.11,1.11,0,0,0,1.11,1.11m0-3.33A2.23,2.23,0,1,1,6.57,35a2.23,2.23,0,0,1,2.22-2.22"/><path class="a" d="M6.38,37.38a3.15,3.15,0,0,0,4.45,0l8.4-10.46-.1-.07L16.9,24.63s0-.07-.06-.11L6.38,32.93a3.14,3.14,0,0,0,0,4.45m28-19.1-8.89-8.9a28.2,28.2,0,0,0-7.79,14.46l2.22,2.22a28.19,28.19,0,0,0,14.46-7.78M5.59,32.14l.1-.09,11-8.81a29.47,29.47,0,0,1,8-14.64,1.1,1.1,0,0,1,1.57,0l8.9,8.89a1.13,1.13,0,0,1,0,1.58,29.56,29.56,0,0,1-14.64,8l-8.83,11-.08.09a4.25,4.25,0,0,1-6,0,4.26,4.26,0,0,1,0-6"/><rect class="b" x="-3869.66" y="-207.99" width="4692.54" height="1133.5"/></svg>