<svg xmlns="http://www.w3.org/2000/svg" xmlns:xlink="http://www.w3.org/1999/xlink" width="14mm" height="30.62mm" viewBox="0 0 39.69 86.79"><defs><style>.a,.c{fill:none;}.b{isolation:isolate;}.c{stroke:#f3e600;stroke-miterlimit:10;}.d{clip-path:url(#a);}.e{mix-blend-mode:multiply;}.f{clip-path:url(#c);}.g{fill:#1d1d1b;}</style><clipPath id="a"><rect class="a" x="7.93" y="3.4" width="23.71" height="77.86"/></clipPath><clipPath id="c"><rect class="a" x="-9.07" y="-9.6" width="57.71" height="46.41"/></clipPath></defs><title>DPE_</title><g class="b"><rect class="c" x="-2878.99" y="-400.35" width="4692.54" height="1133.5"/><g class="d"><g class="d"><g class="e"><g class="f"><path class="g" d="M9.83,13.83H23.58A2.38,2.38,0,0,1,26,16.21v2.84a.49.49,0,0,0,.48.48h2.85a.48.48,0,0,0,.47-.48V13.84A3.8,3.8,0,0,0,26,10H9.83Zm19.45,7.59H26.43a2.37,2.37,0,0,1-2.37-2.37V16.21a.48.48,0,0,0-.48-.48H8.88a1,1,0,0,1-1-1V9.09a1,1,0,0,1,1-.95H26a5.7,5.7,0,0,1,5.69,5.7v5.21a2.37,2.37,0,0,1-2.36,2.37"/><path class="g" d="M19.31,10a1,1,0,0,1-.95-.95V4.35a.95.95,0,0,1,1.9,0V9.09a.94.94,0,0,1-1,.95"/><path class="g" d="M24.06,5.3H14.57a.95.95,0,0,1,0-1.9h9.49a1,1,0,0,1,0,1.9"/><path class="g" d="M27.12,28.79a10.12,10.12,0,0,0-1.93,3.41,1.93,1.93,0,0,0,3.86,0,10.67,10.67,0,0,0-1.93-3.4m0,7h0A3.63,3.63,0,0,1,23.5,32.2c0-1.46,2.07-4.2,3-5.31a.84.84,0,0,1,.66-.32.86.86,0,0,1,.66.32c.69.87,2.95,3.82,2.95,5.31a3.61,3.61,0,0,1-3.61,3.61"/></g></g><path class="g" d="M27.12,43.43a10.12,10.12,0,0,0-1.93,3.4,1.93,1.93,0,0,0,3.86,0,10.56,10.56,0,0,0-1.93-3.4m0,7h0a3.64,3.64,0,0,1-3.62-3.62c0-1.46,2.07-4.2,3-5.31a.83.83,0,0,1,.66-.31.85.85,0,0,1,.66.31c.69.87,2.95,3.82,2.95,5.31a3.63,3.63,0,0,1-3.61,3.62"/><path class="g" d="M27.12,58.07a10,10,0,0,0-1.93,3.4,1.93,1.93,0,0,0,3.86,0,10.46,10.46,0,0,0-1.93-3.4m0,7h0a3.63,3.63,0,0,1-3.62-3.61c0-1.46,2.07-4.2,3-5.31a.84.84,0,0,1,.66-.32.86.86,0,0,1,.66.32c.69.87,2.95,3.82,2.95,5.31a3.61,3.61,0,0,1-3.61,3.61"/><path class="g" d="M27.12,74.24a10.22,10.22,0,0,0-1.93,3.4,1.93,1.93,0,1,0,3.86,0,10.67,10.67,0,0,0-1.93-3.4m0,7h0a3.63,3.63,0,0,1-3.62-3.61c0-1.46,2.07-4.2,3-5.31a.84.84,0,0,1,.66-.32.86.86,0,0,1,.66.32c.69.87,2.95,3.82,2.95,5.3a3.62,3.62,0,0,1-3.61,3.62"/></g></g></g></svg>