<svg xmlns="http://www.w3.org/2000/svg" width="116.75mm" height="91.25mm" viewBox="0 0 330.95 258.66"><defs><style>.a{fill:#d7221f;}.b{fill:#fff;}.c{fill:#00a06d;}.d{fill:#f4e70f;}.e{fill:#1d1d1b;}.f{fill:#52b153;}.g{fill:#a5cc74;}.h{fill:#f0b40f;}.i{fill:#eb8235;}.j,.k{fill:none;}.j{stroke:#9d9d9c;stroke-width:1.5px;}.k{stroke:#1d1d1b;stroke-width:1.42px;}</style></defs><title>DPE_</title><polygon class="a" points="282.53 227.65 110.74 227.65 110.74 204.18 282.53 204.18 290.58 215.92 282.53 227.65"/><path class="b" d="M126.45,220.72h-.1c-.2,1.4-1.48,2.46-3.58,2.46-3.2,0-5.72-2.48-5.72-7.16s2.54-7.28,6.32-7.28a5.59,5.59,0,0,1,5.38,3.24l-2.48,1.42a2.89,2.89,0,0,0-2.9-2c-1.88,0-3.1,1.08-3.1,3.4v2.24c0,2.32,1.22,3.4,3.1,3.4,1.52,0,2.74-.72,2.74-2.08v-.7h-2.6v-2.54H129v7.78h-2.56Z"/><polygon class="c" points="156.73 45.69 110.74 45.69 110.74 22.21 156.73 22.21 164.67 33.95 156.73 45.69"/><path class="b" d="M126.53,41.21l-1-3.32h-4.66l-1,3.32h-3.09l4.61-14h3.76l4.54,14ZM123.23,30h-.1l-1.54,5.3h3.2Z"/><polygon class="d" points="111.44 146.92 111.44 102.99 211.44 102.99 226.41 124.96 211.44 146.92 111.44 146.92"/><path class="e" d="M211.06,103.7,225.55,125l-14.49,21.26H112.15V103.7h98.91m.75-1.42H110.74v45.35H211.81L227.26,125l-15.45-22.68Z"/><polygon class="f" points="175.12 72.22 110.74 72.22 110.74 48.74 175.12 48.74 183.06 60.48 175.12 72.22"/><path class="b" d="M118.11,53.77h6.78a3.38,3.38,0,0,1,3.68,3.58c0,2.14-1.18,2.94-2.6,3v.12a3.09,3.09,0,0,1,3.14,3.28,3.76,3.76,0,0,1-3.6,4h-7.4Zm3,5.72h3a1.18,1.18,0,0,0,1.28-1.28v-.6a1.18,1.18,0,0,0-1.28-1.28h-3Zm0,5.68h3.5a1.18,1.18,0,0,0,1.3-1.26v-.68a1.18,1.18,0,0,0-1.3-1.26h-3.5Z"/><polygon class="g" points="193.36 98.74 110.74 98.74 110.74 75.27 193.36 75.27 201.31 87.01 193.36 98.74"/><path class="b" d="M117.73,86.9c0-4.72,2.42-7.32,6.18-7.32a5.17,5.17,0,0,1,5.22,3.28l-2.62,1.36a2.47,2.47,0,0,0-2.6-1.94c-1.78,0-3,1.2-3,3.4v2.24c0,2.2,1.18,3.4,3,3.4a2.87,2.87,0,0,0,2.78-2.08l2.48,1.44A5.46,5.46,0,0,1,123.91,94C120.15,94,117.73,91.62,117.73,86.9Z"/><polygon class="h" points="245.95 174.64 110.74 174.64 110.74 151.17 245.95 151.17 253.89 162.91 245.95 174.64"/><path class="b" d="M118.71,169.86v-14h9.5v2.7h-6.46v2.86h5.54v2.68h-5.54v3h6.46v2.7Z"/><polygon class="i" points="264.21 201.15 110.74 201.15 110.74 177.68 264.21 177.68 272.15 189.41 264.21 201.15"/><path class="b" d="M118.93,196.11v-14h9.26v2.7H122v2.86h5.3v2.68H122v5.72Z"/><line class="j" x1="106.07" y1="177.5" x2="106.07" y2="227.66"/><line class="k" x1="65.13" y1="106.18" x2="65.13" y2="143.74"/><path class="e" d="M110.72,103.7v42.52H15.88a2.4,2.4,0,0,1-2.4-2.41V106.1a2.4,2.4,0,0,1,2.4-2.4h94.84m1.42-1.42H15.88a3.82,3.82,0,0,0-3.82,3.82v37.71a3.82,3.82,0,0,0,3.82,3.82h96.26V102.28Z"/><path class="b" d="M119.34,140.39a.71.71,0,0,1-.71-.71V110.36a.71.71,0,0,1,.71-.71h11c8.52,0,13.6,5.75,13.6,15.37s-5.08,15.37-13.6,15.37Zm11-7.09c3.6,0,5.42-2,5.42-6v-4.54c0-4-1.82-6-5.42-6h-3.95V133.3Z"/><path class="e" d="M130.39,110.36c7.77,0,12.9,4.92,12.9,14.66s-5.13,14.66-12.9,14.66h-11V110.36h11M125.73,134h4.66c3.78,0,6.13-2.06,6.13-6.72v-4.54c0-4.66-2.35-6.72-6.13-6.72h-4.66v18m4.66-25.07h-11a1.43,1.43,0,0,0-1.42,1.42v29.32a1.42,1.42,0,0,0,1.42,1.42h11c9,0,14.31-6,14.31-16.08s-5.35-16.08-14.31-16.08Zm-3.25,8.51h3.25c3.22,0,4.72,1.69,4.72,5.3v4.54c0,3.62-1.5,5.31-4.72,5.31h-3.25V117.45Z"/></svg>