<svg xmlns="http://www.w3.org/2000/svg" width="66.74mm" height="91.25mm" viewBox="0 0 189.18 258.66"><defs><style>.a{fill:#a4dbf8;}.b{fill:#fff;}.c{fill:#7792b1;}.d{fill:#4d5271;}.e{fill:#1d1d1b;}.f{fill:#606f8f;}.g{fill:#393551;}.h{fill:#281b35;}.i{fill:#8cb4d3;}.j,.k{fill:none;}.j{stroke:#a5dbf8;stroke-miterlimit:10;stroke-width:1.42px;}.k{stroke:#1d1d1b;stroke-width:0.99px;}</style></defs><title>DPE_</title><path class="a" d="M25.34,83.63H43.27a5.28,5.28,0,0,0,5.28-5.28h0a5.28,5.28,0,0,0-5.28-5.27H25.34Z"/><path class="b" d="M32.6,81.5,32.15,80h-2.1l-.45,1.5H28.22l2.07-6.29H32l2,6.29Zm-1.48-5h-.05l-.69,2.38h1.44Z"/><path class="c" d="M25.34,107.71h34.4A5.27,5.27,0,0,0,65,102.43h0a5.28,5.28,0,0,0-5.27-5.28H25.34Z"/><path class="b" d="M28.64,102.48c0-2.13,1.09-3.3,2.78-3.3a2.32,2.32,0,0,1,2.35,1.48l-1.18.61a1.11,1.11,0,0,0-1.17-.87c-.8,0-1.33.54-1.33,1.53v1c0,1,.53,1.53,1.33,1.53a1.28,1.28,0,0,0,1.25-.94l1.12.65a2.46,2.46,0,0,1-2.37,1.5C29.73,105.68,28.64,104.6,28.64,102.48Z"/><path class="d" d="M25.84,141.14V121.73h48a9.71,9.71,0,1,1,0,19.41Z"/><path class="e" d="M73.88,122.22a9.22,9.22,0,0,1,0,18.43H26.33V122.22H73.88m0-1H25.34v20.41H73.88a10.21,10.21,0,0,0,0-20.41Z"/><path class="f" d="M25.34,119.75H68.11a5.28,5.28,0,0,0,5.28-5.28h0a5.27,5.27,0,0,0-5.28-5.28H25.34Z"/><path class="b" d="M28.68,111.33h2.37c1.66,0,2.76,1,2.76,3.14s-1.1,3.14-2.76,3.14H28.68Zm2.37,5.07c.81,0,1.31-.45,1.31-1.44v-1c0-1-.5-1.44-1.31-1.44h-1v3.86Z"/><path class="g" d="M25.34,153.68H91.45a5.28,5.28,0,0,0,5.27-5.28h0a5.27,5.27,0,0,0-5.27-5.28H25.34Z"/><path class="b" d="M29.18,151.54v-6.28h4.17v1.21h-2.8v1.29h2.39V149H30.55v2.57Z"/><path class="h" d="M25.34,165.72H99.76a5.28,5.28,0,0,0,5.27-5.28h0a5.27,5.27,0,0,0-5.27-5.28H25.34Z"/><path class="b" d="M32.57,162.58h0c-.09.63-.66,1.11-1.61,1.11-1.44,0-2.57-1.12-2.57-3.23s1.14-3.27,2.84-3.27a2.5,2.5,0,0,1,2.42,1.46l-1.11.63a1.31,1.31,0,0,0-1.31-.88c-.85,0-1.39.49-1.39,1.53v1c0,1.05.54,1.53,1.39,1.53.68,0,1.23-.32,1.23-.93v-.32H31.24v-1.14h2.48v3.5H32.57Z"/><path class="i" d="M25.34,95.67h26.3a5.27,5.27,0,0,0,5.28-5.28h0a5.28,5.28,0,0,0-5.28-5.28H25.34Z"/><path class="b" d="M28.57,87.25h3.05a1.52,1.52,0,0,1,1.66,1.61c0,1-.53,1.33-1.17,1.35v.06a1.38,1.38,0,0,1,1.41,1.47,1.69,1.69,0,0,1-1.62,1.79H28.57Zm1.37,2.58H31.3a.53.53,0,0,0,.57-.58V89a.53.53,0,0,0-.57-.58H29.94Zm0,2.55h1.57a.53.53,0,0,0,.59-.57v-.3a.54.54,0,0,0-.59-.57H29.94Z"/><path class="b" d="M30.05,138.3a.49.49,0,0,1-.5-.49V125.24a.5.5,0,0,1,.5-.5H38.6a.51.51,0,0,1,.5.5v2.43a.51.51,0,0,1-.5.5H33.28v1.58h4.49a.49.49,0,0,1,.5.49v2.42a.49.49,0,0,1-.5.49H33.28v1.73H38.6a.5.5,0,0,1,.5.5v2.43a.5.5,0,0,1-.5.49Z"/><path class="e" d="M38.6,125.24v2.43H32.78v2.57h5v2.42h-5v2.72H38.6v2.43H30.05V125.24H38.6m0-1H30.05a1,1,0,0,0-1,1v12.57a1,1,0,0,0,1,1H38.6a1,1,0,0,0,1-1v-2.43a1,1,0,0,0-1-1H33.78v-.73h4a1,1,0,0,0,1-1v-2.42a1,1,0,0,0-1-1h-4v-.59H38.6a1,1,0,0,0,1-1v-2.43a1,1,0,0,0-1-1Z"/><rect class="j" x="14.72" y="24.14" width="156.02" height="170" rx="5.67"/><line class="k" x1="86.09" y1="131.43" x2="107.35" y2="131.43"/></svg>