<svg xmlns="http://www.w3.org/2000/svg" width="8mm" height="8mm" viewBox="0 0 22.68 22.68"><defs><style>.a{fill:#1d1d1b;}.b{fill:none;stroke:#f3e600;stroke-miterlimit:10;}</style></defs><title>DPE_</title><rect class="a" x="6.53" y="1.79" width="9.23" height="1"/><rect class="a" x="10.64" y="2.15" width="1" height="8.52"/><path class="a" d="M17.79,17.9H4.5a.5.5,0,0,1-.5-.5,7,7,0,0,1,7.14-6.92,7,7,0,0,1,7.15,6.92A.5.5,0,0,1,17.79,17.9ZM5,16.9H17.27a6.07,6.07,0,0,0-6.13-5.42A6.06,6.06,0,0,0,5,16.9Z"/><path class="a" d="M11.14,20.92a3.34,3.34,0,0,1-3.42-3.24.51.51,0,0,1,.5-.5h5.84a.5.5,0,0,1,.5.5A3.33,3.33,0,0,1,11.14,20.92ZM8.78,18.18a2.4,2.4,0,0,0,2.36,1.74,2.38,2.38,0,0,0,2.36-1.74Z"/><rect class="b" x="-3313.31" y="-349.02" width="4692.54" height="1133.5"/></svg>