<svg xmlns="http://www.w3.org/2000/svg" width="8mm" height="8mm" viewBox="0 0 22.68 22.68"><defs><style>.a{fill:none;stroke:#f3e600;stroke-miterlimit:10;}.b{fill:#1d1d1b;}</style></defs><title>DPE_</title><rect class="a" x="-3160.48" y="-432.61" width="4692.54" height="1133.5"/><rect class="b" x="8.43" y="17.05" width="5.23" height="1"/><path class="b" d="M6.55,19a1.4,1.4,0,1,0-1.35-1.4A1.38,1.38,0,0,0,6.55,19Zm0-1.8a.4.4,0,1,1-.35.4A.38.38,0,0,1,6.55,17.15Z"/><path class="b" d="M15.18,3.56h-1.8V.69h-1V3.52H9.7V.69h-1V3.56H6.9A3.44,3.44,0,0,0,3.56,7.08V17.3A3.44,3.44,0,0,0,6.9,20.81h8.28a3.44,3.44,0,0,0,3.34-3.51V7.08A3.44,3.44,0,0,0,15.18,3.56ZM17.52,17.3a2.43,2.43,0,0,1-2.34,2.51H6.9A2.43,2.43,0,0,1,4.56,17.3V15.75h13Zm0-2.55h-13V7.08A2.44,2.44,0,0,1,6.9,4.56h8.28a2.44,2.44,0,0,1,2.34,2.52Z"/><path class="b" d="M11,8.36a.17.17,0,0,0-.1,0,.13.13,0,0,0-.12.11A2.66,2.66,0,0,1,10,10.06a1.89,1.89,0,0,0-.66,1.46,1.29,1.29,0,0,0,.42.94,2.22,2.22,0,0,0,.9.53.14.14,0,0,0,.17-.08.13.13,0,0,0,0-.12,1.27,1.27,0,0,1-.38-.84,1,1,0,0,1,.14-.44l.24.18.08.05,0,0a.11.11,0,0,0,.11,0,.92.92,0,0,0,.26-.3,1.57,1.57,0,0,0,.14-.61,1.55,1.55,0,0,1,.44,1,1.37,1.37,0,0,1-.48.94.14.14,0,0,0,0,.19.15.15,0,0,0,.11,0,1.56,1.56,0,0,0,1.34-1.49A3,3,0,0,0,12.43,10,6.76,6.76,0,0,0,11,8.36Z"/></svg>