<svg xmlns="http://www.w3.org/2000/svg" width="4mm" height="4mm" viewBox="0 0 11.34 11.34"><defs><style>.a{fill:none;stroke:#f3e600;stroke-miterlimit:10;}.b{fill:#1d1d1b;}</style></defs><title>DPE_</title><rect class="a" x="-2875.91" y="-287.42" width="4692.54" height="1133.5"/><path class="b" d="M10.14,4.27l-2-1.92a.13.13,0,0,0-.2,0L6,4.27a.18.18,0,0,0,0,.1V6.78a.14.14,0,0,0,.14.14h.93v1.4H2.86V6.92H5.21a.15.15,0,0,0,.15-.14V4.37a.14.14,0,0,0-.05-.1L3.36,2.35a.13.13,0,0,0-.2,0l-2,1.92a.13.13,0,0,0,0,.1V6.78a.14.14,0,0,0,.14.14h.85V8.68A.36.36,0,0,0,2.51,9H8.88V10.3a.36.36,0,1,0,.71,0V8.68a.36.36,0,0,0-.36-.36H7.76V6.92H10a.14.14,0,0,0,.14-.14V4.37A.13.13,0,0,0,10.14,4.27Z"/></svg>