<svg xmlns="http://www.w3.org/2000/svg" width="66.74mm" height="91.25mm" viewBox="0 0 189.18 258.66"><defs><style>.a{fill:#a4dbf8;}.b{fill:#fff;}.c{fill:#7792b1;}.d{fill:#393551;}.e{fill:#1d1d1b;}.f{fill:#606f8f;}.g{fill:#4d5271;}.h{fill:#281b35;}.i{fill:#8cb4d3;}.j,.k{fill:none;}.j{stroke:#a5dbf8;stroke-miterlimit:10;stroke-width:1.42px;}.k{stroke:#1d1d1b;stroke-width:0.99px;}</style></defs><title>DPE_</title><path class="a" d="M25.35,83.63H43.28a5.28,5.28,0,0,0,5.28-5.28h0a5.28,5.28,0,0,0-5.28-5.27H25.35Z"/><path class="b" d="M32.61,81.5,32.16,80h-2.1l-.45,1.5H28.23l2.07-6.29H32L34,81.5Zm-1.48-5h-.05l-.69,2.38h1.44Z"/><path class="c" d="M25.35,107.71h34.4A5.27,5.27,0,0,0,65,102.43h0a5.28,5.28,0,0,0-5.27-5.28H25.35Z"/><path class="b" d="M28.65,102.48c0-2.13,1.09-3.3,2.78-3.3a2.32,2.32,0,0,1,2.35,1.48l-1.18.61a1.11,1.11,0,0,0-1.17-.87c-.8,0-1.33.54-1.33,1.53v1c0,1,.53,1.53,1.33,1.53a1.28,1.28,0,0,0,1.25-.94l1.12.65a2.46,2.46,0,0,1-2.37,1.5C29.74,105.68,28.65,104.6,28.65,102.48Z"/><path class="d" d="M25.84,153.18V133.76H82.18a9.71,9.71,0,0,1,0,19.42Z"/><path class="e" d="M82.18,134.26a9.21,9.21,0,0,1,0,18.42H26.33V134.26H82.18m0-1H25.34v20.41H82.18a10.21,10.21,0,0,0,0-20.41Z"/><path class="f" d="M25.35,119.75H68.12a5.28,5.28,0,0,0,5.28-5.28h0a5.27,5.27,0,0,0-5.28-5.28H25.35Z"/><path class="b" d="M28.69,111.33h2.37c1.66,0,2.76,1,2.76,3.14s-1.1,3.14-2.76,3.14H28.69Zm2.37,5.07c.81,0,1.31-.45,1.31-1.44v-1c0-1-.5-1.44-1.31-1.44h-1v3.86Z"/><path class="g" d="M25.35,131.79h51a5.28,5.28,0,0,0,5.28-5.28h0a5.27,5.27,0,0,0-5.28-5.28h-51Z"/><path class="b" d="M29.09,129.65v-6.28h4.28v1.21H30.46v1.29H33v1.2H30.46v1.36h2.91v1.22Z"/><path class="h" d="M25.35,165.72H99.77a5.28,5.28,0,0,0,5.27-5.28h0a5.27,5.27,0,0,0-5.27-5.28H25.35Z"/><path class="b" d="M32.58,162.58h0c-.09.63-.66,1.11-1.61,1.11-1.44,0-2.57-1.12-2.57-3.23s1.14-3.27,2.84-3.27a2.5,2.5,0,0,1,2.42,1.46l-1.11.63a1.31,1.31,0,0,0-1.31-.88c-.85,0-1.39.49-1.39,1.53v1c0,1.05.54,1.53,1.39,1.53.68,0,1.23-.32,1.23-.93v-.32H31.25v-1.14h2.48v3.5H32.58Z"/><path class="i" d="M25.35,95.67h26.3a5.27,5.27,0,0,0,5.28-5.28h0a5.28,5.28,0,0,0-5.28-5.28H25.35Z"/><path class="b" d="M28.58,87.25h3.05a1.52,1.52,0,0,1,1.66,1.61c0,1-.53,1.33-1.17,1.35v.06a1.38,1.38,0,0,1,1.41,1.47,1.69,1.69,0,0,1-1.62,1.79H28.58ZM30,89.83h1.36a.53.53,0,0,0,.57-.58V89a.53.53,0,0,0-.57-.58H30Zm0,2.55h1.57a.53.53,0,0,0,.59-.57v-.3a.54.54,0,0,0-.59-.57H30Z"/><path class="b" d="M29.56,150.25a.5.5,0,0,1-.5-.49V137.19a.51.51,0,0,1,.5-.5H37.9a.5.5,0,0,1,.49.5v2.43a.5.5,0,0,1-.49.5H32.79v1.58h4.28a.5.5,0,0,1,.5.49v2.42a.5.5,0,0,1-.5.49H32.79v4.66a.49.49,0,0,1-.49.49Z"/><path class="e" d="M37.9,137.19v2.43H32.3v2.57h4.77v2.42H32.3v5.15H29.56V137.19H37.9m0-1H29.56a1,1,0,0,0-1,1v12.57a1,1,0,0,0,1,1H32.3a1,1,0,0,0,1-1V145.6h3.78a1,1,0,0,0,1-1v-2.42a1,1,0,0,0-1-1H33.29v-.59H37.9a1,1,0,0,0,1-1v-2.43a1,1,0,0,0-1-1Z"/><rect class="j" x="14.72" y="24.14" width="156.02" height="170" rx="5.67"/><line class="k" x1="94.13" y1="143.47" x2="109.65" y2="143.47"/></svg>