<svg xmlns="http://www.w3.org/2000/svg" width="4mm" height="4mm" viewBox="0 0 11.34 11.34"><defs><style>.a{isolation:isolate;}.b{mix-blend-mode:multiply;}.c{fill:#1d1d1b;}.d{fill:none;stroke:#f3e600;stroke-miterlimit:10;}</style></defs><title>DPE_</title><g class="a"><g class="b"><path class="c" d="M8,4.85a.27.27,0,0,0-.25-.15H6.38l1-1.77a.26.26,0,0,0,0-.27.28.28,0,0,0-.23-.13H5.42a.26.26,0,0,0-.24.14L3.34,6.09a.29.29,0,0,0,0,.27.27.27,0,0,0,.23.14H4.81L4.14,9.07a.27.27,0,0,0,.14.32l.12,0a.27.27,0,0,0,.22-.11L8,5.14a.26.26,0,0,0,0-.29"/></g><rect class="d" x="-2788.99" y="-287.42" width="4692.54" height="1133.5"/></g></svg>