<svg xmlns="http://www.w3.org/2000/svg" width="66.74mm" height="91.25mm" viewBox="0 0 189.18 258.66"><defs><style>.a{fill:#a4dbf8;}.b{fill:#fff;}.c{fill:#7792b1;}.d{fill:#8cb4d3;}.e{fill:#1d1d1b;}.f{fill:#606f8f;}.g{fill:#4d5271;}.h{fill:#393551;}.i{fill:#281b35;}.j,.k{fill:none;}.j{stroke:#a5dbf8;stroke-miterlimit:10;stroke-width:1.42px;}.k{stroke:#1d1d1b;stroke-width:0.99px;}</style></defs><title>DPE_</title><path class="a" d="M25.36,83.63H43.29a5.27,5.27,0,0,0,5.28-5.28h0a5.27,5.27,0,0,0-5.28-5.27H25.36Z"/><path class="b" d="M32.63,81.5,32.18,80h-2.1l-.45,1.5H28.24l2.07-6.29H32l2,6.29Zm-1.49-5h0l-.7,2.38h1.44Z"/><path class="c" d="M25.36,117.56H66.78a5.27,5.27,0,0,0,5.27-5.28h0A5.27,5.27,0,0,0,66.78,107H25.36Z"/><path class="b" d="M28.67,112.33c0-2.13,1.09-3.3,2.78-3.3a2.33,2.33,0,0,1,2.35,1.48l-1.18.61a1.12,1.12,0,0,0-1.17-.87c-.8,0-1.33.54-1.33,1.53v1c0,1,.53,1.53,1.33,1.53a1.3,1.3,0,0,0,1.25-.94l1.12.65a2.47,2.47,0,0,1-2.37,1.5C29.76,115.53,28.67,114.45,28.67,112.33Z"/><path class="d" d="M25.84,105V85.61H49A9.71,9.71,0,1,1,49,105Z"/><path class="e" d="M49,86.11a9.21,9.21,0,1,1,0,18.42H26.33V86.11H49m0-1H25.34v20.41H49a10.2,10.2,0,0,0,10.2-10.2h0A10.21,10.21,0,0,0,49,85.11Z"/><path class="f" d="M25.36,129.6H75a5.27,5.27,0,0,0,5.28-5.28h0A5.28,5.28,0,0,0,75,119H25.36Z"/><path class="b" d="M28.7,121.18h2.37c1.67,0,2.76,1,2.76,3.14s-1.09,3.14-2.76,3.14H28.7Zm2.37,5.07c.81,0,1.31-.44,1.31-1.44v-1c0-1-.5-1.44-1.31-1.44h-1v3.85Z"/><path class="g" d="M25.36,141.64H83.25a5.28,5.28,0,0,0,5.28-5.28h0a5.29,5.29,0,0,0-5.28-5.28H25.36Z"/><path class="b" d="M29.11,139.5v-6.28h4.27v1.21h-2.9v1.29H33v1.21H30.48v1.36h2.9v1.21Z"/><path class="h" d="M25.36,153.68H91.47a5.28,5.28,0,0,0,5.28-5.28h0a5.27,5.27,0,0,0-5.28-5.28H25.36Z"/><path class="b" d="M29.21,151.54v-6.28h4.16v1.21H30.58v1.29H33V149H30.58v2.57Z"/><path class="i" d="M25.36,165.72H99.78a5.28,5.28,0,0,0,5.28-5.28h0a5.27,5.27,0,0,0-5.28-5.28H25.36Z"/><path class="b" d="M32.59,162.58h0c-.09.63-.67,1.11-1.62,1.11-1.44,0-2.57-1.12-2.57-3.23s1.14-3.27,2.85-3.27a2.51,2.51,0,0,1,2.42,1.46l-1.12.63a1.31,1.31,0,0,0-1.3-.88c-.85,0-1.4.49-1.4,1.53v1c0,1.05.55,1.53,1.4,1.53.68,0,1.23-.32,1.23-.93v-.32H31.27v-1.14h2.47v3.5H32.59Z"/><path class="b" d="M29.63,102.07a.49.49,0,0,1-.49-.49V89a.49.49,0,0,1,.49-.5h6.11a3.53,3.53,0,0,1,3.81,3.72A3.08,3.08,0,0,1,38.33,95,3.23,3.23,0,0,1,40,98a3.87,3.87,0,0,1-3.73,4.08Zm5.89-3.29c.61,0,.68-.37.68-.64v-.61c0-.28-.07-.64-.68-.64H32.87v1.89Zm-.43-5.12c.45,0,.66-.21.66-.65v-.54a.58.58,0,0,0-.66-.66H32.87v1.85Z"/><path class="e" d="M35.74,89a3,3,0,0,1,3.31,3.22c0,1.93-1.06,2.65-2.34,2.7V95A2.78,2.78,0,0,1,39.54,98a3.39,3.39,0,0,1-3.24,3.59H29.63V89h6.11m-3.37,5.15h2.72A1.06,1.06,0,0,0,36.24,93v-.54a1.06,1.06,0,0,0-1.15-1.16H32.37v2.85m0,5.11h3.15a1.06,1.06,0,0,0,1.17-1.13v-.61a1.06,1.06,0,0,0-1.17-1.14H32.37v2.88M35.74,88H29.63a1,1,0,0,0-1,1v12.57a1,1,0,0,0,1,1H36.3A4.37,4.37,0,0,0,40.53,98a3.84,3.84,0,0,0-1.37-3.09A3.92,3.92,0,0,0,40,92.23,4,4,0,0,0,35.74,88Zm-2.38,4.29h1.73a.32.32,0,0,1,.15,0h0a.79.79,0,0,1,0,.14V93a.61.61,0,0,1,0,.15H33.36v-.86Zm0,5.07h2.16a.33.33,0,0,1,.18,0h0s0,0,0,.12v.61a.22.22,0,0,1,0,.12h0a.65.65,0,0,1-.16,0H33.36v-.9Z"/><rect class="j" x="14.72" y="24.14" width="156.02" height="170" rx="5.67"/><line class="k" x1="61.14" y1="95.29" x2="82.4" y2="95.29"/></svg>