<svg xmlns="http://www.w3.org/2000/svg" width="116.75mm" height="91.25mm" viewBox="0 0 330.95 258.66"><defs><style>.a{fill:#d7221f;}.b{fill:#fff;}.c{fill:#00a06d;}.d{fill:#52b153;}.e{fill:#1d1d1b;}.f{fill:#a5cc74;}.g{fill:#f4e70f;}.h{fill:#f0b40f;}.i{fill:#eb8235;}.j,.k{fill:none;}.j{stroke:#9d9d9c;stroke-width:1.5px;}.k{stroke:#1d1d1b;stroke-width:1.42px;}</style></defs><title>DPE_</title><polygon class="a" points="282.52 227.66 110.73 227.66 110.73 204.19 282.52 204.19 290.57 215.92 282.52 227.66"/><path class="b" d="M126.44,220.73h-.1c-.2,1.4-1.48,2.46-3.58,2.46-3.2,0-5.72-2.48-5.72-7.16s2.54-7.28,6.32-7.28a5.59,5.59,0,0,1,5.38,3.24l-2.48,1.42a2.89,2.89,0,0,0-2.9-2c-1.88,0-3.1,1.08-3.1,3.4v2.24c0,2.32,1.22,3.4,3.1,3.4,1.52,0,2.74-.72,2.74-2.08v-.7h-2.6v-2.54H129V223h-2.56Z"/><polygon class="c" points="156.72 45.69 110.73 45.69 110.73 22.22 156.72 22.22 164.67 33.95 156.72 45.69"/><path class="b" d="M126.52,41.21l-1-3.32h-4.66l-1,3.32h-3.08l4.6-14h3.76l4.54,14ZM123.22,30h-.1l-1.54,5.3h3.2Z"/><polygon class="d" points="111.44 93.54 111.44 49.61 175.61 49.61 190.58 71.58 175.61 93.54 111.44 93.54"/><path class="e" d="M175.24,50.32l14.48,21.26L175.24,92.83H112.15V50.32h63.09M176,48.9H110.73V94.25H176l15.45-22.67L176,48.9Z"/><polygon class="f" points="209.8 120.93 110.73 120.93 110.73 97.46 209.8 97.46 217.75 109.2 209.8 120.93"/><path class="b" d="M117.72,109.09c0-4.72,2.42-7.32,6.18-7.32a5.17,5.17,0,0,1,5.22,3.28l-2.62,1.36a2.47,2.47,0,0,0-2.6-1.94c-1.78,0-3,1.2-3,3.4v2.24c0,2.2,1.18,3.4,3,3.4a2.87,2.87,0,0,0,2.78-2.08l2.48,1.44a5.46,5.46,0,0,1-5.26,3.34C120.14,116.21,117.72,113.81,117.72,109.09Z"/><polygon class="g" points="227.94 147.61 110.73 147.61 110.73 124.14 227.94 124.14 235.88 135.88 227.94 147.61"/><path class="b" d="M117.8,128.7h5.26c3.7,0,6.14,2.34,6.14,7s-2.44,7-6.14,7H117.8ZM123.06,140c1.8,0,2.92-1,2.92-3.2V134.6c0-2.22-1.12-3.2-2.92-3.2h-2.22V140Z"/><polygon class="h" points="245.94 174.29 110.73 174.29 110.73 150.82 245.94 150.82 253.88 162.56 245.94 174.29"/><path class="b" d="M118.7,169.52v-14h9.5v2.7h-6.46v2.86h5.54v2.68h-5.54v3h6.46v2.7Z"/><polygon class="i" points="264.2 200.98 110.73 200.98 110.73 177.5 264.2 177.5 272.14 189.24 264.2 200.98"/><path class="b" d="M118.92,195.94V182h9.26v2.7H122v2.86h5.3v2.68H122v5.72Z"/><line class="j" x1="106.07" y1="177.5" x2="106.07" y2="227.66"/><line class="k" x1="65.13" y1="52.8" x2="65.13" y2="90.35"/><path class="e" d="M110.72,50.32V92.83H15.88a2.39,2.39,0,0,1-2.4-2.4V52.72a2.4,2.4,0,0,1,2.4-2.4h94.84m1.42-1.42H15.88a3.82,3.82,0,0,0-3.82,3.82V90.43a3.82,3.82,0,0,0,3.82,3.82h96.26V48.9Z"/><path class="b" d="M118.79,87.08a.71.71,0,0,1-.71-.71V57.05a.71.71,0,0,1,.71-.71H133c5.12,0,8.43,3.23,8.43,8.23,0,3.15-1.21,5.37-3.4,6.39A7.11,7.11,0,0,1,142.6,78c0,5.09-3.63,9.07-8.27,9.07Zm13.73-6.8a1.78,1.78,0,0,0,2-1.93V76.92a1.78,1.78,0,0,0-2-1.94h-6.64v5.3Zm-1-11.93a1.77,1.77,0,0,0,2-2V65.11a1.77,1.77,0,0,0-2-2h-5.63v5.22Z"/><path class="e" d="M133,57.05c4.83,0,7.73,3,7.73,7.52s-2.48,6.17-5.47,6.3v.25a6.48,6.48,0,0,1,6.6,6.89c0,4.62-3.24,8.36-7.56,8.36H118.79V57.05H133m-7.86,12h6.34a2.48,2.48,0,0,0,2.69-2.69V65.11a2.47,2.47,0,0,0-2.69-2.68h-6.34v6.63m0,11.93h7.35a2.47,2.47,0,0,0,2.73-2.64V76.92a2.48,2.48,0,0,0-2.73-2.65h-7.35V81M133,55.63H118.79a1.42,1.42,0,0,0-1.42,1.42V86.37a1.42,1.42,0,0,0,1.42,1.42h15.54c5,0,9-4.3,9-9.78a8,8,0,0,0-3.77-7.14c1.7-1.31,2.63-3.48,2.63-6.3,0-5.43-3.59-8.94-9.14-8.94Zm-6.44,8.21h4.92c.91,0,1.28.37,1.28,1.27v1.26c0,.9-.39,1.28-1.28,1.28h-4.92V63.84Zm0,11.85h5.93c1.16,0,1.31.59,1.31,1.23v1.43c0,.63-.15,1.23-1.31,1.23h-5.93V75.69Z"/></svg>