<svg xmlns="http://www.w3.org/2000/svg" width="65.43mm" height="68.28mm" viewBox="0 0 185.47 193.54"><defs><style>.a,.i{fill:none;}.a{stroke:#f3e600;stroke-miterlimit:10;}.b{fill:#009b6d;}.c{fill:#52b153;}.d{fill:#78bd76;}.e{fill:#f4e70f;}.f{fill:#f0b40f;}.g{fill:#eb8235;}.h{fill:#d7221f;}.i{stroke:#1d1d1b;}.j{fill:#fff;}</style></defs><title>DPE_</title><rect class="a" x="-4194.58" y="-499.04" width="4692.54" height="1133.5"/><polygon class="b" points="50.94 28.33 5.18 28.33 5.18 4.86 50.94 4.86 59.72 16.6 50.94 28.33"/><polygon class="c" points="70.2 54.79 5.18 54.79 5.18 31.32 70.2 31.32 78.98 43.05 70.2 54.79"/><polygon class="d" points="90.19 81.24 5.18 81.24 5.18 57.77 90.19 57.77 98.97 69.51 90.19 81.24"/><polygon class="e" points="111.73 108.48 5.18 108.48 5.18 85.01 111.73 85.01 120.51 96.74 111.73 108.48"/><polygon class="f" points="130.89 135.28 5.18 135.28 5.18 111.81 130.89 111.81 139.66 123.54 130.89 135.28"/><polygon class="g" points="150.32 161.73 5.18 161.73 5.18 138.26 150.32 138.26 159.1 150 150.32 161.73"/><polygon class="h" points="5.18 164.72 5.18 188.19 170.52 188.19 179.3 176.45 170.52 164.72 5.18 164.72"/><path class="i" d="M19.23,18H16l1.54-5.3h.1Zm4.9,5.9-4.54-14H15.83l-4.6,14h3.08l1-3.32H20l1,3.32Z"/><path class="j" d="M21,23.85l-1-3.32H15.31l-1,3.32H11.23l4.6-14h3.76l4.54,14Zm-3.3-11.2h-.1L16,18h3.2Z"/><path class="i" d="M15.59,38.67h3A1.18,1.18,0,0,1,19.89,40v.6a1.18,1.18,0,0,1-1.28,1.28h-3Zm0,5.64h3.5a1.18,1.18,0,0,1,1.3,1.26v.68a1.18,1.18,0,0,1-1.3,1.26h-3.5Zm-3,5.76H20a3.76,3.76,0,0,0,3.6-4,3.09,3.09,0,0,0-3.14-3.28v-.12c1.42-.06,2.6-.86,2.6-3a3.38,3.38,0,0,0-3.68-3.58H12.55Z"/><path class="j" d="M12.55,36.11h6.78A3.38,3.38,0,0,1,23,39.69c0,2.14-1.18,2.94-2.6,3v.12a3.09,3.09,0,0,1,3.14,3.28,3.76,3.76,0,0,1-3.6,4h-7.4Zm3,5.72h3a1.18,1.18,0,0,0,1.28-1.28V40a1.18,1.18,0,0,0-1.28-1.28h-3Zm0,5.68h3.5a1.18,1.18,0,0,0,1.3-1.26v-.68a1.18,1.18,0,0,0-1.3-1.26h-3.5Z"/><path class="i" d="M18.35,76.53a5.46,5.46,0,0,0,5.26-3.34l-2.48-1.44a2.87,2.87,0,0,1-2.78,2.08c-1.78,0-3-1.2-3-3.4V68.19c0-2.2,1.18-3.4,3-3.4A2.47,2.47,0,0,1,21,66.73l2.62-1.36a5.17,5.17,0,0,0-5.22-3.28c-3.76,0-6.18,2.6-6.18,7.32S14.59,76.53,18.35,76.53Z"/><path class="j" d="M12.17,69.41c0-4.72,2.42-7.32,6.18-7.32a5.17,5.17,0,0,1,5.22,3.28L21,66.73a2.47,2.47,0,0,0-2.6-1.94c-1.78,0-3,1.2-3,3.4v2.24c0,2.2,1.18,3.4,3,3.4a2.87,2.87,0,0,0,2.78-2.08l2.48,1.44a5.46,5.46,0,0,1-5.26,3.34C14.59,76.53,12.17,74.13,12.17,69.41Z"/><path class="i" d="M15.29,100.34V91.78h2.22c1.8,0,2.92,1,2.92,3.2v2.16c0,2.22-1.12,3.2-2.92,3.2Zm-3,2.7h5.26c3.7,0,6.14-2.34,6.14-7s-2.44-7-6.14-7H12.25Z"/><path class="j" d="M12.25,89.08h5.26c3.7,0,6.14,2.34,6.14,7s-2.44,7-6.14,7H12.25Zm5.26,11.26c1.8,0,2.92-1,2.92-3.2V95c0-2.22-1.12-3.2-2.92-3.2H15.29v8.56Z"/><polygon class="i" points="22.65 130.5 22.65 127.8 16.19 127.8 16.19 124.78 21.73 124.78 21.73 122.1 16.19 122.1 16.19 119.24 22.65 119.24 22.65 116.54 13.15 116.54 13.15 130.5 22.65 130.5"/><path class="j" d="M13.15,130.5v-14h9.5v2.7H16.19v2.86h5.54v2.68H16.19v3h6.46v2.7Z"/><polygon class="i" points="16.41 156.69 16.41 150.97 21.71 150.97 21.71 148.29 16.41 148.29 16.41 145.43 22.63 145.43 22.63 142.73 13.37 142.73 13.37 156.69 16.41 156.69"/><path class="j" d="M13.37,156.69v-14h9.26v2.7H16.41v2.86h5.3V151h-5.3v5.72Z"/><path class="i" d="M20.89,183.47h2.56v-7.78H18v2.54h2.6v.7c0,1.36-1.22,2.08-2.74,2.08-1.88,0-3.1-1.08-3.1-3.4v-2.24c0-2.32,1.22-3.4,3.1-3.4a2.89,2.89,0,0,1,2.9,2l2.48-1.42a5.59,5.59,0,0,0-5.38-3.24c-3.78,0-6.32,2.58-6.32,7.28s2.52,7.16,5.72,7.16c2.1,0,3.38-1.06,3.58-2.46h.1Z"/><path class="j" d="M20.89,181.24h-.1c-.2,1.41-1.48,2.47-3.58,2.47-3.2,0-5.72-2.48-5.72-7.17s2.54-7.28,6.32-7.28a5.59,5.59,0,0,1,5.38,3.24l-2.48,1.42a2.89,2.89,0,0,0-2.9-2c-1.88,0-3.1,1.08-3.1,3.4v2.24c0,2.32,1.22,3.4,3.1,3.4,1.52,0,2.74-.72,2.74-2.08v-.7H18v-2.54h5.5v7.79H20.89Z"/></svg>