<svg xmlns="http://www.w3.org/2000/svg" xmlns:xlink="http://www.w3.org/1999/xlink" width="48.17mm" height="45.81mm" viewBox="0 0 136.56 129.84"><defs><style>.a{fill:url(#a);}.b{fill:url(#b);}.c{fill:url(#c);}.d{fill:url(#d);}.e{fill:url(#e);}.f{fill:url(#f);}.g,.w{fill:none;}.h{fill:#dedede;}.i{fill:#5bc5f2;}.j{mask:url(#g);}.k{clip-path:url(#i);}.l{fill:#e94b39;}.m{mask:url(#j);}.n{clip-path:url(#l);}.o{mask:url(#m);}.p{clip-path:url(#o);}.q{mask:url(#p);}.r{clip-path:url(#r);}.s{mask:url(#s);}.t{clip-path:url(#u);}.u{mask:url(#v);}.v{clip-path:url(#x);}.w{stroke:#f3e600;stroke-miterlimit:10;}.x{filter:url(#w);}.y{filter:url(#t);}.z{filter:url(#q);}.aa{filter:url(#n);}.ab{filter:url(#k);}.ac{filter:url(#h);}</style><linearGradient id="a" x1="-1566.86" y1="-357.64" x2="-1565.86" y2="-357.64" gradientTransform="matrix(0, -22.68, -22.68, 0, -8043.87, -35422.74)" gradientUnits="userSpaceOnUse"><stop offset="0" stop-color="#fff"/><stop offset="1"/></linearGradient><linearGradient id="b" x1="-1519.37" y1="-438.56" x2="-1518.37" y2="-438.56" gradientTransform="matrix(25.25, 0, 0, -25.25, 38376.17, -11007.39)" xlink:href="#a"/><linearGradient id="c" x1="-1442.14" y1="-397.93" x2="-1441.14" y2="-397.93" gradientTransform="matrix(0, 25.82, 25.82, 0, 10340.99, 37238.73)" xlink:href="#a"/><linearGradient id="d" x1="-1477.97" y1="-423.51" x2="-1476.97" y2="-423.51" gradientTransform="matrix(31.75, 0, 0, -31.75, 46923.7, -13382.32)" xlink:href="#a"/><linearGradient id="e" x1="-1532.27" y1="-313.47" x2="-1531.27" y2="-313.47" gradientTransform="matrix(-21.98, 0, 0, 21.98, -33558.98, 6955.25)" xlink:href="#a"/><linearGradient id="f" x1="-1453.38" y1="-359.93" x2="-1452.38" y2="-359.93" gradientTransform="matrix(0, 31.2, 31.2, 0, 11297.72, 45351.89)" xlink:href="#a"/><filter id="h" x="-2.04" y="-2.14" width="147.6" height="134.13" filterUnits="userSpaceOnUse" color-interpolation-filters="sRGB"><feFlood flood-color="#fff" result="bg"/><feBlend in="SourceGraphic" in2="bg"/></filter><mask id="g" x="-2.04" y="-2.14" width="147.6" height="134.13" maskUnits="userSpaceOnUse"><g class="ac"><rect class="a" x="2.29" y="-4.37" width="131.97" height="138.58" transform="translate(2.29 132.17) rotate(-89.1)"/></g></mask><clipPath id="i"><rect class="g" x="87.96" y="55.51" width="57.6" height="24.96"/></clipPath><filter id="k" x="-2.49" y="-2.62" width="141.54" height="135.09" filterUnits="userSpaceOnUse" color-interpolation-filters="sRGB"><feFlood flood-color="#fff" result="bg"/><feBlend in="SourceGraphic" in2="bg"/></filter><mask id="j" x="-2.49" y="-2.62" width="141.54" height="135.09" maskUnits="userSpaceOnUse"><g class="ab"><rect class="b" x="2.06" y="-4.59" width="132.44" height="139.03" transform="matrix(0.02, -1, 1, 0.02, 2.06, 131.94)"/></g></mask><clipPath id="l"><rect class="g" x="49.77" y="83.24" width="34.96" height="47.6"/></clipPath><filter id="n" x="-9" y="-0.71" width="146.24" height="131.27" filterUnits="userSpaceOnUse" color-interpolation-filters="sRGB"><feFlood flood-color="#fff" result="bg"/><feBlend in="SourceGraphic" in2="bg"/></filter><mask id="m" x="-9" y="-0.71" width="146.24" height="131.27" maskUnits="userSpaceOnUse"><g class="aa"><rect class="c" x="3" y="-3.7" width="130.56" height="137.24" transform="translate(3 132.86) rotate(-89.7)"/></g></mask><clipPath id="o"><rect class="g" x="-9" y="55.51" width="57.6" height="24.96"/></clipPath><filter id="q" x="-64.92" y="-68.27" width="266.39" height="266.39" filterUnits="userSpaceOnUse" color-interpolation-filters="sRGB"><feFlood flood-color="#fff" result="bg"/><feBlend in="SourceGraphic" in2="bg"/></filter><mask id="p" x="-64.92" y="-68.27" width="266.39" height="266.39" maskUnits="userSpaceOnUse"><g class="z"><rect class="d" x="-25.92" y="-29.25" width="188.4" height="188.34" transform="translate(-25.92 66.64) rotate(-44.6)"/></g></mask><clipPath id="r"><rect class="g" x="-4.51" y="79.9" width="52.05" height="42.05"/></clipPath><filter id="t" x="-64.92" y="-68.28" width="266.4" height="266.4" filterUnits="userSpaceOnUse" color-interpolation-filters="sRGB"><feFlood flood-color="#fff" result="bg"/><feBlend in="SourceGraphic" in2="bg"/></filter><mask id="s" x="-64.92" y="-68.28" width="266.4" height="266.4" maskUnits="userSpaceOnUse"><g class="y"><rect class="e" x="-25.91" y="-29.27" width="188.37" height="188.37" transform="translate(-25.91 67.3) rotate(-45)"/></g></mask><clipPath id="u"><rect class="g" x="66.74" y="-0.76" width="49.01" height="39.01"/></clipPath><filter id="w" x="-64.29" y="-67.61" width="265.14" height="265.07" filterUnits="userSpaceOnUse" color-interpolation-filters="sRGB"><feFlood flood-color="#fff" result="bg"/><feBlend in="SourceGraphic" in2="bg"/></filter><mask id="v" x="-64.29" y="-67.61" width="265.14" height="265.07" maskUnits="userSpaceOnUse"><g class="x"><rect class="f" x="-25.51" y="-29.2" width="187.58" height="188.25" transform="translate(-25.51 73.86) rotate(-49)"/></g></mask><clipPath id="x"><rect class="g" x="15.2" y="-0.76" width="58.43" height="48.52"/></clipPath></defs><title>DPE_</title><path class="h" d="M20,46v8.79h6.82v-6L42.85,32.72l-1.37-1.38L38.83,28.7,38,27.89Zm46-46L42.85,23.07l4.82,4.82L65.92,9.65l39.14,39.14V96.68H26.77V84.75H20V103.5h91.93V46Z"/><rect class="i" x="21.93" y="54.76" width="3.04" height="29.98"/><g class="j"><g class="k"><polygon class="l" points="136.56 70.99 121.87 62.51 121.87 66.73 96.96 66.73 96.96 75.24 121.87 75.24 121.87 79.47 136.56 70.99"/></g></g><g class="m"><g class="n"><polygon class="l" points="71.51 90.25 63 90.25 63 115.16 58.77 115.16 67.25 129.84 75.73 115.16 71.51 115.16 71.51 90.25"/></g></g><g class="o"><g class="p"><polygon class="l" points="14.69 75.24 39.6 75.24 39.6 66.73 14.69 66.73 14.69 62.51 0 70.98 14.69 79.47 14.69 75.24"/></g></g><g class="q"><g class="r"><polygon class="l" points="32.52 86.9 11.87 107.56 8.88 104.57 4.49 120.95 20.87 116.56 17.88 113.57 38.54 92.92 32.52 86.9"/></g></g><g class="s"><g class="t"><polygon class="l" points="102.36 22.62 106.74 6.24 90.36 10.62 93.35 13.61 75.73 31.23 81.75 37.24 99.36 19.63 102.36 22.62"/></g></g><g class="u"><g class="v"><path class="l" d="M61.28,37.46a8.21,8.21,0,0,1-1.88-3.07c-1.37-3.09-3.24-7.32-11-9-4.91-1.06-5.26-2-6.12-4.38a16.75,16.75,0,0,0-3.67-6.37l-1-1.05,3-3L24.2,6.24l4.39,16.38,3-3,.86.9a8.6,8.6,0,0,1,1.84,3.41c1.54,4.23,3.53,7.88,12.31,9.79,3.52.76,4,1.75,5,4.13a16.23,16.23,0,0,0,3.93,5.92c.66.59,2.49,2.36,3.15,3l5.91-6.11c-.1-.1-2.45-2.38-3.34-3.19"/></g></g><rect class="w" x="-804.58" y="-184.33" width="4692.54" height="1133.5"/></svg>