<svg xmlns="http://www.w3.org/2000/svg" width="5mm" height="5mm" viewBox="0 0 14.17 14.17"><defs><style>.a{fill:#36a9e1;}.b{fill:none;stroke:#f3e600;stroke-miterlimit:10;}</style></defs><title>DPE_</title><path class="a" d="M4.61,5.72a1.4,1.4,0,0,0-1.4,1.4A1.41,1.41,0,0,0,6,7.12a1.41,1.41,0,0,0-1.42-1.4m0-.48A1.89,1.89,0,1,1,2.73,7.12,1.89,1.89,0,0,1,4.61,5.24"/><polygon class="a" points="4.28 7.42 3.87 6.71 3.57 6.89 4.2 7.98 5.67 6.51 5.42 6.25 4.28 7.42"/><path class="a" d="M8.84,3.64V4.71H9.91ZM4.63,2.78h4A14,14,0,0,1,10.54,4.6a.31.31,0,0,1,.08.18v6.27a.26.26,0,0,1-.26.25H4.63a.25.25,0,0,1-.25-.25V9.17a2.17,2.17,0,0,0,.51,0v1.62h5.22V5.19H8.36V3.29H4.89V5.06H4.38V3a.25.25,0,0,1,.25-.25"/><rect class="b" x="-4468.1" y="-215.98" width="4692.54" height="1133.5"/></svg>