<svg xmlns="http://www.w3.org/2000/svg" width="8mm" height="8mm" viewBox="0 0 22.68 22.68"><defs><style>.a{fill:none;stroke:#f3e600;stroke-miterlimit:10;}.b{fill:#1d1d1b;}</style></defs><title>DPE_</title><rect class="a" x="-2773.74" y="-229.89" width="4692.54" height="1133.5"/><path class="b" d="M18.47,15.61a.52.52,0,0,0-.17-.7l-1.64-1,1.93-1.05a.51.51,0,0,0,.21-.69.51.51,0,0,0-.69-.2l-2.47,1.33-3.58-2.17,3.65-2.05,2.43,1.4a.52.52,0,0,0,.25.07h0a.51.51,0,0,0,.25-1l-1.9-1.1,1.66-.94a.52.52,0,0,0-.11-.94.5.5,0,0,0-.38,0l-1.68.94,0-2.2a.51.51,0,0,0-.5-.52.53.53,0,0,0-.51.51l0,2.79-3.65,2.06V5.62l2.52-1.48a.51.51,0,0,0,.18-.69A.48.48,0,0,0,14,3.21a.57.57,0,0,0-.38,0l-2,1.18V3a.51.51,0,1,0-1,0V4.32L8.75,3.26a.56.56,0,0,0-.38,0,.48.48,0,0,0-.31.24.51.51,0,0,0,.18.69L10.55,5.5v4.73L7,8.08l0-2.8a.5.5,0,0,0-.5-.51.51.51,0,0,0-.51.5l0,2.2-1.64-1a.5.5,0,0,0-.7.18.5.5,0,0,0,.17.69l1.64,1L3.52,9.39a.5.5,0,0,0,.24.95h0A.53.53,0,0,0,4,10.28L6.46,9l3.59,2.17L6.4,13.17,4,11.77a.49.49,0,0,0-.39,0,.49.49,0,0,0-.31.24.51.51,0,0,0,.19.69l1.9,1.1-1.66.94a.51.51,0,1,0,.49.89l1.68-.94,0,2.2a.51.51,0,1,0,1,0l.05-2.8L10.55,12v4.18L8.13,17.6a.51.51,0,0,0-.18.69.49.49,0,0,0,.31.24.5.5,0,0,0,.38-.05l1.91-1.12v1.91a.48.48,0,0,0,.15.36.47.47,0,0,0,.35.15h0a.51.51,0,0,0,.51-.51V17.36l1.91,1.12a.52.52,0,0,0,.69-.19A.51.51,0,0,0,14,17.6l-2.42-1.42V12l3.56,2.15,0,2.8a.5.5,0,0,0,.5.51.5.5,0,0,0,.51-.5l0-2.2,1.64,1A.53.53,0,0,0,18.47,15.61Z"/></svg>