<svg xmlns="http://www.w3.org/2000/svg" width="27mm" height="27mm" viewBox="0 0 76.54 76.54"><defs><style>.a,.b,.d,.f,.g{fill:none;}.a,.b,.f{stroke:#2caf85;}.a{stroke-linecap:round;}.a,.b{stroke-linejoin:round;stroke-width:1.42px;}.c{fill:#fff;}.d{stroke:#fff;stroke-width:3px;}.d,.f,.g{stroke-miterlimit:10;}.e{fill:#2caf85;}.f{stroke-width:2px;}.g{stroke:#f3e600;}</style></defs><title>DPE_</title><line class="a" x1="12.42" y1="29.99" x2="26.65" y2="29.99"/><line class="a" x1="19.53" y1="47.69" x2="56.82" y2="47.69"/><line class="b" x1="33.29" y1="54.36" x2="46.15" y2="54.36"/><line class="b" x1="28.69" y1="60.49" x2="28.69" y2="65.47"/><line class="b" x1="48.15" y1="60.49" x2="48.15" y2="65.47"/><path class="a" d="M43.06,37.18c3.62-4.79-3.61-9.59,0-14.39"/><path class="a" d="M39.64,37.18c3.61-4.79-3.61-9.59,0-14.39"/><path class="a" d="M36.21,37.18c3.62-4.79-3.61-9.59,0-14.39"/><path class="a" d="M32.79,37.18c3.61-4.79-3.61-9.59,0-14.39"/><polyline class="a" points="23.03 24.98 27.56 29.82 22.72 35"/><line class="a" x1="50.8" y1="29.99" x2="64.61" y2="29.99"/><polyline class="a" points="61.42 24.98 65.95 29.82 61.11 35"/><path class="a" d="M49.94,60.91H26.38a7.17,7.17,0,0,1-7.17-7.17V16a7.17,7.17,0,0,1,7.17-7.17H50A7.17,7.17,0,0,1,57.12,16V53.73A7.17,7.17,0,0,1,49.94,60.91Z"/><circle class="a" cx="28.64" cy="54.36" r="2.01"/><path class="c" d="M14.21,74A11.51,11.51,0,1,0,2.69,62.48,11.51,11.51,0,0,0,14.21,74"/><path class="d" d="M14.21,74A11.51,11.51,0,1,0,2.69,62.48,11.51,11.51,0,0,0,14.21,74Z"/><path class="c" d="M14.21,73.86A11.38,11.38,0,1,0,2.82,62.48,11.38,11.38,0,0,0,14.21,73.86"/><path class="e" d="M14.21,52.52a10,10,0,1,1-10,10,10,10,0,0,1,10-10m0-1.42A11.38,11.38,0,1,0,25.59,62.48,11.38,11.38,0,0,0,14.21,51.1Z"/><polyline class="c" points="8.71 62.55 12.56 66.48 20.19 58.69"/><polyline class="f" points="8.71 62.55 12.56 66.48 20.19 58.69"/><rect class="g" x="-2108.98" y="-181.73" width="4692.54" height="1133.5"/></svg>