<svg xmlns="http://www.w3.org/2000/svg" width="8mm" height="8mm" viewBox="0 0 22.68 22.68"><defs><style>.a{isolation:isolate;}.b{mix-blend-mode:multiply;}.c{fill:#1d1d1b;}.d{fill:none;stroke:#f3e600;stroke-miterlimit:10;}</style></defs><title>DPE_</title><g class="a"><g class="b"><path class="c" d="M10,20H1.94V19H10a1.28,1.28,0,0,0,1.4-1.09V9.05a2.61,2.61,0,0,1-1.4.4H1.8v-1H10a1.28,1.28,0,0,0,1.4-1.09V2.74h1v9.87a1.28,1.28,0,0,0,1.4,1.09h6.53v1H13.84a2.72,2.72,0,0,1-1.4-.39v3.57A2.27,2.27,0,0,1,10,20Z"/></g><rect class="d" x="-3423.48" y="-349.02" width="4692.54" height="1133.5"/></g></svg>