<svg xmlns="http://www.w3.org/2000/svg" width="14mm" height="14mm" viewBox="0 0 39.69 39.69"><defs><style>.a,.b{fill:none;}.a{stroke:#9d9d9c;stroke-linecap:round;stroke-linejoin:round;}.b{stroke:#f3e600;stroke-miterlimit:10;}</style></defs><title>DPE_</title><path class="a" d="M29.43,25.4A11.13,11.13,0,0,0,20.53,10M18,10A11.1,11.1,0,0,0,9,25.48m1.4,2.35a11.08,11.08,0,0,0,17.56,0"/><path class="a" d="M10.15,30.35l-.06-2.5,2.48-.12m19-3.16-2.25.95-1.06-2.29M16,8.51,17.93,10l-1.48,2"/><path class="a" d="M22.08,25.27c1.89-2.51-1.88-5,0-7.52M20.3,25.27c1.88-2.51-1.89-5,0-7.52m-1.79,7.52c1.88-2.51-1.89-5,0-7.52m-1.79,7.52c1.88-2.51-1.89-5,0-7.52"/><rect class="b" x="-1813.81" y="-379.28" width="4692.54" height="1133.5"/></svg>