<svg xmlns="http://www.w3.org/2000/svg" width="23mm" height="23mm" viewBox="0 0 65.2 65.2"><defs><style>.a,.c,.e,.f{fill:none;}.a,.e{stroke:#2caf85;}.a{stroke-linecap:round;stroke-linejoin:round;stroke-width:1.42px;}.b{fill:#fff;}.c{stroke:#fff;stroke-width:3px;}.c,.e,.f{stroke-miterlimit:10;}.d{fill:#2caf85;}.e{stroke-width:2px;}.f{stroke:#f3e600;}</style></defs><title>DPE_</title><path class="a" d="M49,47.75h6m-6-3.66h6m-6-3.67h6m-6-3.66h6M49,33.1h6m-6-3.67h6m-6-3.66h6M49,22.1h6m-6-3.66h6M47,51.09H57.16V14.67H47ZM10.28,47.75h6.64m-6.64-3.66h6.64m-6.64-3.67h6.64m-6.64-3.66h6.64M10.65,33.1h5.9m-5.9-3.67h5.9m-5.9-3.66h5.9m-5.9-3.67h5.9m-5.9-3.66h5.9m-8,32.65H18.74V14.67H8.6Zm38.42,0H18.74V14.67H47Z"/><path class="b" d="M14.21,59.54A11.52,11.52,0,1,0,2.69,48,11.51,11.51,0,0,0,14.21,59.54"/><path class="c" d="M14.21,59.54A11.52,11.52,0,1,0,2.69,48,11.51,11.51,0,0,0,14.21,59.54Z"/><path class="b" d="M14.21,59.4A11.38,11.38,0,1,0,2.82,48,11.38,11.38,0,0,0,14.21,59.4"/><path class="d" d="M14.21,38.06a10,10,0,1,1-10,10,10,10,0,0,1,10-10m0-1.42A11.38,11.38,0,1,0,25.59,48,11.39,11.39,0,0,0,14.21,36.64Z"/><polyline class="b" points="8.71 48.1 12.56 52.02 20.19 44.24"/><polyline class="e" points="8.71 48.1 12.56 52.02 20.19 44.24"/><rect class="f" x="-2162.6" y="-460.92" width="4692.54" height="1133.5"/></svg>