<svg xmlns="http://www.w3.org/2000/svg" width="8mm" height="8mm" viewBox="0 0 22.68 22.68"><defs><style>.a{fill:none;stroke:#f3e600;stroke-miterlimit:10;}.b{fill:#1d1d1b;}</style></defs><title>DPE_</title><rect class="a" x="-3313.31" y="-287.17" width="4692.54" height="1133.5"/><path class="b" d="M19.05,12.3a.58.58,0,0,0-.8-.24l-2.41,1.3-3.41-2,3.46-2,2.38,1.37a.62.62,0,0,0,.81-.22.59.59,0,0,0-.22-.8l-1.77-1,1.53-.86a.59.59,0,0,0,.23-.8.57.57,0,0,0-.36-.28.61.61,0,0,0-.44,0l-1.55.87,0-2a.63.63,0,0,0-.16-.42A.56.56,0,0,0,16,5a.61.61,0,0,0-.6.58l0,2.73-.07,0-3.4,1.91v-4l2.37-1.39a.58.58,0,1,0-.59-1L11.84,5V3.2a.59.59,0,1,0-1.17,0V5l-1.78-1a.58.58,0,1,0-.59,1l2.37,1.39v3.93l-3.38-2,0-2.73a.59.59,0,0,0-1.18,0l0,2L4.6,6.6a.59.59,0,0,0-.81.2.63.63,0,0,0-.07.45A.61.61,0,0,0,4,7.61l1.51.91-1.8,1a.61.61,0,0,0-.31.52.58.58,0,0,0,.59.59.55.55,0,0,0,.28-.07l2.42-1.3,3.4,2-3.46,2L4.24,11.86a.55.55,0,0,0-.45-.06.58.58,0,0,0-.36.27.55.55,0,0,0-.05.45.53.53,0,0,0,.27.35l1.77,1-1.53.86a.59.59,0,0,0-.13.93.57.57,0,0,0,.42.17h0a.59.59,0,0,0,.29-.07L6,14.92l0,2a.59.59,0,0,0,.17.42.54.54,0,0,0,.41.18.6.6,0,0,0,.6-.58l0-2.73.07,0,3.4-1.91v4L8.3,17.65a.58.58,0,0,0-.21.8.59.59,0,0,0,.8.22l1.78-1v1.76a.59.59,0,1,0,1.17,0V17.63l1.78,1a.6.6,0,0,0,.8-.22.58.58,0,0,0-.21-.8l-2.37-1.39V12.33l3.38,2,0,2.73a.59.59,0,0,0,.17.42.64.64,0,0,0,.42.18.59.59,0,0,0,.59-.59l0-2,1.51.91a.61.61,0,0,0,.81-.2.59.59,0,0,0-.2-.81L17,14.07l1.8-1A.59.59,0,0,0,19.05,12.3Z"/></svg>