<svg xmlns="http://www.w3.org/2000/svg" width="8mm" height="8mm" viewBox="0 0 22.68 22.68"><defs><style>.a{fill:none;stroke:#f3e600;stroke-miterlimit:10;}.b{fill:#1d1d1b;}</style></defs><title>DPE_</title><rect class="a" x="-3423.48" y="-443.95" width="4692.54" height="1133.5"/><path class="b" d="M11.34,2.11a9.23,9.23,0,1,0,9.22,9.23A9.24,9.24,0,0,0,11.34,2.11Zm0,17.46a8.23,8.23,0,1,1,8.22-8.23A8.24,8.24,0,0,1,11.34,19.57Z"/><rect class="b" x="8.26" y="15.17" width="6.15" height="1.57"/><path class="b" d="M11.34,7.08a.51.51,0,0,0,.5-.5V5.09a.51.51,0,0,0-.5-.5.5.5,0,0,0-.5.5V6.58A.5.5,0,0,0,11.34,7.08Z"/><path class="b" d="M13,7.4a.48.48,0,0,0,.2,0,.49.49,0,0,0,.46-.31l.57-1.37a.5.5,0,0,0-.93-.38L12.7,6.75A.51.51,0,0,0,13,7.4Z"/><path class="b" d="M16.12,6.58a.5.5,0,0,0-.71,0l-1.05,1a.5.5,0,0,0,.35.85.54.54,0,0,0,.36-.14l1.05-1A.5.5,0,0,0,16.12,6.58Z"/><path class="b" d="M15.93,10l1.38-.57a.5.5,0,1,0-.38-.92l-1.37.56a.5.5,0,0,0-.28.65.49.49,0,0,0,.46.31A.58.58,0,0,0,15.93,10Z"/><path class="b" d="M17.59,10.87H16.1a.5.5,0,0,0-.5.5.5.5,0,0,0,.5.5h1.48a.5.5,0,0,0,0-1Z"/><path class="b" d="M6.58,10.84H5.09a.5.5,0,0,0-.5.5.51.51,0,0,0,.5.5H6.58a.51.51,0,0,0,.5-.5A.5.5,0,0,0,6.58,10.84Z"/><path class="b" d="M7.14,9,5.77,8.47a.5.5,0,0,0-.66.26.52.52,0,0,0,.27.66L6.75,10A.48.48,0,0,0,7,10a.49.49,0,0,0,.46-.31A.51.51,0,0,0,7.14,9Z"/><path class="b" d="M9,7.14a.5.5,0,0,0,.46.3.69.69,0,0,0,.2,0A.52.52,0,0,0,10,6.75L9.39,5.38a.51.51,0,0,0-.65-.27.5.5,0,0,0-.27.66Z"/><path class="b" d="M10.2,10.91a1.23,1.23,0,1,0,.71-.71L6.77,6.06a.5.5,0,1,0-.71.71Z"/></svg>