<svg xmlns="http://www.w3.org/2000/svg" width="27mm" height="27mm" viewBox="0 0 76.54 76.54"><defs><style>.a{isolation:isolate;}.b{mix-blend-mode:multiply;}.c{fill:#2caf85;}.d,.f,.g,.h{fill:none;}.d,.g{stroke:#2caf85;}.d{stroke-linecap:round;stroke-linejoin:round;stroke-width:1.42px;}.e{fill:#fff;}.f{stroke:#fff;stroke-width:3px;}.f,.g,.h{stroke-miterlimit:10;}.g{stroke-width:2px;}.h{stroke:#f3e600;}</style></defs><title>DPE_</title><g class="a"><g class="b"><path class="c" d="M26.65,42.2a.36.36,0,0,0-.33.31A7.66,7.66,0,0,1,24,47.09a5.29,5.29,0,0,0-1.87,4.12,3.7,3.7,0,0,0,1.18,2.66,6.56,6.56,0,0,0,2.55,1.49.36.36,0,0,0,.46-.23.35.35,0,0,0-.07-.35,3.56,3.56,0,0,1-1.08-2.36,3.15,3.15,0,0,1,.39-1.24l.68.52.24.14.12,0a.38.38,0,0,0,.31,0A2.55,2.55,0,0,0,27.6,51,4.08,4.08,0,0,0,28,49.26a4.42,4.42,0,0,1,1.23,2.82,3.89,3.89,0,0,1-1.34,2.67.35.35,0,0,0,0,.51.37.37,0,0,0,.31.12,4.4,4.4,0,0,0,3.8-4.2,8.42,8.42,0,0,0-1-4.26,18.34,18.34,0,0,0-4-4.62.34.34,0,0,0-.27-.1"/></g><g class="b"><path class="c" d="M53.06,23.24a.53.53,0,0,0-.48-.3H50l1.81-3.37a.51.51,0,0,0,0-.52.54.54,0,0,0-.45-.26H48.12a.53.53,0,0,0-.47.28l-3.51,6.54a.53.53,0,0,0,0,.52.54.54,0,0,0,.46.26H47l-1.3,4.92a.55.55,0,0,0,.28.61.59.59,0,0,0,.23,0,.53.53,0,0,0,.41-.19l6.41-8a.52.52,0,0,0,.07-.56"/></g><path class="d" d="M38.32,38.06a16.24,16.24,0,1,1-23,0"/><polyline class="d" points="37.62 43.25 37.62 37.37 43.51 37.37"/><path class="d" d="M59.11,35.9a16.24,16.24,0,1,0-23,0"/><polyline class="d" points="58.41 30.71 58.41 36.59 64.3 36.59"/><path class="e" d="M14.21,74A11.51,11.51,0,1,0,2.69,62.48,11.51,11.51,0,0,0,14.21,74"/><path class="f" d="M14.21,74A11.51,11.51,0,1,0,2.69,62.48,11.51,11.51,0,0,0,14.21,74Z"/><path class="e" d="M14.21,73.86A11.38,11.38,0,1,0,2.82,62.48,11.38,11.38,0,0,0,14.21,73.86"/><path class="c" d="M14.21,52.52a10,10,0,1,1-10,10,10,10,0,0,1,10-10m0-1.42A11.38,11.38,0,1,0,25.59,62.48,11.38,11.38,0,0,0,14.21,51.1Z"/><polyline class="e" points="8.71 62.55 12.56 66.48 20.19 58.69"/><polyline class="g" points="8.71 62.55 12.56 66.48 20.19 58.69"/><rect class="h" x="-1910.12" y="-276.84" width="4692.54" height="1133.5"/></g></svg>