<svg xmlns="http://www.w3.org/2000/svg" width="90.52mm" height="32.13mm" viewBox="0 0 256.59 91.09"><defs><style>.a{fill:#fff;}.b,.d{fill:#f49838;}.b{opacity:0.25;}.c{fill:#ededed;}.e{fill:none;stroke:#f3e600;stroke-miterlimit:10;}.f{fill:#b3b3b3;}</style></defs><title>DPE_</title><rect class="a" width="256.08" height="91.09"/><rect class="b" x="88.36" y="4.25" width="79.86" height="68.41"/><rect class="c" x="4.25" y="4.25" width="79.86" height="68.41"/><rect class="c" x="172.48" y="4.25" width="79.86" height="68.41"/><path class="d" d="M128.3,18.46a20,20,0,1,0,20,20,20,20,0,0,0-20-20m0,2.78a17.22,17.22,0,1,1-17.22,17.22A17.24,17.24,0,0,1,128.3,21.24"/><path class="d" d="M139.27,42.82H117a1.07,1.07,0,0,1,0-2.13h22.25a1.07,1.07,0,0,1,0,2.13Z"/><path class="d" d="M120.27,30.43a2,2,0,1,1-2,2,2,2,0,0,1,2-2"/><path class="d" d="M136.37,30.43a2,2,0,1,1-2,2,2,2,0,0,1,2-2"/><rect class="e" x="-1332.19" y="-719.84" width="4692.54" height="1133.5"/><rect class="f" x="4.25" y="72.66" width="79.86" height="14.17"/><rect class="d" x="88.36" y="72.66" width="79.86" height="14.17"/><rect class="f" x="172.48" y="72.66" width="79.86" height="14.17"/></svg>