<svg xmlns="http://www.w3.org/2000/svg" width="27mm" height="27mm" viewBox="0 0 76.54 76.54"><defs><style>.a,.c,.e,.f,.g{fill:none;}.a,.c,.f{stroke:#2caf85;}.a,.c{stroke-linecap:round;stroke-linejoin:round;}.a{stroke-width:1.42px;}.b{fill:#2caf85;}.d{fill:#fff;}.e{stroke:#fff;stroke-width:3px;}.e,.f,.g{stroke-miterlimit:10;}.f{stroke-width:2px;}.g{stroke:#f3e600;}</style></defs><title>DPE_</title><path class="a" d="M29.53,11.24,26,7.73m-.23,12.53h-5m8.7,9L26,32.78M38.55,33V38m9-8.69,3.51,3.5m.23-12.52h5m-8.7-9,3.51-3.51M38.55,7.5v-5M27.44,41.88,24.08,66.53M38.54,41.88V66.53m11.1-24.65L53,66.53M14.48,48.71H62.61M12.27,56.8H64.81M19.11,41.88H58c1.55,0,3,.78,3.28,1.78L66.7,63.72c.42,1.53-.82,2.81-2.78,2.81H13.27c-2,0-3.29-1.31-2.86-2.88l5.45-20C16.13,42.66,17.58,41.88,19.11,41.88Z"/><path class="b" d="M48.17,20.31a9.62,9.62,0,1,1-9.62-9.62,9.62,9.62,0,0,1,9.62,9.62"/><path class="c" d="M48.17,20.31a9.62,9.62,0,1,1-9.62-9.62A9.62,9.62,0,0,1,48.17,20.31Z"/><path class="d" d="M14.21,74A11.51,11.51,0,1,0,2.69,62.48,11.51,11.51,0,0,0,14.21,74"/><path class="e" d="M14.21,74A11.51,11.51,0,1,0,2.69,62.48,11.51,11.51,0,0,0,14.21,74Z"/><path class="d" d="M14.21,73.86A11.38,11.38,0,1,0,2.82,62.48,11.38,11.38,0,0,0,14.21,73.86"/><path class="b" d="M14.21,52.52a10,10,0,1,1-10,10,10,10,0,0,1,10-10m0-1.42A11.38,11.38,0,1,0,25.59,62.48,11.38,11.38,0,0,0,14.21,51.1Z"/><polyline class="d" points="8.71 62.55 12.56 66.48 20.19 58.69"/><polyline class="f" points="8.71 62.55 12.56 66.48 20.19 58.69"/><rect class="g" x="-1809.61" y="-181.73" width="4692.54" height="1133.5"/></svg>