<svg xmlns="http://www.w3.org/2000/svg" width="8mm" height="8mm" viewBox="0 0 22.68 22.68"><defs><style>.a{fill:none;stroke:#f3e600;stroke-miterlimit:10;}.b{fill:#1d1d1b;}</style></defs><title>DPE_</title><rect class="a" x="-3206.72" y="-404.73" width="4692.54" height="1133.5"/><path class="b" d="M20.3,4.8H13.9V1.74h-1V4.8H10.1V1.74h-1V4.8H2.35a.5.5,0,0,0-.5.5V18.91a.5.5,0,0,0,.5.5h18a.5.5,0,0,0,.5-.5V5.3A.5.5,0,0,0,20.3,4.8Zm-.5,13.61H2.85V5.8h17Z"/><path class="b" d="M5.17,16.33H17.48a.5.5,0,0,0,.5-.5V7.25a.5.5,0,0,0-.5-.5H5.17a.5.5,0,0,0-.5.5v8.58A.5.5,0,0,0,5.17,16.33ZM8.6,14.56l.05-.05v.1A.05.05,0,0,1,8.6,14.56Zm1,.19a.94.94,0,0,0,.39.58H9.18A.92.92,0,0,0,9.56,14.75Zm3.65,0a.92.92,0,0,0,.38.58h-.76A1,1,0,0,0,13.21,14.75Zm.86-.19,0-.05v.1A0,0,0,0,1,14.07,14.56Zm-1.77,0a0,0,0,0,1-.05,0l.05-.05ZM12,13.68a.91.91,0,0,0-.58.69.93.93,0,0,0-.67-.71,1.39,1.39,0,0,1-.27-.77,1.52,1.52,0,0,1,.18-.57l.31.24.11.06.06,0a.18.18,0,0,0,.14,0,1.18,1.18,0,0,0,.33-.39,1.83,1.83,0,0,0,.19-.79,2,2,0,0,1,.56,1.29A1.58,1.58,0,0,1,12,13.68Zm-1.49.83v.1a.06.06,0,0,1-.06,0Zm.91.24a.92.92,0,0,0,.38.58H11A1,1,0,0,0,11.39,14.75Zm-5.72-7H17v7.58H14.65a.94.94,0,0,0-.53-1.72.93.93,0,0,0-.91.76,1,1,0,0,0-.36-.56,1.91,1.91,0,0,0,.74-1.49,3.88,3.88,0,0,0-.47-2,8.65,8.65,0,0,0-1.85-2.13.2.2,0,0,0-.13,0,.17.17,0,0,0-.15.14,3.46,3.46,0,0,1-1.08,2.1,2.44,2.44,0,0,0-.85,1.9,1.73,1.73,0,0,0,.54,1.22,2.85,2.85,0,0,0,.33.25.91.91,0,0,0-.37.56.93.93,0,0,0-.91-.76.94.94,0,0,0-.53,1.72H5.67Z"/></svg>