<svg xmlns="http://www.w3.org/2000/svg" width="20.28mm" height="14.24mm" viewBox="0 0 57.48 40.37"><defs><style>.a{fill:#ea4893;}.b{fill:#fff;}.c{fill:none;stroke:#f3e600;stroke-miterlimit:10;}</style></defs><title>DPE_</title><path class="a" d="M3.41,11.69a1.38,1.38,0,0,1,1.27,1.46,1.38,1.38,0,0,1-1.27,1.47,1.38,1.38,0,0,1-1.27-1.47,1.38,1.38,0,0,1,1.27-1.46m40.3-1.55a1.64,1.64,0,1,1-1.62,1.64,1.63,1.63,0,0,1,1.62-1.64M31.29,4.44a22.22,22.22,0,0,1,3.28.24l-.14,2.76A22.4,22.4,0,0,0,20.81,9.86l-1-2.56A23.63,23.63,0,0,1,27,4.82a23.3,23.3,0,0,1,4.3-.38M44.64,0a10.36,10.36,0,0,0-6.38,1.92A27.27,27.27,0,0,0,29.49.5C20.46.5,12.66,4.8,9.09,11A7.34,7.34,0,0,0,6,9.62,6.56,6.56,0,0,0,2.77,7.3,1.31,1.31,0,0,0,1.11,8a1.21,1.21,0,0,0,.76,1.57,4.69,4.69,0,0,1,.78.35,4,4,0,0,0-2.5,2.48A3.1,3.1,0,0,0,1.34,16a3.7,3.7,0,0,0,2.07.62,3.47,3.47,0,0,0,1.89-.52A3.89,3.89,0,0,0,7,12.56a6.63,6.63,0,0,1,1,.74,14.72,14.72,0,0,0-1,5.24A16.23,16.23,0,0,0,13.17,31c-.09,2.06-.1,6.55,1.25,8.14.94,1.11,2.91,1.27,4,1.27.69,0,3-.08,4.18-1.17A6,6,0,0,0,23.76,36a28,28,0,0,0,8.69.44,6.87,6.87,0,0,0,1,2.67c.94,1.11,2.93,1.27,4,1.27.87,0,3-.11,4.15-1.17S43,34.92,43,33a18.32,18.32,0,0,0,4-3.06c5.36-.17,6.6-2.7,6.73-3a1.14,1.14,0,0,0,0-.94,1.23,1.23,0,0,0-.7-.66,3.09,3.09,0,0,1-1.13-.76c3.58-.15,4.37-1.08,4.64-1.4,1.44-1.69,1.41-7.31-.47-8.77a4.24,4.24,0,0,0-2.69-.71h-.87a2.4,2.4,0,0,1-.85-.08,5.12,5.12,0,0,1-1.14-1.8,12.93,12.93,0,0,0-3.68-4.95,7.62,7.62,0,0,1,2.5-4.28,1.2,1.2,0,0,0,.34-1.17A1.23,1.23,0,0,0,48.71.6,15.79,15.79,0,0,0,44.64,0"/><path class="b" d="M32.5,24.29a1,1,0,0,0-1.39.33,3.29,3.29,0,0,1-2.67,1.8,3.29,3.29,0,0,1-2.68-1.8,6.85,6.85,0,0,1-.6-1.38h1.71a1,1,0,0,0,0-2.07H24.8c0-.11,0-.22,0-.33v-.16c0-.16,0-.3,0-.45H27a1,1,0,0,0,0-2.08h-1.7a6.24,6.24,0,0,1,.7-1.39,3.14,3.14,0,0,1,2.48-1.49,3.11,3.11,0,0,1,2.47,1.49,1,1,0,0,0,1.41.23,1.06,1.06,0,0,0,.22-1.45,5.06,5.06,0,0,0-4.1-2.35,5.07,5.07,0,0,0-4.11,2.35,8.44,8.44,0,0,0-1.21,2.61h-.73a1,1,0,0,0,0,2.08h.39c0,.12,0,.24,0,.36v.25c0,.11,0,.22,0,.32h-.43a1,1,0,0,0,0,2.08h.71a8.71,8.71,0,0,0,1,2.47,5.21,5.21,0,0,0,4.39,2.78,5.21,5.21,0,0,0,4.38-2.78,1,1,0,0,0-.32-1.42"/><rect class="c" x="-554.87" y="-186.48" width="4692.54" height="1133.5"/></svg>