<svg xmlns="http://www.w3.org/2000/svg" width="20.25mm" height="18.09mm" viewBox="0 0 57.41 51.28"><defs><style>.a{fill:#e52322;}.b{fill:none;stroke:#f3e600;stroke-miterlimit:10;}</style></defs><title>DPE_</title><path class="a" d="M28.7,51.23A25.59,25.59,0,1,1,54.29,25.64,25.62,25.62,0,0,1,28.7,51.23Zm0-49.76A24.17,24.17,0,1,0,52.87,25.64,24.19,24.19,0,0,0,28.7,1.47Z"/><path class="a" d="M21.2,34.84a1,1,0,0,1-.44-.1.91.91,0,0,1-.39-1.25A9.53,9.53,0,0,1,28.83,29a9.52,9.52,0,0,1,8.45,4.54.91.91,0,0,1-.39,1.25,1,1,0,0,1-1.28-.39,7.61,7.61,0,0,0-6.78-3.55A7.62,7.62,0,0,0,22,34.35a.94.94,0,0,1-.84.49"/><path class="a" d="M22.82,22.78a1.48,1.48,0,1,1-1.51,1.48,1.5,1.5,0,0,1,1.51-1.48"/><path class="a" d="M34.87,22.78a1.48,1.48,0,1,1-1.51,1.48,1.5,1.5,0,0,1,1.51-1.48"/><polygon class="a" points="16.03 27.29 16.03 25.13 11.46 25.13 11.46 24.06 8.63 26.21 11.46 28.36 11.46 27.29 16.03 27.29"/><polygon class="a" points="16.03 32.97 16.03 30.82 11.46 30.82 11.46 29.75 8.63 31.9 11.46 34.05 11.46 32.97 16.03 32.97"/><polygon class="a" points="41.38 27.29 41.38 25.13 45.95 25.13 45.95 24.06 48.78 26.21 45.95 28.36 45.95 27.29 41.38 27.29"/><polygon class="a" points="41.38 32.97 41.38 30.82 45.95 30.82 45.95 29.75 48.78 31.9 45.95 34.05 45.95 32.97 41.38 32.97"/><polygon class="a" points="30.63 37.45 32.84 37.45 32.84 41.91 33.93 41.91 31.74 44.68 29.54 41.91 30.63 41.91 30.63 37.45"/><polygon class="a" points="24.81 37.45 27.02 37.45 27.02 41.91 28.11 41.91 25.91 44.68 23.72 41.91 24.81 41.91 24.81 37.45"/><polygon class="a" points="34.16 13.97 32.6 12.45 35.83 9.29 35.05 8.53 38.61 8.09 38.16 11.57 37.39 10.81 34.16 13.97"/><polygon class="a" points="38.27 17.99 36.72 16.47 39.95 13.31 39.17 12.55 42.73 12.12 42.28 15.59 41.51 14.84 38.27 17.99"/><polygon class="a" points="20.4 16.47 18.84 17.99 15.61 14.84 14.83 15.59 14.38 12.12 17.94 12.55 17.16 13.31 20.4 16.47"/><polygon class="a" points="24.51 12.45 22.95 13.97 19.72 10.81 18.95 11.57 18.5 8.09 22.06 8.53 21.28 9.29 24.51 12.45"/><polygon class="a" points="20.91 12.71 19.11 14.47 20.05 15.39 21.85 13.63 20.91 12.71"/><rect class="a" x="27.55" y="38.91" width="2.55" height="1.31"/><rect class="a" x="43.31" y="27.81" width="1.34" height="2.49"/><polygon class="a" points="37.23 15.23 38.17 14.3 36.37 12.54 35.43 13.47 37.23 15.23"/><path class="a" d="M39.54,17.49l3.77,3.68v3.44h1.34V20.9a.63.63,0,0,0-.2-.46l-4-3.87Z"/><path class="a" d="M24.17,11.37l4.55-4.45,4.39,4.29,1-.93L29.2,5.53a.7.7,0,0,0-.95,0l-5,4.92Z"/><path class="a" d="M43.31,33.5v5.41H33.37v1.31H44a.66.66,0,0,0,.67-.65V33.5Z"/><path class="a" d="M24.28,38.91H14.14V33.5H12.8v6.07a.66.66,0,0,0,.67.65H24.28Z"/><path class="a" d="M14.14,24.61V21.17l3.6-3.51-.95-.93L13,20.44a.66.66,0,0,0-.19.46v3.71Z"/><rect class="a" x="12.8" y="27.81" width="1.34" height="2.49"/><rect class="b" x="-481.65" y="-251.59" width="4692.54" height="1133.5"/></svg>