<svg xmlns="http://www.w3.org/2000/svg" width="66.74mm" height="91.25mm" viewBox="0 0 189.18 258.66"><defs><style>.a{fill:#a4dbf8;}.b{fill:#fff;}.c{fill:#7792b1;}.d{fill:#281b35;}.e{fill:#1d1d1b;}.f{fill:#606f8f;}.g{fill:#4d5271;}.h{fill:#393551;}.i{fill:#8cb4d3;}.j,.k{fill:none;}.j{stroke:#a5dbf8;stroke-miterlimit:10;stroke-width:1.42px;}.k{stroke:#1d1d1b;stroke-width:0.99px;}</style></defs><title>DPE_</title><path class="a" d="M25.31,83.63H43.24a5.27,5.27,0,0,0,5.28-5.28h0a5.27,5.27,0,0,0-5.28-5.27H25.31Z"/><path class="b" d="M32.57,81.5,32.12,80H30l-.45,1.5H28.19l2.07-6.29H32L34,81.5Zm-1.48-5H31l-.69,2.38h1.44Z"/><path class="c" d="M25.31,107.71h34.4A5.28,5.28,0,0,0,65,102.43h0a5.29,5.29,0,0,0-5.28-5.28H25.31Z"/><path class="b" d="M28.61,102.48c0-2.13,1.09-3.3,2.79-3.3a2.33,2.33,0,0,1,2.35,1.48l-1.18.61a1.12,1.12,0,0,0-1.17-.87c-.81,0-1.34.54-1.34,1.53v1c0,1,.53,1.53,1.34,1.53a1.3,1.3,0,0,0,1.25-.94l1.11.65a2.45,2.45,0,0,1-2.36,1.5C29.7,105.68,28.61,104.6,28.61,102.48Z"/><path class="d" d="M25.81,165.22V145.8H90.43a9.71,9.71,0,0,1,0,19.42Z"/><path class="e" d="M90.43,146.3a9.21,9.21,0,0,1,0,18.42H26.3V146.3H90.43m0-1H25.31v20.41H90.43a10.21,10.21,0,1,0,0-20.41Z"/><path class="f" d="M25.31,119.75H68.08a5.28,5.28,0,0,0,5.28-5.28h0a5.27,5.27,0,0,0-5.28-5.28H25.31Z"/><path class="b" d="M28.65,111.33H31c1.66,0,2.76,1,2.76,3.14s-1.1,3.14-2.76,3.14H28.65ZM31,116.4c.81,0,1.31-.45,1.31-1.44v-1c0-1-.5-1.44-1.31-1.44H30v3.86Z"/><path class="g" d="M25.31,131.79h51a5.28,5.28,0,0,0,5.27-5.28h0a5.27,5.27,0,0,0-5.27-5.28h-51Z"/><path class="b" d="M29.05,129.65v-6.28h4.28v1.21H30.42v1.29h2.5v1.2h-2.5v1.36h2.91v1.22Z"/><path class="h" d="M25.31,143.82H84.66a5.28,5.28,0,0,0,5.28-5.27h0a5.28,5.28,0,0,0-5.28-5.28H25.31Z"/><path class="b" d="M29.15,141.69V135.4h4.17v1.22h-2.8v1.29h2.39v1.2H30.52v2.58Z"/><path class="i" d="M25.31,95.67h26.3a5.27,5.27,0,0,0,5.28-5.28h0a5.28,5.28,0,0,0-5.28-5.28H25.31Z"/><path class="b" d="M28.54,87.25h3.05a1.52,1.52,0,0,1,1.66,1.61c0,1-.53,1.33-1.17,1.35v.06a1.38,1.38,0,0,1,1.41,1.47,1.69,1.69,0,0,1-1.62,1.79H28.54Zm1.37,2.58h1.36a.53.53,0,0,0,.57-.58V89a.53.53,0,0,0-.57-.58H29.91Zm0,2.55h1.57a.53.53,0,0,0,.59-.57v-.3a.54.54,0,0,0-.59-.57H29.91Z"/><path class="b" d="M34.2,162.51c-3.43,0-5.64-2.73-5.64-6.94s2.37-7.06,6.18-7.06a5.5,5.5,0,0,1,5.29,3.2.49.49,0,0,1-.2.65l-2.23,1.28a.5.5,0,0,1-.24.06.47.47,0,0,1-.17,0,.49.49,0,0,1-.3-.28,2.1,2.1,0,0,0-2.15-1.45c-1.52,0-2.29.86-2.29,2.56v2c0,1.7.77,2.56,2.29,2.56,1,0,2-.36,2-1.37v-.14H34.87a.5.5,0,0,1-.5-.49v-2.29a.5.5,0,0,1,.5-.49h5a.49.49,0,0,1,.5.49v7a.49.49,0,0,1-.5.49h-2.3a.49.49,0,0,1-.5-.49v-.24A4.13,4.13,0,0,1,34.2,162.51Z"/><path class="e" d="M34.74,149a5,5,0,0,1,4.85,2.92l-2.23,1.28a2.61,2.61,0,0,0-2.62-1.77c-1.69,0-2.79,1-2.79,3.06v2c0,2.09,1.1,3.06,2.79,3.06,1.37,0,2.47-.65,2.47-1.87v-.63H34.87v-2.29h5v7h-2.3v-2h-.09c-.18,1.26-1.34,2.21-3.23,2.21-2.88,0-5.15-2.23-5.15-6.44S31.34,149,34.74,149m0-1c-4.12,0-6.68,2.89-6.68,7.55,0,3.7,1.9,7.43,6.14,7.43a5.05,5.05,0,0,0,2.52-.61,1,1,0,0,0,.8.4h2.3a1,1,0,0,0,1-1v-7a1,1,0,0,0-1-1h-1.5l1.76-1a1,1,0,0,0,.4-1.3A6.05,6.05,0,0,0,34.74,148Zm0,10.57c-.83,0-1.79-.24-1.79-2.07v-2c0-1.83,1-2.07,1.79-2.07a1.61,1.61,0,0,1,1.69,1.14,1,1,0,0,0,.13.23H34.87a1,1,0,0,0-1,1v2.29a1,1,0,0,0,1,1h1.25c-.29.49-1.17.52-1.38.52Z"/><rect class="j" x="14.72" y="24.14" width="156.02" height="170" rx="5.67"/><line class="k" x1="102.55" y1="155.51" x2="108.66" y2="155.51"/></svg>