<svg xmlns="http://www.w3.org/2000/svg" width="8mm" height="8mm" viewBox="0 0 22.68 22.68"><defs><style>.a{isolation:isolate;}.b{mix-blend-mode:multiply;}.c{fill:#1d1d1b;}.d{fill:none;stroke:#f3e600;stroke-miterlimit:10;}</style></defs><title>DPE_</title><g class="a"><g class="b"><path class="c" d="M5.7,8.57h7.85A1.35,1.35,0,0,1,14.9,9.92v1.62a.27.27,0,0,0,.27.27H16.8a.27.27,0,0,0,.26-.27v-3A2.17,2.17,0,0,0,14.9,6.4H5.7Zm11.1,4.32H15.17a1.34,1.34,0,0,1-1.35-1.35V9.92a.27.27,0,0,0-.27-.27H5.16a.54.54,0,0,1-.54-.54V5.86a.54.54,0,0,1,.54-.54H14.9a3.26,3.26,0,0,1,3.25,3.25v3a1.35,1.35,0,0,1-1.35,1.35"/><path class="c" d="M11.11,6.4a.54.54,0,0,1-.54-.54V3.16a.54.54,0,1,1,1.08,0v2.7a.54.54,0,0,1-.54.54"/><path class="c" d="M13.82,3.7H8.41a.54.54,0,0,1,0-1.08h5.41a.54.54,0,0,1,0,1.08"/><path class="c" d="M15.56,17.1A5.87,5.87,0,0,0,14.46,19a1.1,1.1,0,0,0,2.2,0,6,6,0,0,0-1.1-1.94m0,4h0A2.07,2.07,0,0,1,13.5,19c0-.83,1.18-2.4,1.69-3a.49.49,0,0,1,.37-.18h0a.49.49,0,0,1,.38.18c.4.5,1.69,2.18,1.69,3a2.08,2.08,0,0,1-2.07,2.06"/></g><rect class="d" x="-3264.38" y="-287.17" width="4692.54" height="1133.5"/></g></svg>