<svg xmlns="http://www.w3.org/2000/svg" width="8mm" height="8mm" viewBox="0 0 22.68 22.68"><defs><style>.a{fill:none;stroke:#f3e600;stroke-miterlimit:10;}.b{fill:#1d1d1b;}</style></defs><title>DPE_</title><rect class="a" x="-3423.48" y="-404.73" width="4692.54" height="1133.5"/><path class="b" d="M16.26,15.84a6.8,6.8,0,0,0,0-8.93l1.56-1.56a.5.5,0,0,0,0-.71.48.48,0,0,0-.7,0L15.55,6.2a6.8,6.8,0,0,0-8.93,0L5.05,4.64a.48.48,0,0,0-.7,0,.5.5,0,0,0,0,.71L5.91,6.91a6.8,6.8,0,0,0,0,8.93L4.35,17.41a.5.5,0,0,0,.35.85.52.52,0,0,0,.35-.14l1.57-1.57a6.8,6.8,0,0,0,8.93,0l1.57,1.57a.5.5,0,0,0,.7-.71Zm-11-4.46a5.85,5.85,0,1,1,5.84,5.84A5.85,5.85,0,0,1,5.24,11.38Z"/></svg>