<svg xmlns="http://www.w3.org/2000/svg" width="8mm" height="8mm" viewBox="0 0 22.68 22.68"><defs><style>.a{fill:none;stroke:#f3e600;stroke-miterlimit:10;}.b{fill:#1d1d1b;}</style></defs><title>DPE_</title><rect class="a" x="-3313.31" y="-404.73" width="4692.54" height="1133.5"/><path class="b" d="M20.24,19.6,19,15.17l0,0-.4-1.48a1.44,1.44,0,0,0-1.45-.89H5.65a1.44,1.44,0,0,0-1.44.89L2.6,19.58a1.08,1.08,0,0,0,.18,1,1.42,1.42,0,0,0,1.14.51h15a1.4,1.4,0,0,0,1.12-.5A1.09,1.09,0,0,0,20.24,19.6Zm-8.33-5.85h2.36l.15,1H11.91Zm0,2h2.64l.19,1.4H11.91ZM6.7,20.06H3.92A.47.47,0,0,1,3.57,20a.12.12,0,0,1,0-.11L4,18.18H7Zm.39-2.88H4.28l.38-1.4H7.28Zm.33-2.4H4.93l.23-.86a.67.67,0,0,1,.49-.17H7.56Zm3.5,5.28H7.7L8,18.18h3Zm0-2.88H8.09l.19-1.4h2.64Zm0-2.4H8.42l.14-1h2.36Zm1,5.28V18.18h3l.25,1.88Zm3.37-6.31h1.89a.74.74,0,0,1,.49.16l.24.87H15.42Zm.27,2h2.61l.38,1.4h-2.8Zm3.39,4.28h-2.8l-.26-1.88H18.8L19.27,20A.4.4,0,0,1,18.94,20.06Z"/><circle class="b" cx="11.42" cy="6.58" r="3.35"/><path class="b" d="M14.64,3.84A.5.5,0,0,0,15,3.69l.52-.51a.51.51,0,0,0,0-.71.5.5,0,0,0-.7,0L14.29,3a.48.48,0,0,0,0,.7A.47.47,0,0,0,14.64,3.84Z"/><path class="b" d="M15.36,6.56a.5.5,0,0,0,.49.5h.74a.5.5,0,0,0,0-1h-.74A.5.5,0,0,0,15.36,6.56Z"/><path class="b" d="M14.29,9.43a.48.48,0,0,0,0,.7l.52.52a.5.5,0,0,0,.35.14.54.54,0,0,0,.35-.14.5.5,0,0,0,0-.7L15,9.43A.48.48,0,0,0,14.29,9.43Z"/><path class="b" d="M7.85,3.69a.48.48,0,0,0,.7,0,.5.5,0,0,0,0-.7L8,2.47a.49.49,0,0,0-.7.7Z"/><path class="b" d="M6.25,7.06H7a.5.5,0,0,0,0-1H6.25a.5.5,0,0,0,0,1Z"/><path class="b" d="M7.85,9.43,7.33,10a.5.5,0,0,0,0,.7.51.51,0,0,0,.7,0l.52-.52a.5.5,0,0,0,0-.7A.48.48,0,0,0,7.85,9.43Z"/><path class="b" d="M10.92,11v.74a.5.5,0,0,0,.5.5.51.51,0,0,0,.5-.5V11a.5.5,0,0,0-.5-.49A.49.49,0,0,0,10.92,11Z"/><path class="b" d="M11.42,2.62a.5.5,0,0,0,.5-.49V1.39a.5.5,0,0,0-.5-.49.49.49,0,0,0-.5.49v.74A.49.49,0,0,0,11.42,2.62Z"/></svg>