<svg xmlns="http://www.w3.org/2000/svg" width="50.68mm" height="51.73mm" viewBox="0 0 143.67 146.64"><defs><style>.a,.i{fill:none;}.a{stroke:#f3e600;stroke-miterlimit:10;}.b{fill:#a4dbf8;}.c{fill:#8cb4d3;}.d{fill:#7792b1;}.e{fill:#606f8f;}.f{fill:#4d5271;}.g{fill:#393551;}.h{fill:#281b35;}.i{stroke:#1d1d1b;stroke-miterlimit:3;}.j{fill:#fff;}</style></defs><title>DPE_</title><rect class="a" x="-4191.18" y="-329.61" width="4692.54" height="1133.5"/><path class="b" d="M49.55,13.42a8.78,8.78,0,0,0-8.79-8.79H5V22.22H40.76A8.79,8.79,0,0,0,49.55,13.42Z"/><path class="c" d="M55.75,24.47H5V42.06H55.74a8.8,8.8,0,1,0,0-17.59Z"/><path class="d" d="M70.47,44.22a8.8,8.8,0,0,0-1.16.08H5V61.89H70.46v-.08h0a8.8,8.8,0,0,0,0-17.59Z"/><path class="e" d="M83.3,64.36H5V82H83.3a8.8,8.8,0,0,0,0-17.59Z"/><path class="f" d="M108.57,93.08a8.8,8.8,0,0,0-8.8-8.79H5v17.59H99.77A8.8,8.8,0,0,0,108.57,93.08Z"/><path class="g" d="M123.61,112.94a8.8,8.8,0,0,0-8.8-8.8H5v17.59H114.81A8.8,8.8,0,0,0,123.61,112.94Z"/><path class="h" d="M139.2,132.77a8.79,8.79,0,0,0-8.45-8.78v0H5v17.59H130.75A8.79,8.79,0,0,0,139.2,132.77Z"/><path class="i" d="M15.8,14.85H13.4l1.16-4h.07Zm3.68,4.43L16.07,8.81H13.25L9.8,19.28h2.31l.75-2.49h3.5l.75,2.49Z"/><path class="j" d="M17.11,19.28l-.75-2.49h-3.5l-.75,2.49H9.8L13.25,8.81h2.82l3.41,10.47Zm-2.48-8.4h-.07l-1.16,4h2.4Z"/><path class="i" d="M13.07,30.39h2.27a.88.88,0,0,1,1,1v.45a.88.88,0,0,1-1,1H13.07Zm0,4.23H15.7a.88.88,0,0,1,1,1v.5a.88.88,0,0,1-1,1H13.07Zm-2.28,4.32h5.55A2.82,2.82,0,0,0,19,36a2.31,2.31,0,0,0-2.35-2.45v-.09a2,2,0,0,0,1.95-2.25,2.54,2.54,0,0,0-2.76-2.69H10.79Z"/><path class="j" d="M10.79,28.47h5.09a2.54,2.54,0,0,1,2.76,2.68c0,1.61-.89,2.21-1.95,2.25v.1A2.3,2.3,0,0,1,19,36a2.81,2.81,0,0,1-2.7,3H10.79Zm2.28,4.29h2.27a.88.88,0,0,0,1-1v-.45a.88.88,0,0,0-1-1H13.07Zm0,4.26H15.7a.88.88,0,0,0,1-1v-.5a.88.88,0,0,0-1-1H13.07Z"/><path class="i" d="M15.14,58.78a4.08,4.08,0,0,0,3.94-2.5L17.23,55.2a2.16,2.16,0,0,1-2.09,1.56c-1.33,0-2.22-.9-2.22-2.55V52.53c0-1.65.89-2.55,2.22-2.55a1.85,1.85,0,0,1,1.95,1.45l2-1A3.87,3.87,0,0,0,15.14,48c-2.82,0-4.63,1.95-4.63,5.49S12.32,58.78,15.14,58.78Z"/><path class="j" d="M10.51,53.44c0-3.54,1.81-5.49,4.63-5.49a3.89,3.89,0,0,1,3.92,2.46l-2,1A1.85,1.85,0,0,0,15.14,50c-1.33,0-2.22.9-2.22,2.55v1.68c0,1.65.89,2.55,2.22,2.55a2.16,2.16,0,0,0,2.09-1.56l1.86,1.08a4.09,4.09,0,0,1-3.95,2.5C12.32,58.78,10.51,57,10.51,53.44Z"/><path class="i" d="M12.85,76.73V70.31h1.66c1.35,0,2.19.74,2.19,2.4v1.62c0,1.67-.84,2.4-2.19,2.4Zm-2.28,2h3.94c2.78,0,4.61-1.76,4.61-5.24s-1.83-5.23-4.61-5.23H10.57Z"/><path class="j" d="M10.57,68.28h3.94c2.78,0,4.61,1.76,4.61,5.24s-1.83,5.23-4.61,5.23H10.57Zm3.94,8.45c1.35,0,2.19-.74,2.19-2.4V72.71c0-1.67-.84-2.4-2.19-2.4H12.85v6.42Z"/><polygon class="i" points="18.36 98.69 18.36 96.66 13.52 96.66 13.52 94.4 17.68 94.4 17.68 92.39 13.52 92.39 13.52 90.25 18.36 90.25 18.36 88.22 11.24 88.22 11.24 98.69 18.36 98.69"/><path class="j" d="M11.24,98.69V88.22h7.13v2H13.52v2.15h4.16v2H13.52v2.26h4.85v2Z"/><polygon class="i" points="13.69 118.37 13.69 114.08 17.66 114.08 17.66 112.07 13.69 112.07 13.69 109.92 18.35 109.92 18.35 107.9 11.41 107.9 11.41 118.37 13.69 118.37"/><path class="j" d="M11.41,118.37V107.9h6.94v2H13.69v2.15h4v2h-4v4.29Z"/><path class="i" d="M17.05,138.45H19v-5.84H14.84v1.91h1.95V135c0,1-.91,1.56-2,1.56-1.41,0-2.33-.81-2.33-2.55v-1.68c0-1.74.92-2.55,2.33-2.55a2.16,2.16,0,0,1,2.17,1.47l1.86-1.06a4.17,4.17,0,0,0-4-2.43c-2.84,0-4.74,1.93-4.74,5.46s1.89,5.37,4.29,5.37c1.57,0,2.53-.8,2.68-1.85h.08Z"/><path class="j" d="M17.05,136.78H17c-.15,1.05-1.11,1.84-2.68,1.84-2.4,0-4.29-1.85-4.29-5.36s1.9-5.46,4.74-5.46a4.17,4.17,0,0,1,4,2.43l-1.86,1.06a2.16,2.16,0,0,0-2.17-1.47c-1.41,0-2.33.81-2.33,2.55v1.68c0,1.74.92,2.55,2.33,2.55,1.14,0,2-.54,2-1.56v-.52H14.84v-1.91H19v5.84H17.05Z"/></svg>