<svg xmlns="http://www.w3.org/2000/svg" width="14mm" height="18.43mm" viewBox="0 0 39.69 52.24"><defs><style>.a{fill:#1d1d1b;}.b{fill:#e30613;}.c{fill:none;stroke:#f3e600;stroke-miterlimit:10;}</style></defs><title>DPE_</title><path class="a" d="M24.92,45.14a6.87,6.87,0,1,1-9.18-10.2.9.9,0,0,0,.33-.69V9.54a3.81,3.81,0,0,1,7.62,0V33.86a.9.9,0,0,0,.38.74A6.89,6.89,0,0,1,27,40.22a6.82,6.82,0,0,1-2.08,4.92m.57-11.73V9.54a5.61,5.61,0,0,0-11.22,0v24.3A8.73,8.73,0,0,0,11.47,40a8.76,8.76,0,0,0,8.42,8.93h.24a8.67,8.67,0,0,0,5.36-15.47"/><path class="b" d="M23,36.07l-1.15-.81V26.41a.9.9,0,0,0-.9-.9H18.76a.9.9,0,0,0-.9.9v9.1l-1,.81a5.08,5.08,0,0,0-1.83,3.74A5.16,5.16,0,0,0,20,45.28h.13A5.07,5.07,0,0,0,23,36.07"/><path class="a" d="M18.76,18.2H21a.9.9,0,0,0,0-1.79H18.76a.9.9,0,1,0,0,1.79"/><path class="a" d="M18.76,22.66H21a.9.9,0,0,0,0-1.8H18.76a.9.9,0,1,0,0,1.8"/><path class="a" d="M18.76,13.75H21A.9.9,0,0,0,21,12H18.76a.9.9,0,1,0,0,1.8"/><rect class="c" x="-2688.17" y="-401.28" width="4692.54" height="1133.5"/></svg>