<svg xmlns="http://www.w3.org/2000/svg" width="23mm" height="23mm" viewBox="0 0 65.2 65.2"><defs><style>.a{fill:#fff;}.b,.d,.e{fill:none;}.b,.d{stroke:#2caf85;}.b{stroke-linecap:round;stroke-linejoin:round;stroke-width:1.42px;}.c{fill:#2caf85;}.d,.e{stroke-miterlimit:10;}.d{stroke-width:2px;}.e{stroke:#f3e600;}</style></defs><title>DPE_</title><polygon class="a" points="29.03 11.44 31.03 31.36 34.22 31.36 36.21 11.44 29.03 11.44"/><polygon class="b" points="31.03 31.36 34.22 31.36 36.21 11.44 29.03 11.44 31.03 31.36"/><polygon class="a" points="33.32 35.68 48.92 48.2 52.93 42.04 35.11 32.95 33.32 35.68"/><polygon class="b" points="35.11 32.95 33.33 35.69 48.92 48.2 52.93 42.04 35.11 32.95"/><polygon class="a" points="32.31 35.52 30.41 32.86 12.99 42.72 17.27 48.69 32.31 35.52"/><polygon class="b" points="32.31 35.52 30.41 32.86 12.99 42.72 17.27 48.69 32.31 35.52"/><path class="a" d="M37.9,33.25a5.23,5.23,0,1,0-5.23,5.23,5.23,5.23,0,0,0,5.23-5.23"/><circle class="b" cx="32.67" cy="33.25" r="5.23"/><path class="a" d="M14.21,59.54A11.52,11.52,0,1,0,2.69,48,11.51,11.51,0,0,0,14.21,59.54"/><path class="a" d="M14.21,36.51A11.52,11.52,0,1,1,2.69,48,11.51,11.51,0,0,1,14.21,36.51m0-1.42A12.93,12.93,0,1,0,27.14,48,13,13,0,0,0,14.21,35.09Z"/><path class="c" d="M14.21,38.06a10,10,0,1,1-10,10,10,10,0,0,1,10-10m0-1.42A11.38,11.38,0,1,0,25.59,48,11.39,11.39,0,0,0,14.21,36.64Z"/><polyline class="a" points="8.71 48.1 12.56 52.02 20.19 44.24"/><polyline class="d" points="8.71 48.1 12.56 52.02 20.19 44.24"/><rect class="e" x="-1809.61" y="-460.92" width="4692.54" height="1133.5"/></svg>