<svg xmlns="http://www.w3.org/2000/svg" width="5mm" height="5mm" viewBox="0 0 14.17 14.17"><defs><style>.a,.c{fill:none;}.a{stroke:#f3e600;stroke-miterlimit:10;}.b{fill:#36a9e1;}.c{stroke:#36a9e1;stroke-linecap:round;stroke-linejoin:round;stroke-width:0.5px;}</style></defs><title>DPE_</title><rect class="a" x="-4442.61" y="-215.98" width="4692.54" height="1133.5"/><path class="b" d="M11,12a.7.7,0,0,0,.46-.19.67.67,0,0,0,0-.93L8.65,8a.66.66,0,0,0-.93,0,.65.65,0,0,0,0,.93l2.84,2.85A.7.7,0,0,0,11,12Z"/><polygon class="b" points="6.87 10.84 5.52 5.8 10.57 7.15 6.87 10.84"/><line class="c" x1="5.68" y1="3.76" x2="5.68" y2="2.3"/><line class="c" x1="4.19" y1="4.25" x2="3.16" y2="3.22"/><line class="c" x1="3.48" y1="5.64" x2="2.02" y2="5.64"/><line class="c" x1="3.97" y1="7.13" x2="2.94" y2="8.16"/><line class="c" x1="7.07" y1="4.46" x2="8.1" y2="3.43"/></svg>