<svg xmlns="http://www.w3.org/2000/svg" width="32.3mm" height="16.25mm" viewBox="0 0 91.55 46.06"><defs><style>.a{fill:#2caf85;}.b{fill:none;stroke:#f3e600;stroke-miterlimit:10;}</style></defs><title>DPE_</title><path class="a" d="M6.74,7.5H18.25c8,0,12.83,4.65,12.83,16.4S26.24,40.3,18.25,40.3H6.74ZM18.25,34.43c3.72,0,5.69-2.12,5.69-6.58V20c0-4.46-2-6.58-5.69-6.58H13.46V34.43Z"/><path class="a" d="M36.35,40.3V7.5H50.54c5.88,0,9,4.09,9,10.34s-3.15,10.34-9,10.34H43.07V40.3Zm6.72-18H49.7c1.78,0,2.91-.85,2.91-3.05V16.43c0-2.21-1.13-3.06-2.91-3.06H43.07Z"/><path class="a" d="M64.32,40.3V7.5h20.3v5.87H71V20.8H82.55v5.82H71v7.81H84.62V40.3Z"/><rect class="b" x="-359.09" y="-184.33" width="4692.54" height="1133.5"/></svg>