<svg xmlns="http://www.w3.org/2000/svg" width="4mm" height="4mm" viewBox="0 0 11.34 11.34"><defs><style>.a{isolation:isolate;}.b{mix-blend-mode:multiply;}.c{fill:#1d1d1b;}.d{fill:none;stroke:#f3e600;stroke-miterlimit:10;}</style></defs><title>DPE_</title><g class="a"><g class="b"><path class="c" d="M5.46,2.17a.21.21,0,0,0-.18.16A4,4,0,0,1,4,4.76,2.83,2.83,0,0,0,3.05,7a2,2,0,0,0,.62,1.42A3.63,3.63,0,0,0,5,9.16.19.19,0,0,0,5.27,9a.17.17,0,0,0,0-.18,1.93,1.93,0,0,1-.57-1.26,1.55,1.55,0,0,1,.21-.65l.36.27.13.08.06,0a.18.18,0,0,0,.16,0A1.33,1.33,0,0,0,6,6.83a2,2,0,0,0,.22-.91,2.33,2.33,0,0,1,.65,1.49,2,2,0,0,1-.71,1.42.19.19,0,0,0,.16.33,2.32,2.32,0,0,0,2-2.22,4.45,4.45,0,0,0-.55-2.26A9.72,9.72,0,0,0,5.61,2.22a.27.27,0,0,0-.15-.05"/></g><rect class="d" x="-2701.15" y="-287.42" width="4692.54" height="1133.5"/></g></svg>