<svg xmlns="http://www.w3.org/2000/svg" width="8mm" height="8mm" viewBox="0 0 22.68 22.68"><defs><style>.a{isolation:isolate;}.b{mix-blend-mode:multiply;}.c{fill:#dadada;}.d,.f,.g{fill:none;}.d{stroke:#dadada;}.d,.g{stroke-miterlimit:10;}.e{fill:#1d1d1b;}.f{stroke:#1d1d1b;}.g{stroke:#f3e600;}</style></defs><title>DPE_</title><g class="a"><g class="b"><path class="c" d="M17.7,18.33H3.81V9.8L6.6,7l.07-.07,4.09-4.1,6.94,7ZM10.76,1.12l-5,5L2.6,9.3V19.54H18.91V9.3Z"/><path class="d" d="M17.7,18.33H3.81V9.8L6.6,7l.07-.07,4.09-4.1,6.94,7ZM10.76,1.12l-5,5L2.6,9.3V19.54H18.91V9.3Z"/></g><rect class="e" x="2.6" y="9.79" width="1.19" height="7.55"/><rect class="f" x="2.6" y="9.79" width="1.19" height="7.55"/><rect class="e" x="17.71" y="9.79" width="1.19" height="7.55"/><rect class="f" x="17.71" y="9.79" width="1.19" height="7.55"/><rect class="g" x="-3207" y="-230.79" width="4692.54" height="1133.5"/></g></svg>