<svg xmlns="http://www.w3.org/2000/svg" width="14mm" height="14mm" viewBox="0 0 39.69 39.69"><defs><style>.a,.c{fill:none;stroke-miterlimit:10;}.a{stroke:#9d9d9c;stroke-linecap:round;}.b{fill:#fff;}.c{stroke:#f3e600;}</style></defs><title>DPE_</title><line class="a" x1="20.95" y1="20.05" x2="9.17" y2="20.05"/><line class="a" x1="9.17" y1="28.47" x2="20.95" y2="28.47"/><path class="b" d="M13.15,24.26a4.21,4.21,0,1,1-4.21-4.21,4.22,4.22,0,0,1,4.21,4.21"/><path class="a" d="M13.15,24.26a4.21,4.21,0,1,1-4.21-4.21A4.22,4.22,0,0,1,13.15,24.26Z"/><path class="a" d="M10.36,24.26a1.42,1.42,0,1,1-1.42-1.42A1.42,1.42,0,0,1,10.36,24.26Zm1.39,0a2.81,2.81,0,1,1-2.81-2.81A2.81,2.81,0,0,1,11.75,24.26Z"/><path class="a" d="M19.66,28.47H31.44a4.21,4.21,0,1,0,0-8.42H19.66"/><path class="b" d="M23.65,24.26a4.22,4.22,0,1,1-4.22-4.21,4.22,4.22,0,0,1,4.22,4.21"/><path class="a" d="M23.65,24.26a4.22,4.22,0,1,1-4.22-4.21A4.22,4.22,0,0,1,23.65,24.26Z"/><path class="a" d="M20.86,24.26a1.43,1.43,0,1,1-1.42-1.43A1.42,1.42,0,0,1,20.86,24.26Zm1.41,0a2.84,2.84,0,1,1-2.83-2.83A2.83,2.83,0,0,1,22.27,24.26Z"/><path class="a" d="M14.33,19.64H26.11a4.21,4.21,0,1,0,0-8.42H14.33"/><path class="b" d="M18.31,15.43a4.21,4.21,0,1,1-4.21-4.21,4.21,4.21,0,0,1,4.21,4.21"/><path class="a" d="M18.31,15.43a4.21,4.21,0,1,1-4.21-4.21A4.21,4.21,0,0,1,18.31,15.43Z"/><path class="a" d="M15.48,15.43a1.38,1.38,0,1,1-1.38-1.38A1.38,1.38,0,0,1,15.48,15.43Zm1.36,0a2.74,2.74,0,1,1-2.74-2.74A2.74,2.74,0,0,1,16.84,15.43Z"/><rect class="c" x="-2001.93" y="-379.28" width="4692.54" height="1133.5"/></svg>