<svg xmlns="http://www.w3.org/2000/svg" width="27mm" height="27mm" viewBox="0 0 76.54 76.54"><defs><style>.a,.d,.e,.f{fill:none;}.a,.e{stroke:#2caf85;}.a{stroke-linecap:round;stroke-linejoin:round;stroke-width:1.42px;}.b{fill:#2caf85;}.c{fill:#fff;}.d{stroke:#fff;stroke-width:3px;}.d,.e,.f{stroke-miterlimit:10;}.e{stroke-width:2px;}.f{stroke:#f3e600;}</style></defs><title>DPE_</title><path class="a" d="M20.7,41.65H56.5c1.42,0,2.82.71,3.12,1.61l6.52,19.25c.52,1.56-.6,2.86-2.53,2.86H13.7c-2,0-3.13-1.34-2.59-2.93l6.49-19.2C17.91,42.35,19.29,41.65,20.7,41.65Zm9-31L26.37,7.29m-.22,12.05H21.37M29.74,28,26.37,31.4m12.06.23V36.4M47.12,28l3.37,3.37m.23-12.06h4.77m-8.37-8.68,3.37-3.37M38.43,7.06V2.29"/><path class="a" d="M62,50.69c-1.36,0-2.23.64-1.93,1.44l0,0,2.69,7.3c.32.89-.52,1.62-1.88,1.62s-2.69-.73-2.94-1.62l-4-13.62c-.16-.54-1.13-1-2.16-1s-1.78.43-1.66,1l1.39,6.32-.06-.3,1.67,7.6c.2.89-.74,1.62-2.11,1.62s-2.58-.73-2.71-1.62l-2-13.62c-.08-.54-1-1-2-1s-1.84.43-1.8,1l1,13.62c.07.89-1,1.62-2.37,1.62s-2.47-.73-2.47-1.62V45.77c0-.54-.84-1-1.87-1s-1.91.43-2,1l-1,13.62c-.06.89-1.22,1.62-2.59,1.62s-2.36-.73-2.23-1.62l2-13.62c.08-.54-.69-1-1.73-1s-2,.43-2.09,1l-3,13.62C24,60.28,22.69,61,21.32,61s-2.25-.73-2-1.62l4-13.62c.16-.54-.55-1-1.59-1s-2,.43-2.23,1l-2.32,6.32v0c-.3.82-1.71,1.5-3.14,1.5"/><path class="b" d="M47.68,19.38a9.25,9.25,0,1,1-9.25-9.24,9.25,9.25,0,0,1,9.25,9.24"/><path class="a" d="M47.68,19.38a9.25,9.25,0,1,1-9.25-9.24A9.25,9.25,0,0,1,47.68,19.38Z"/><path class="c" d="M14.21,74A11.51,11.51,0,1,0,2.69,62.48,11.51,11.51,0,0,0,14.21,74"/><path class="d" d="M14.21,74A11.51,11.51,0,1,0,2.69,62.48,11.51,11.51,0,0,0,14.21,74Z"/><path class="c" d="M14.21,73.86A11.38,11.38,0,1,0,2.82,62.48,11.38,11.38,0,0,0,14.21,73.86"/><path class="b" d="M14.21,52.52a10,10,0,1,1-10,10,10,10,0,0,1,10-10m0-1.42A11.38,11.38,0,1,0,25.59,62.48,11.38,11.38,0,0,0,14.21,51.1Z"/><polyline class="c" points="8.71 62.55 12.56 66.48 20.19 58.69"/><polyline class="e" points="8.71 62.55 12.56 66.48 20.19 58.69"/><rect class="f" x="-1910.12" y="-181.73" width="4692.54" height="1133.5"/></svg>