<svg xmlns="http://www.w3.org/2000/svg" width="4mm" height="4mm" viewBox="0 0 11.34 11.34"><defs><style>.a{isolation:isolate;}.b{mix-blend-mode:multiply;}.c{fill:#1d1d1b;}.d{fill:none;stroke:#f3e600;stroke-miterlimit:10;}</style></defs><title>DPE_</title><g class="a"><g class="b"><path class="c" d="M8.43,7.4l-1.68.14L5.47,5.48l1.4,1.27,1-.23ZM6.32,2.48,6.38,3,5.32,3ZM4.8,5.16l.26-1.31.24,1.4ZM7.89,3.1l1,1.28-1.2-.2L6.9,3.55,6.7,2.48ZM9.31,4.49,8.18,2.94,6.49,2,5,2.78l-1.65.67L2,5.7l.49,1.15.06,1,1,.57,1.18.05,1.34.75,2.24-.67.54-1.09-.53-1Z"/></g><rect class="d" x="-2818.34" y="-287.42" width="4692.54" height="1133.5"/></g></svg>