<svg xmlns="http://www.w3.org/2000/svg" width="14mm" height="18.43mm" viewBox="0 0 39.69 52.24"><defs><style>.a{fill:#1d1d1b;}.b{fill:#36a9e1;}.c{fill:none;stroke:#f3e600;stroke-miterlimit:10;}</style></defs><title>DPE_</title><path class="a" d="M25.51,45.71a6.63,6.63,0,0,1-9.76-.24,7.32,7.32,0,0,1,.58-10.4,1,1,0,0,0,.32-.72V8.57a3.82,3.82,0,1,1,7.63,0V34a.93.93,0,0,0,.38.76,7.37,7.37,0,0,1,.85,11m.56-12.23V8.57a5.73,5.73,0,0,0-5.61-5.85,5.73,5.73,0,0,0-5.6,5.85V33.92a9.23,9.23,0,0,0-.41,12.83,8.41,8.41,0,0,0,6,2.86h.25a8.4,8.4,0,0,0,6-2.56,9.28,9.28,0,0,0-.69-13.57"/><path class="b" d="M23.62,36.25l-1.14-.84V21.32a.92.92,0,0,0-.9-.94H19.35a.92.92,0,0,0-.9.94V35.66l-1,.85a5.37,5.37,0,0,0-.42,7.67,4.92,4.92,0,0,0,3.53,1.68h.13a4.94,4.94,0,0,0,3.58-1.54,5.42,5.42,0,0,0-.68-8.07"/><path class="a" d="M19.35,17.61h2.23a.94.94,0,0,0,0-1.88H19.35a.94.94,0,0,0,0,1.88"/><path class="a" d="M19.35,13h2.23a.94.94,0,0,0,0-1.87H19.35a.94.94,0,0,0,0,1.87"/><rect class="c" x="-2785.08" y="-401.28" width="4692.54" height="1133.5"/></svg>