<svg xmlns="http://www.w3.org/2000/svg" width="90.34mm" height="31.74mm" viewBox="0 0 256.08 89.97"><defs><style>.a{fill:#fff;}.b{fill:none;stroke:#f3e600;stroke-miterlimit:10;}.c{fill:#ededed;}.d,.f{fill:#f49838;}.d{opacity:0.25;}.e{fill:#b3b3b3;}</style></defs><title>DPE_</title><rect class="a" width="256.08" height="89.97"/><rect class="b" x="-1326.76" y="-281.19" width="4692.54" height="1133.5"/><rect class="c" x="193.11" y="4.25" width="58.7" height="67.3"/><rect class="c" x="130.16" y="4.25" width="58.7" height="67.3"/><rect class="d" x="67.2" y="4.25" width="58.7" height="67.3"/><rect class="c" x="4.25" y="4.25" width="58.7" height="67.3"/><rect class="e" x="193.11" y="71.55" width="58.7" height="14.17"/><rect class="e" x="130.16" y="71.55" width="58.7" height="14.17"/><rect class="f" x="67.2" y="71.55" width="58.7" height="14.17"/><rect class="e" x="4.25" y="71.55" width="58.7" height="14.17"/><path class="f" d="M96.56,15.22,117,35.62V61.17H76.15V35.62L84,27.77,96.56,15.22m0-2-1,1L83,26.77l-7.85,7.85-.42.42V62.59h43.65V35l-.42-.42-20.4-20.4-1-1Z"/><path class="f" d="M114.64,58.85H78.47V36.59L96.56,18.5l18.08,18.09ZM79.89,57.43h33.33V37.17L96.56,20.5,79.89,37.17Z"/></svg>