<svg xmlns="http://www.w3.org/2000/svg" width="66.74mm" height="91.25mm" viewBox="0 0 189.18 258.66"><defs><style>.a{fill:#8cb4d3;}.b{fill:#fff;}.c{fill:#7792b1;}.d{fill:#a4dbf8;}.e{fill:#1d1d1b;}.f{fill:#606f8f;}.g{fill:#4d5271;}.h{fill:#393551;}.i{fill:#281b35;}.j,.k{fill:none;}.j{stroke:#a5dbf8;stroke-miterlimit:10;stroke-width:1.42px;}.k{stroke:#1d1d1b;stroke-width:0.99px;}</style></defs><title>DPE_</title><path class="a" d="M25.34,105.52H58.46a5.27,5.27,0,0,0,5.27-5.27h0A5.27,5.27,0,0,0,58.46,95H25.34Z"/><path class="b" d="M28.58,97.1h3.05a1.52,1.52,0,0,1,1.65,1.61c0,1-.53,1.33-1.17,1.35v.06a1.39,1.39,0,0,1,1.42,1.48,1.69,1.69,0,0,1-1.62,1.79H28.58Zm1.36,2.58H31.3a.54.54,0,0,0,.58-.58v-.27a.53.53,0,0,0-.58-.57H29.94Zm0,2.55h1.58a.52.52,0,0,0,.58-.56v-.31a.53.53,0,0,0-.58-.57H29.94Z"/><path class="c" d="M25.34,117.56H66.76A5.28,5.28,0,0,0,72,112.28h0A5.28,5.28,0,0,0,66.76,107H25.34Z"/><path class="b" d="M28.65,112.33c0-2.13,1.09-3.3,2.78-3.3a2.33,2.33,0,0,1,2.35,1.48l-1.18.61a1.11,1.11,0,0,0-1.17-.87c-.8,0-1.33.54-1.33,1.53v1c0,1,.53,1.53,1.33,1.53a1.29,1.29,0,0,0,1.25-.94l1.12.65a2.47,2.47,0,0,1-2.37,1.5C29.74,115.53,28.65,114.45,28.65,112.33Z"/><path class="d" d="M25.84,93V73.57h15A9.71,9.71,0,0,1,40.8,93Z"/><path class="e" d="M40.8,74.07a9.21,9.21,0,0,1,0,18.42H26.34V74.07H40.8m0-1H25.34v20.4H40.8A10.19,10.19,0,0,0,51,83.28h0a10.2,10.2,0,0,0-10.2-10.2Z"/><path class="f" d="M25.34,129.6H75a5.27,5.27,0,0,0,5.27-5.28h0A5.28,5.28,0,0,0,75,119H25.34Z"/><path class="b" d="M28.69,121.18h2.36c1.67,0,2.77,1,2.77,3.14s-1.1,3.14-2.77,3.14H28.69Zm2.36,5.07c.81,0,1.32-.44,1.32-1.44v-1c0-1-.51-1.44-1.32-1.44h-1v3.85Z"/><path class="g" d="M25.34,141.64H83.23a5.27,5.27,0,0,0,5.28-5.28h0a5.28,5.28,0,0,0-5.28-5.28H25.34Z"/><path class="b" d="M29.09,139.5v-6.28h4.28v1.21H30.46v1.29H33v1.21H30.46v1.36h2.91v1.21Z"/><path class="h" d="M25.34,153.68H91.45a5.28,5.28,0,0,0,5.28-5.28h0a5.27,5.27,0,0,0-5.28-5.28H25.34Z"/><path class="b" d="M29.19,151.54v-6.28h4.17v1.21h-2.8v1.29h2.38V149H30.56v2.57Z"/><path class="i" d="M25.34,165.72H99.76a5.28,5.28,0,0,0,5.28-5.28h0a5.27,5.27,0,0,0-5.28-5.28H25.34Z"/><path class="b" d="M32.57,162.58h0c-.09.63-.67,1.11-1.61,1.11-1.44,0-2.58-1.12-2.58-3.23s1.15-3.27,2.85-3.27a2.51,2.51,0,0,1,2.42,1.46l-1.12.63a1.3,1.3,0,0,0-1.3-.88c-.85,0-1.4.49-1.4,1.53v1c0,1.05.55,1.53,1.4,1.53.68,0,1.23-.32,1.23-.93v-.32H31.25v-1.14h2.48v3.5H32.57Z"/><path class="b" d="M38.43,90.17a.5.5,0,0,1-.48-.35l-.79-2.64H33.7l-.8,2.64a.48.48,0,0,1-.47.35H29.66a.48.48,0,0,1-.47-.65L33.33,77a.49.49,0,0,1,.47-.34h3.38a.49.49,0,0,1,.47.34l4.09,12.57a.49.49,0,0,1-.07.45.48.48,0,0,1-.4.2Zm-2.23-6.3-.79-2.66-.77,2.66Z"/><path class="e" d="M37.18,77.11l4.09,12.56H38.43l-.9-3h-4.2l-.9,3H29.66L33.8,77.11h3.38M34,84.36h2.88l-1.41-4.77h-.09L34,84.36m3.2-8.24H33.8a1,1,0,0,0-.94.68L28.71,89.36a1.06,1.06,0,0,0,.14.9,1,1,0,0,0,.81.41h2.77a1,1,0,0,0,1-.71l.69-2.28h2.72L37.48,90a1,1,0,0,0,1,.71h2.84a1,1,0,0,0,.8-.41,1,1,0,0,0,.14-.89L38.13,76.8a1,1,0,0,0-1-.68ZM35.3,83.37l.12-.4.11.4Z"/><rect class="j" x="14.72" y="24.14" width="156.02" height="170" rx="5.67"/><line class="k" x1="52.81" y1="83.39" x2="74.07" y2="83.39"/></svg>