<svg xmlns="http://www.w3.org/2000/svg" width="8mm" height="8mm" viewBox="0 0 22.68 22.68"><defs><style>.a{isolation:isolate;}.b{mix-blend-mode:multiply;}.c{fill:#1d1d1b;}.d{fill:none;stroke:#f3e600;stroke-miterlimit:10;}</style></defs><title>DPE_</title><g class="a"><g class="b"><path class="c" d="M13.2,9.92a2,2,0,0,0-1.72,1,1,1,0,0,1,.74,1h2.95a2,2,0,0,0-2-2"/><path class="c" d="M10.25,11.89H7.3a2,2,0,0,0,2,2,2,2,0,0,0,1.72-1,1,1,0,0,1-.74-.93"/><path class="c" d="M11.24,8a2,2,0,0,0-.94,3.68,1,1,0,0,1,.94-.73Z"/><path class="c" d="M11.24,11.4a.5.5,0,0,0-.5.49.53.53,0,0,0,.42.49h.05a.49.49,0,1,0,0-1"/><path class="c" d="M12.17,12.13a1,1,0,0,1-.93.74v3a2,2,0,0,0,2-2,2,2,0,0,0-1-1.72"/></g><g class="b"><path class="c" d="M18,19.89H4.36A3.66,3.66,0,0,1,.7,16.23V7.05A3.66,3.66,0,0,1,4.36,3.39H18A3.66,3.66,0,0,1,21.7,7.05v9.18A3.66,3.66,0,0,1,18,19.89ZM4.36,4.39A2.66,2.66,0,0,0,1.7,7.05v9.18a2.66,2.66,0,0,0,2.66,2.66H18a2.67,2.67,0,0,0,2.66-2.66V7.05A2.67,2.67,0,0,0,18,4.39Zm6.84,13a5.51,5.51,0,1,1,5.5-5.51A5.51,5.51,0,0,1,11.2,17.35Zm0-10a4.51,4.51,0,1,0,4.5,4.5A4.51,4.51,0,0,0,11.2,7.34ZM3.91,11.5a1.45,1.45,0,1,1,1.44-1.45A1.44,1.44,0,0,1,3.91,11.5Zm0-1.89a.45.45,0,0,0,0,.89.45.45,0,0,0,0-.89ZM3.91,8A1.45,1.45,0,1,1,5.35,6.6,1.44,1.44,0,0,1,3.91,8Zm0-1.89a.45.45,0,1,0,.44.45A.45.45,0,0,0,3.91,6.15Z"/></g><rect class="d" x="-3476.02" y="-349.02" width="4692.54" height="1133.5"/></g></svg>