<svg xmlns="http://www.w3.org/2000/svg" xmlns:xlink="http://www.w3.org/1999/xlink" width="14mm" height="14mm" viewBox="0 0 39.69 39.69"><defs><style>.a,.c,.e{fill:none;}.b{clip-path:url(#a);}.c{stroke:#9d9d9c;stroke-linecap:round;stroke-linejoin:round;}.d{fill:#9d9d9c;}.e{stroke:#f3e600;stroke-miterlimit:10;}</style><clipPath id="a"><rect class="a" x="6.69" y="4.98" width="26.31" height="30.13"/></clipPath></defs><title>DPE_</title><g class="b"><path class="c" d="M11.64,23.66H28a1.52,1.52,0,0,1,1.43.74l3,8.89c.24.72-.27,1.32-1.16,1.32H8.44c-.91,0-1.44-.62-1.19-1.36l3-8.86A1.51,1.51,0,0,1,11.64,23.66ZM15.5,9.06,14.23,7.79m-.38,5.57H12m3.55,4.29-1.27,1.27m5.53.39v1.92M24,17.65l1.26,1.27m.38-5.56h1.91M24,9.06l1.26-1.27M19.76,7.4V5.48"/><path class="c" d="M30.54,27.88c-.62,0-1,.29-.89.65h0l1.22,3.33c.15.4-.23.74-.85.74a1.42,1.42,0,0,1-1.35-.74l-1.83-6.22c-.08-.24-.52-.44-1-.44s-.82.2-.76.44l.64,2.89,0-.14.76,3.47c.09.4-.34.74-1,.74s-1.18-.34-1.24-.74l-.92-6.22c0-.24-.45-.44-.92-.44s-.85.2-.83.44l.46,6.22c0,.4-.46.74-1.08.74s-1.13-.34-1.13-.74V25.63c0-.24-.39-.44-.86-.44s-.87.2-.89.44l-.46,6.22c0,.4-.56.74-1.18.74s-1.08-.34-1-.74l.91-6.22c0-.24-.32-.44-.79-.44s-.9.2-1,.44l-1.38,6.22a1.3,1.3,0,0,1-1.29.74c-.62,0-1-.34-.91-.74l1.83-6.22c.07-.24-.26-.44-.73-.44s-.93.2-1,.44L10,28.52h0a1.59,1.59,0,0,1-1.43.68"/><path class="d" d="M24,13.35a4.19,4.19,0,1,1-4.19-4.23A4.22,4.22,0,0,1,24,13.35"/><ellipse class="c" cx="19.76" cy="13.35" rx="4.19" ry="4.23"/></g><rect class="e" x="-2051.47" y="-379.28" width="4692.54" height="1133.5"/></svg>