<svg xmlns="http://www.w3.org/2000/svg" width="8mm" height="8mm" viewBox="0 0 22.68 22.68"><defs><style>.a{isolation:isolate;}.b{mix-blend-mode:multiply;}.c{fill:#1d1d1b;}.d{fill:none;stroke:#f3e600;stroke-miterlimit:10;}</style></defs><title>DPE_</title><g class="a"><g class="b"><path class="c" d="M15.66,7.24a4.42,4.42,0,0,0-3.79,2.22,2.21,2.21,0,0,1,1.62,2.11H20a4.34,4.34,0,0,0-4.33-4.33"/><path class="c" d="M7,15.91a4.35,4.35,0,0,0,3.79-2.28,2.14,2.14,0,0,1-1.63-2.06H2.67A4.35,4.35,0,0,0,7,15.91"/><path class="c" d="M11.33,2.91A4.38,4.38,0,0,0,7,7.24,4.34,4.34,0,0,0,9.27,11a2.14,2.14,0,0,1,2.06-1.62Z"/><path class="c" d="M11.17,12.66a1.1,1.1,0,0,0,1.24-1.09,1.08,1.08,0,0,0-2.16,0,1.15,1.15,0,0,0,.92,1.09"/><path class="c" d="M15.66,15.91a4.34,4.34,0,0,0-2.27-3.79,2.2,2.2,0,0,1-2.06,1.62v6.5a4.38,4.38,0,0,0,4.33-4.33"/></g><rect class="d" x="-3367.75" y="-287.17" width="4692.54" height="1133.5"/></g></svg>