<svg xmlns="http://www.w3.org/2000/svg" width="27mm" height="27mm" viewBox="0 0 76.54 76.54"><defs><style>.a,.c,.e,.f{fill:none;}.a,.e{stroke:#2caf85;}.a{stroke-linecap:round;stroke-linejoin:round;stroke-width:1.42px;}.b{fill:#fff;}.c{stroke:#fff;stroke-width:3px;}.c,.e,.f{stroke-miterlimit:10;}.d{fill:#2caf85;}.e{stroke-width:2px;}.f{stroke:#f3e600;}</style></defs><title>DPE_</title><path class="a" d="M61.13,48.15A26.5,26.5,0,0,0,39.92,11.4m-6.13,0a26.5,26.5,0,0,0-21.35,37M15.8,54a26.47,26.47,0,0,0,41.88,0"/><path class="a" d="M15.15,60,15,54l5.94-.29m45.39-7.53L61,48.43,58.43,43M29.12,7.85l4.59,3.61-3.54,4.86"/><path class="a" d="M45.84,51c6.08-8.06-6.06-16.12,0-24.18M40.09,51c6.07-8.06-6.07-16.12,0-24.18M34.33,51c6.08-8.06-6.06-16.12,0-24.18M28.58,51c6.07-8.06-6.07-16.12,0-24.18"/><polyline class="b" points="8.71 62.55 12.56 66.48 20.19 58.69"/><path class="b" d="M14.21,74A11.51,11.51,0,1,0,2.69,62.48,11.51,11.51,0,0,0,14.21,74"/><path class="c" d="M14.21,74A11.51,11.51,0,1,0,2.69,62.48,11.51,11.51,0,0,0,14.21,74Z"/><path class="b" d="M14.21,73.86A11.38,11.38,0,1,0,2.82,62.48,11.38,11.38,0,0,0,14.21,73.86"/><path class="d" d="M14.21,52.52a10,10,0,1,1-10,10,10,10,0,0,1,10-10m0-1.42A11.38,11.38,0,1,0,25.59,62.48,11.38,11.38,0,0,0,14.21,51.1Z"/><polyline class="b" points="8.71 62.55 12.56 66.48 20.19 58.69"/><polyline class="e" points="8.71 62.55 12.56 66.48 20.19 58.69"/><rect class="f" x="-2011.04" y="-181.73" width="4692.54" height="1133.5"/></svg>