<svg xmlns="http://www.w3.org/2000/svg" width="8mm" height="8mm" viewBox="0 0 22.68 22.68"><defs><style>.a{isolation:isolate;}.b{mix-blend-mode:multiply;}.c{fill:#1d1d1b;}.d{fill:none;stroke:#f3e600;stroke-miterlimit:10;}</style></defs><title>DPE_</title><g class="a"><g class="b"><path class="c" d="M16,9.14a.54.54,0,0,0-.49-.31H12.76l1.9-3.53a.55.55,0,0,0-.49-.81H10.84a.56.56,0,0,0-.49.29L6.69,11.62a.52.52,0,0,0,0,.54.55.55,0,0,0,.47.27H9.63L8.28,17.57a.54.54,0,0,0,.28.63.57.57,0,0,0,.25.06.57.57,0,0,0,.43-.2l6.69-8.34A.53.53,0,0,0,16,9.14"/></g><rect class="d" x="-3505.31" y="-404.73" width="4692.54" height="1133.5"/></g></svg>