<svg xmlns="http://www.w3.org/2000/svg" xmlns:xlink="http://www.w3.org/1999/xlink" width="23mm" height="23mm" viewBox="0 0 65.2 65.2"><defs><style>.a{fill:url(#a);}.b,.f,.g,.h{fill:none;}.b,.g{stroke:#2caf85;}.b{stroke-linecap:round;stroke-linejoin:round;stroke-width:1.42px;}.c{mask:url(#b);}.d{fill:#2caf85;}.e{fill:#fff;}.f{stroke:#fff;stroke-width:3px;}.f,.g,.h{stroke-miterlimit:10;}.g{stroke-width:2px;}.h{stroke:#f3e600;}.i{filter:url(#c);}</style><linearGradient id="a" x1="-2796.76" y1="-647.75" x2="-2795.76" y2="-647.75" gradientTransform="matrix(0, -91.42, -91.42, 0, -59181.88, -255607.59)" gradientUnits="userSpaceOnUse"><stop offset="0" stop-color="#fff"/><stop offset="1"/></linearGradient><filter id="c" x="-0.7" y="2.78" width="65.98" height="49.84" filterUnits="userSpaceOnUse" color-interpolation-filters="sRGB"><feFlood flood-color="#fff" result="bg"/><feBlend in="SourceGraphic" in2="bg"/></filter><mask id="b" x="-0.7" y="2.78" width="65.98" height="49.84" maskUnits="userSpaceOnUse"><g class="i"><rect class="a" x="7.43" y="-5.25" width="49.72" height="65.9" transform="translate(4.54 59.94) rotate(-89.9)"/></g></mask></defs><title>DPE_</title><path class="b" d="M48.75,48.87H14V27.61l7-7,.17-.17L31.38,10.23,48.75,27.61ZM31.38,6,18.82,18.5,11,26.35V51.89H51.78V26.35Z"/><g class="c"><polygon class="d" points="65.2 36.53 55.95 31.2 55.95 33.86 4.19 33.86 4.19 39.21 55.95 39.21 55.95 41.87 65.2 36.53"/></g><path class="e" d="M14.21,59.54A11.52,11.52,0,1,0,2.69,48,11.51,11.51,0,0,0,14.21,59.54"/><path class="f" d="M14.21,59.54A11.52,11.52,0,1,0,2.69,48,11.51,11.51,0,0,0,14.21,59.54Z"/><path class="e" d="M14.21,59.4A11.38,11.38,0,1,0,2.82,48,11.38,11.38,0,0,0,14.21,59.4"/><path class="d" d="M14.21,38.06a10,10,0,1,1-10,10,10,10,0,0,1,10-10m0-1.42A11.38,11.38,0,1,0,25.59,48,11.39,11.39,0,0,0,14.21,36.64Z"/><polyline class="e" points="8.71 48.1 12.56 52.02 20.19 44.24"/><polyline class="g" points="8.71 48.1 12.56 52.02 20.19 44.24"/><rect class="h" x="-2070.71" y="-460.92" width="4692.54" height="1133.5"/></svg>