<svg xmlns="http://www.w3.org/2000/svg" width="116.75mm" height="91.25mm" viewBox="0 0 330.95 258.66"><defs><style>.a{fill:#d7221f;}.b{fill:#fff;}.c{fill:#00a06d;}.d{fill:#a5cc74;}.e{fill:#1d1d1b;}.f{fill:#52b153;}.g{fill:#f4e70f;}.h{fill:#f0b40f;}.i{fill:#eb8235;}.j,.k{fill:none;}.j{stroke:#9d9d9c;stroke-width:1.5px;}.k{stroke:#1d1d1b;stroke-width:1.42px;}</style></defs><title>DPE_</title><polygon class="a" points="282.51 227.66 110.72 227.66 110.72 204.19 282.51 204.19 290.56 215.93 282.51 227.66"/><path class="b" d="M126.44,220.73h-.1c-.2,1.4-1.48,2.46-3.58,2.46-3.21,0-5.73-2.48-5.73-7.16s2.54-7.28,6.33-7.28a5.59,5.59,0,0,1,5.38,3.24l-2.48,1.42a2.89,2.89,0,0,0-2.9-2c-1.88,0-3.11,1.08-3.11,3.4v2.24c0,2.32,1.23,3.4,3.11,3.4,1.52,0,2.74-.72,2.74-2.08v-.7h-2.61v-2.54H129V223h-2.56Z"/><polygon class="c" points="156.72 45.7 110.72 45.7 110.72 22.22 156.72 22.22 164.66 33.96 156.72 45.7"/><path class="b" d="M126.52,41.22l-1-3.33h-4.67l-1,3.33h-3.08l4.6-14h3.77l4.54,14ZM123.21,30h-.1l-1.53,5.3h3.2Z"/><polygon class="d" points="111.43 120.23 111.43 76.29 193.09 76.29 208.06 98.26 193.09 120.23 111.43 120.23"/><path class="e" d="M192.71,77,207.2,98.26l-14.49,21.26H112.14V77h80.57m.75-1.41H110.72v45.35h82.74l15.45-22.68L193.46,75.59Z"/><polygon class="f" points="175.11 72.38 110.72 72.38 110.72 48.9 175.11 48.9 183.05 60.64 175.11 72.38"/><path class="b" d="M118.09,53.93h6.78a3.38,3.38,0,0,1,3.69,3.58c0,2.14-1.18,2.94-2.61,3v.12a3.09,3.09,0,0,1,3.15,3.28,3.76,3.76,0,0,1-3.61,4h-7.4Zm3,5.72h3a1.18,1.18,0,0,0,1.28-1.28v-.6a1.18,1.18,0,0,0-1.28-1.28h-3Zm0,5.68h3.5a1.18,1.18,0,0,0,1.31-1.26v-.68a1.18,1.18,0,0,0-1.31-1.26h-3.5Z"/><polygon class="g" points="227.93 147.62 110.72 147.62 110.72 124.15 227.93 124.15 235.88 135.88 227.93 147.62"/><path class="b" d="M117.79,128.7h5.27c3.7,0,6.14,2.34,6.14,7s-2.44,7-6.14,7h-5.27ZM123.06,140c1.8,0,2.92-1,2.92-3.2v-2.16c0-2.23-1.12-3.21-2.92-3.21h-2.23V140Z"/><polygon class="h" points="245.93 174.3 110.72 174.3 110.72 150.83 245.93 150.83 253.88 162.56 245.93 174.3"/><path class="b" d="M118.69,169.52v-14h9.51v2.7h-6.46v2.86h5.54v2.68h-5.54v3h6.46v2.7Z"/><polygon class="i" points="264.19 200.98 110.72 200.98 110.72 177.51 264.19 177.51 272.14 189.24 264.19 200.98"/><path class="b" d="M118.91,196V182h9.27v2.7H122v2.86h5.31v2.68H122V196Z"/><line class="j" x1="106.07" y1="177.5" x2="106.07" y2="227.66"/><line class="k" x1="65.13" y1="79.48" x2="65.13" y2="117.04"/><path class="e" d="M110.72,77v42.52H15.88a2.4,2.4,0,0,1-2.4-2.4V79.41A2.4,2.4,0,0,1,15.88,77h94.84m1.42-1.41H15.88a3.82,3.82,0,0,0-3.82,3.82v37.71a3.82,3.82,0,0,0,3.82,3.82h96.26V75.59Z"/><path class="b" d="M131.74,114c-8.7,0-13.69-5.71-13.69-15.66s5.12-16.09,13.69-16.09c5.65,0,9.34,2.32,11.61,7.31a.72.72,0,0,1-.32.92l-5.5,2.86a.75.75,0,0,1-.33.07.62.62,0,0,1-.27,0,.71.71,0,0,1-.41-.44,4.47,4.47,0,0,0-4.78-3.58c-3.5,0-5.51,2.34-5.51,6.43v4.71c0,4.09,2,6.43,5.51,6.43a5.34,5.34,0,0,0,5.17-3.91.74.74,0,0,1,.43-.42.71.71,0,0,1,.6.06l5.2,3a.7.7,0,0,1,.28.93C141,111.54,137.08,114,131.74,114Z"/><path class="e" d="M131.74,83c5.38,0,8.82,2.18,11,6.89l-5.5,2.86a5.2,5.2,0,0,0-5.46-4.08c-3.74,0-6.22,2.52-6.22,7.14v4.71c0,4.62,2.48,7.14,6.22,7.14,3.15,0,5-2,5.84-4.37l5.21,3c-2.19,4.46-5.67,7-11,7-7.9,0-13-5-13-15S123.84,83,131.74,83m0-1.42c-8.88,0-14.4,6.44-14.4,16.8s5.38,16.37,14.4,16.37c5.63,0,9.78-2.63,12.32-7.81a1.42,1.42,0,0,0-.56-1.85l-5.21-3a1.48,1.48,0,0,0-.71-.19,1.32,1.32,0,0,0-.48.09,1.41,1.41,0,0,0-.85.84c-.84,2.28-2.36,3.44-4.51,3.44-3.1,0-4.8-2-4.8-5.72V95.81c0-3.69,1.7-5.72,4.8-5.72a3.81,3.81,0,0,1,4.11,3.08,1.4,1.4,0,0,0,.8.88,1.35,1.35,0,0,0,.55.11,1.33,1.33,0,0,0,.65-.16l5.51-2.85A1.41,1.41,0,0,0,144,89.3c-2.36-5.19-6.37-7.72-12.25-7.72Z"/></svg>