<svg xmlns="http://www.w3.org/2000/svg" width="27mm" height="27mm" viewBox="0 0 76.54 76.54"><defs><style>.a,.c,.e,.f{fill:none;}.a,.e{stroke:#2caf85;}.a{stroke-linecap:round;stroke-linejoin:round;stroke-width:1.42px;}.b{fill:#fff;}.c{stroke:#fff;stroke-width:3px;}.c,.e,.f{stroke-miterlimit:10;}.d{fill:#2caf85;}.e{stroke-width:2px;}.f{stroke:#f3e600;}</style></defs><title>DPE_</title><circle class="a" cx="37.87" cy="33.47" r="3.45"/><path class="a" d="M20.24,27a18.86,18.86,0,0,1,7.13-9.08"/><path class="a" d="M52.29,21.45A18.66,18.66,0,0,1,56.6,32.26"/><path class="a" d="M51.12,14.38a23.19,23.19,0,0,1,10,19.09A21.24,21.24,0,0,1,61,35.73"/><path class="a" d="M14.63,33.47c0-.65,0-1.29.07-1.92A23.27,23.27,0,0,1,28.25,12.31"/><path class="a" d="M39.73,30.57V4.67c-1.74,0-2.8.87-3,2.12S34.9,19.45,34.69,21.06a9.48,9.48,0,0,0,.78,5.27L37.87,30"/><path class="a" d="M34.42,33.3,12,46.22c.86,1.51,2.15,2,3.32,1.54S27.2,43,28.69,42.42a9.51,9.51,0,0,0,4.19-3.3c.62-1.23,2-3.93,2-3.93"/><path class="a" d="M39.44,36.54l22.39,13c.87-1.51.66-2.87-.32-3.65S51.48,38,50.2,37a9.48,9.48,0,0,0-5-2l-4.4.23"/><rect class="a" x="36.26" y="36.9" width="3.35" height="33.06"/><path class="b" d="M14.21,74A11.51,11.51,0,1,0,2.69,62.48,11.51,11.51,0,0,0,14.21,74"/><path class="c" d="M14.21,74A11.51,11.51,0,1,0,2.69,62.48,11.51,11.51,0,0,0,14.21,74Z"/><path class="b" d="M14.21,73.86A11.38,11.38,0,1,0,2.82,62.48,11.38,11.38,0,0,0,14.21,73.86"/><path class="d" d="M14.21,52.52a10,10,0,1,1-10,10,10,10,0,0,1,10-10m0-1.42A11.38,11.38,0,1,0,25.59,62.48,11.38,11.38,0,0,0,14.21,51.1Z"/><polyline class="b" points="8.71 62.55 12.56 66.48 20.19 58.69"/><polyline class="e" points="8.71 62.55 12.56 66.48 20.19 58.69"/><rect class="f" x="-1809.61" y="-276.84" width="4692.54" height="1133.5"/></svg>