<svg xmlns="http://www.w3.org/2000/svg" width="8mm" height="8mm" viewBox="0 0 22.68 22.68"><defs><style>.a{fill:none;stroke:#f3e600;stroke-miterlimit:10;}.b{fill:#1d1d1b;}</style></defs><title>DPE_</title><rect class="a" x="-3367.75" y="-404.73" width="4692.54" height="1133.5"/><path class="b" d="M17.68,16.17a7.95,7.95,0,0,1-11.94.73l.81,0A.5.5,0,0,0,7,16.33a.48.48,0,0,0-.52-.47L4.61,16a.5.5,0,0,0-.48.52l0,1.9a.51.51,0,0,0,.5.49h0a.5.5,0,0,0,.49-.52l0-.61a8.94,8.94,0,0,0,13.31-.95.5.5,0,0,0-.79-.61Z"/><path class="b" d="M3.42,11.29A7.94,7.94,0,0,1,9.29,3.62l-.41.55a.51.51,0,0,0,.11.7.55.55,0,0,0,.3.09.51.51,0,0,0,.4-.2l1.13-1.55h0a.48.48,0,0,0,.11-.37.51.51,0,0,0-.36-.43l-1.32-1a.5.5,0,0,0-.7.08.5.5,0,0,0,.08.7l.57.45a9,9,0,0,0-6,12.29.52.52,0,0,0,.46.3.49.49,0,0,0,.2,0,.5.5,0,0,0,.26-.66A7.77,7.77,0,0,1,3.42,11.29Z"/><path class="b" d="M21.29,13.8a.5.5,0,0,0-.65-.27L20,13.8a8.81,8.81,0,0,0,.36-2.51A9,9,0,0,0,12.46,2.4a.5.5,0,1,0-.12,1,7.95,7.95,0,0,1,6.72,10l-.3-.65a.5.5,0,1,0-.9.42l.8,1.74a.51.51,0,0,0,.45.29.45.45,0,0,0,.2,0L21,14.45A.49.49,0,0,0,21.29,13.8Z"/><path class="b" d="M11.1,11.84c.38,1,.59,1.68.06,2.38a.51.51,0,0,0,.1.7.49.49,0,0,0,.3.1.51.51,0,0,0,.4-.2c.89-1.17.44-2.37.07-3.34S11.44,9.8,12,9.1a.5.5,0,0,0-.1-.7.49.49,0,0,0-.7.1C10.28,9.67,10.73,10.87,11.1,11.84Z"/><path class="b" d="M14.05,8.4a.49.49,0,0,0-.7.1c-.89,1.17-.44,2.37-.07,3.34s.59,1.68.07,2.38a.5.5,0,0,0,.1.7.47.47,0,0,0,.3.1.51.51,0,0,0,.4-.2c.88-1.17.43-2.37.06-3.34s-.59-1.68-.06-2.38A.51.51,0,0,0,14.05,8.4Z"/><path class="b" d="M9.19,14.92a.49.49,0,0,0,.3.1.51.51,0,0,0,.4-.2c.89-1.17.43-2.37.07-3.34S9.37,9.8,9.89,9.1a.5.5,0,0,0-.1-.7.49.49,0,0,0-.7.1c-.88,1.17-.43,2.37-.07,3.34s.6,1.68.07,2.38A.51.51,0,0,0,9.19,14.92Z"/></svg>