<svg xmlns="http://www.w3.org/2000/svg" width="33.09mm" height="16.43mm" viewBox="0 0 93.8 46.57"><defs><style>.a{fill:#f7ab5c;}.b{fill:none;stroke:#f3e600;stroke-miterlimit:10;}</style></defs><title>DPE_</title><path class="a" d="M64.15,39.39H56V18.5h8.12ZM55.29,17.06a.73.73,0,0,0-.73.72V40.11a.73.73,0,0,0,.73.71h9.55a.73.73,0,0,0,.73-.71V17.78a.73.73,0,0,0-.73-.72Z"/><polygon class="a" points="60.08 1.75 58.49 6.5 53.37 6.5 57.48 9.46 55.93 14.18 60.08 11.27 64.23 14.18 62.67 9.46 66.79 6.5 61.68 6.5 60.08 1.75"/><path class="a" d="M29.41,26.08a.79.79,0,0,0,.37-.1L51.89,12.81l-1,4.16a.71.71,0,0,0,.53.87h.16a.71.71,0,0,0,.7-.55l1.59-6.48L47.4,9.19a.72.72,0,0,0-.87.52.71.71,0,0,0,.52.87l4.07,1L29,24.76a.72.72,0,0,0,.37,1.32"/><path class="a" d="M64.93,43.25H24.7a.72.72,0,1,0-.17,1.43h40.4a.72.72,0,1,0,.17-1.43h-.17"/><path class="a" d="M25.33,29.66h8.13v9.73H25.33Zm-.71,11.16H34.2a.71.71,0,0,0,.72-.71h0V28.94a.72.72,0,0,0-.72-.72H24.64a.72.72,0,0,0-.74.7V40.1a.73.73,0,0,0,.73.72"/><path class="a" d="M48.82,39.39H40.67V24h8.15ZM40,22.61a.71.71,0,0,0-.72.71V40.11a.71.71,0,0,0,.72.71h9.58a.7.7,0,0,0,.72-.71h0V23.32a.71.71,0,0,0-.71-.71H40Z"/><rect class="b" x="-3741.04" y="-207.99" width="4692.54" height="1133.5"/></svg>