<svg xmlns="http://www.w3.org/2000/svg" width="13.13mm" height="13.13mm" viewBox="0 0 37.22 37.22"><defs><style>.a{fill:none;stroke:#f3e600;stroke-miterlimit:10;}.b{fill:#1d1d1b;}</style></defs><title>DPE_</title><rect class="a" x="-1809.61" y="-617.73" width="4692.54" height="1133.5"/><path class="b" d="M30.89,26a.85.85,0,0,0-.28-1.16l-2.72-1.64L31.1,21.5a.84.84,0,0,0,.34-1.14.79.79,0,0,0-.5-.41.84.84,0,0,0-.64.06l-4.08,2.21-5.94-3.58,6-3.41,4,2.32a.78.78,0,0,0,.42.11h0a.84.84,0,0,0,.42-1.57L28,14.27l2.77-1.56a.84.84,0,0,0,.31-1.15.86.86,0,0,0-.5-.4.84.84,0,0,0-.64.08L27.19,12.8l.06-3.64a.83.83,0,0,0-.82-.86.88.88,0,0,0-.86.84l-.08,4.62-6,3.41V9.49L23.63,7a.86.86,0,0,0,.3-1.16.9.9,0,0,0-.51-.39.89.89,0,0,0-.64.09l-3.33,2V5.12a.84.84,0,0,0-1.68,0V7.33l-3-1.75a.86.86,0,0,0-.63-.09.89.89,0,0,0-.52.39A.86.86,0,0,0,14,7l3.82,2.25v7.83l-5.89-3.56,0-4.63a.83.83,0,0,0-.83-.85.85.85,0,0,0-.85.83l0,3.64L7.48,10.91a.82.82,0,0,0-.63-.1.85.85,0,0,0-.23,1.55L9.33,14,6.12,15.72a.86.86,0,0,0-.44.75.85.85,0,0,0,.84.84h0a.79.79,0,0,0,.4-.1L11,15l5.93,3.59L10.9,22l-4-2.33a.81.81,0,0,0-.63-.08.84.84,0,0,0-.2,1.54L9.2,23,6.44,24.51a.88.88,0,0,0-.43.74.84.84,0,0,0,.84.84.8.8,0,0,0,.41-.1L10,24.42,10,28.07a.84.84,0,1,0,1.68,0l.08-4.64,6-3.41V27l-4,2.35a.84.84,0,0,0-.3,1.15.86.86,0,0,0,.51.39.8.8,0,0,0,.64-.09l3.15-1.85V32.1a.85.85,0,0,0,.84.85h0a.84.84,0,0,0,.84-.85V28.93l3.16,1.85a.84.84,0,0,0,.84-1.45l-4-2.35V20.1l5.9,3.56-.06,4.64a.85.85,0,0,0,.83.85.84.84,0,0,0,.85-.83L27,24.67l2.72,1.64A.86.86,0,0,0,30.89,26Z"/></svg>