<svg xmlns="http://www.w3.org/2000/svg" width="8mm" height="8mm" viewBox="0 0 22.68 22.68"><defs><style>.a{isolation:isolate;}.b{mix-blend-mode:multiply;}.c{fill:#1d1d1b;}.d{fill:none;stroke:#f3e600;stroke-miterlimit:10;}</style></defs><title>DPE_</title><g class="a"><g class="b"><path class="c" d="M15.67,7a4.42,4.42,0,0,0-3.79,2.22,2.2,2.2,0,0,1,1.62,2.11H20A4.34,4.34,0,0,0,15.67,7"/><path class="c" d="M7,15.67A4.37,4.37,0,0,0,10.8,13.4a2.16,2.16,0,0,1-1.63-2.06H2.68A4.34,4.34,0,0,0,7,15.67"/><path class="c" d="M11.34,2.68A4.38,4.38,0,0,0,7,7,4.37,4.37,0,0,0,9.28,10.8a2.15,2.15,0,0,1,2.06-1.63Z"/><path class="c" d="M11.18,12.42a1.1,1.1,0,0,0,1.24-1.08,1.08,1.08,0,0,0-2.16,0,1.15,1.15,0,0,0,.92,1.08"/><path class="c" d="M15.67,15.67a4.37,4.37,0,0,0-2.27-3.79,2.21,2.21,0,0,1-2.06,1.62V20a4.38,4.38,0,0,0,4.33-4.33"/></g><rect class="d" x="-2861.86" y="-229.89" width="4692.54" height="1133.5"/></g></svg>