<svg xmlns="http://www.w3.org/2000/svg" width="90.34mm" height="31.74mm" viewBox="0 0 256.08 89.97"><defs><style>.a{fill:#fff;}.b{fill:#dbede3;}.c{fill:#ededed;}.d{fill:none;stroke:#f3e600;stroke-miterlimit:10;}.e{fill:#2caf85;}.f{fill:#b3b3b3;}</style></defs><title>DPE_</title><rect class="a" width="256.08" height="89.97"/><rect class="b" x="193.11" y="4.25" width="58.7" height="67.3"/><rect class="c" x="130.16" y="4.25" width="58.7" height="67.3"/><rect class="c" x="67.2" y="4.25" width="58.7" height="67.3"/><rect class="c" x="4.25" y="4.25" width="58.7" height="67.3"/><rect class="d" x="-1326.76" y="-482.52" width="4692.54" height="1133.5"/><rect class="e" x="193.11" y="71.55" width="58.7" height="14.17"/><rect class="f" x="130.16" y="71.55" width="58.7" height="14.17"/><rect class="f" x="67.2" y="71.55" width="58.7" height="14.17"/><rect class="f" x="4.25" y="71.55" width="58.7" height="14.17"/><path class="e" d="M222.47,15.22l20.4,20.4V61.17H202.06V35.62l7.85-7.85,12.56-12.55m0-2-1,1L208.91,26.77l-7.85,7.85-.42.42V62.59h43.65V35l-.42-.42-20.4-20.4-1-1Z"/><path class="e" d="M240.55,58.85H204.38V36.59L222.47,18.5l18.08,18.09ZM205.8,57.43h33.33V37.17L222.47,20.5,205.8,37.17Z"/></svg>