<svg xmlns="http://www.w3.org/2000/svg" width="8mm" height="8mm" viewBox="0 0 22.68 22.68"><defs><style>.a{fill:none;stroke:#f3e600;stroke-miterlimit:10;}.b{fill:#1d1d1b;}</style></defs><title>DPE_</title><rect class="a" x="-3264.38" y="-404.73" width="4692.54" height="1133.5"/><path class="b" d="M9.72,7.13a.5.5,0,0,0-.8-.61,2.86,2.86,0,0,0-.07,3c.33.88.51,1.44.07,2a.51.51,0,0,0,.1.7.49.49,0,0,0,.3.1.51.51,0,0,0,.4-.2,2.86,2.86,0,0,0,.07-3C9.46,8.27,9.28,7.71,9.72,7.13Z"/><path class="b" d="M13.56,7.13a.5.5,0,0,0-.1-.7.5.5,0,0,0-.7.09,2.86,2.86,0,0,0-.07,3c.33.88.51,1.44.07,2a.5.5,0,0,0,.1.7.47.47,0,0,0,.3.1.51.51,0,0,0,.4-.2,2.84,2.84,0,0,0,.06-3C13.3,8.27,13.12,7.71,13.56,7.13Z"/><path class="b" d="M11.58,7.13a.5.5,0,0,0-.8-.61,2.86,2.86,0,0,0-.07,3c.33.87.51,1.44.07,2a.51.51,0,0,0,.1.7.49.49,0,0,0,.3.1.51.51,0,0,0,.4-.2,2.86,2.86,0,0,0,.07-3C11.32,8.27,11.14,7.71,11.58,7.13Z"/><path class="b" d="M21.18,8.92,19.61,7.24a.5.5,0,0,0-.71,0,.49.49,0,0,0,0,.7l.83.9H18.25V4.56a3,3,0,0,0-3-3H7.15a3,3,0,0,0-3,3V8.82H1.88a.5.5,0,0,0-.5.5.51.51,0,0,0,.5.5H4.11v7.73a3,3,0,0,0,3,3h.42v1.21h1V20.58h5.75v1.21h1V20.57a3,3,0,0,0,2.94-3V9.82H19.6l-.83.89a.5.5,0,0,0,0,.71.51.51,0,0,0,.34.14.52.52,0,0,0,.37-.16l1.68-1.8A.5.5,0,0,0,21.18,8.92Zm-6,10.66H7.14a2,2,0,0,1-2-2V16H17.25v1.52A2,2,0,0,1,15.22,19.58Zm2-4.55H5.11V9.82H6.45l-.83.89a.5.5,0,0,0,0,.71.51.51,0,0,0,.34.14.54.54,0,0,0,.37-.16L8,9.6a.5.5,0,0,0,0-.68L6.46,7.24a.5.5,0,0,0-.74.68l.84.9H5.11V4.56a2,2,0,0,1,2-2h8.07a2,2,0,0,1,2,2V8.82H15.17a.5.5,0,0,0-.5.5.5.5,0,0,0,.5.5h2.08Z"/><rect class="b" x="9.47" y="17.09" width="4.04" height="1"/><path class="b" d="M7.16,16.32a1.27,1.27,0,1,0,1.26,1.27A1.27,1.27,0,0,0,7.16,16.32ZM6.9,17.59a.26.26,0,1,1,.52,0C7.42,17.87,6.9,17.87,6.9,17.59Z"/></svg>