<svg xmlns="http://www.w3.org/2000/svg" width="8mm" height="8mm" viewBox="0 0 22.68 22.68"><defs><style>.a{isolation:isolate;}.b{mix-blend-mode:multiply;}.c{fill:#1d1d1b;}.d{fill:none;stroke:#f3e600;stroke-miterlimit:10;}</style></defs><title>DPE_</title><g class="a"><g class="b"><path class="c" d="M13.59,20.14a3.25,3.25,0,0,1-5.48-2.41,3.24,3.24,0,0,1,1.17-2.38A.45.45,0,0,0,9.43,15V3.41a1.79,1.79,0,1,1,3.58,0V14.84a.44.44,0,0,0,.18.35,3.23,3.23,0,0,1,1.38,2.64,3.19,3.19,0,0,1-1,2.31m.27-5.51V3.41a2.64,2.64,0,0,0-5.28,0V14.83A4.08,4.08,0,0,0,7.27,17.7a4.12,4.12,0,0,0,4,4.2h.12a4.06,4.06,0,0,0,4.07-4.07,4.1,4.1,0,0,0-1.55-3.2"/><path class="c" d="M12.71,15.88l-.54-.38V9.15a.42.42,0,0,0-.43-.42H10.69a.42.42,0,0,0-.42.42v6.47L9.82,16A2.38,2.38,0,0,0,9,17.76a2.43,2.43,0,0,0,2.32,2.45h.06a2.39,2.39,0,0,0,2.38-2.38,2.41,2.41,0,0,0-1-1.95"/><path class="c" d="M10.69,7.48h1.05a.42.42,0,1,0,0-.84H10.69a.42.42,0,0,0,0,.84"/><path class="c" d="M10.69,5.39h1.05a.43.43,0,1,0,0-.85H10.69a.43.43,0,0,0,0,.85"/></g><rect class="d" x="-3206.72" y="-287.17" width="4692.54" height="1133.5"/></g></svg>