<svg xmlns="http://www.w3.org/2000/svg" width="90.52mm" height="32.13mm" viewBox="0 0 256.59 91.09"><defs><style>.a{fill:#fff;}.b{fill:#ededed;}.c,.d{fill:#e52322;}.c{opacity:0.25;}.e{fill:none;stroke:#f3e600;stroke-miterlimit:10;}.f{fill:#b3b3b3;}</style></defs><title>DPE_</title><rect class="a" width="256.08" height="91.09"/><rect class="b" x="88.36" y="4.25" width="79.86" height="68.41"/><rect class="c" x="4.25" y="4.25" width="79.86" height="68.41"/><rect class="b" x="172.48" y="4.25" width="79.86" height="68.41"/><path class="d" d="M44.18,18.46a20,20,0,1,0,20,20,20,20,0,0,0-20-20m0,2.78A17.22,17.22,0,1,1,27,38.46,17.25,17.25,0,0,1,44.18,21.24"/><path class="d" d="M54.37,46.73a1,1,0,0,1-.94-.57c-1.59-3-5.22-5-9.25-5s-7.65,1.95-9.25,5a1.06,1.06,0,0,1-1.43.45,1.07,1.07,0,0,1-.45-1.44c2-3.71,6.33-6.1,11.13-6.1s9.18,2.39,11.13,6.1a1.06,1.06,0,0,1-.44,1.44A1.11,1.11,0,0,1,54.37,46.73Z"/><path class="d" d="M36.15,30.43a2,2,0,1,1-2,2,2,2,0,0,1,2-2"/><path class="d" d="M52.26,30.43a2,2,0,1,1-2,2,2,2,0,0,1,2-2"/><rect class="e" x="-1332.19" y="-823.25" width="4692.54" height="1133.5"/><rect class="d" x="4.25" y="72.66" width="79.86" height="14.17"/><rect class="f" x="88.36" y="72.66" width="79.86" height="14.17"/><rect class="f" x="172.48" y="72.66" width="79.86" height="14.17"/></svg>