<svg xmlns="http://www.w3.org/2000/svg" width="27mm" height="27mm" viewBox="0 0 76.54 76.54"><defs><style>.a{fill:#2caf85;}.b{fill:#fff;}.c,.d,.e{fill:none;stroke-miterlimit:10;}.c{stroke:#fff;stroke-width:3px;}.d{stroke:#2caf85;stroke-width:2px;}.e{stroke:#f3e600;}</style></defs><title>DPE_</title><path class="a" d="M56.37,46.14l.19,0a.7.7,0,0,0,.71-.68V24.9L38.29,7l-.12-.11-19,17.92-.06,0V46.16H56.19Zm-.53-20.67V44.8H20.49V25.47L38.17,8.84Z"/><path class="a" d="M23.08,40.87l1.54-1.45v4.27a.71.71,0,0,0,1.42,0V39.42l1.54,1.45a.74.74,0,0,0,.5.19.76.76,0,0,0,.5-.19.67.67,0,0,0,0-1l-2.81-2.64-.05,0h-.78L22.08,39.9a.67.67,0,0,0,0,1A.76.76,0,0,0,23.08,40.87Z"/><path class="a" d="M36,40.87l1.54-1.45v4.27a.71.71,0,0,0,1.42,0V39.42l1.54,1.45a.74.74,0,0,0,1,0,.64.64,0,0,0,0-1l-2.8-2.64-.05,0h-.78L35,39.9a.65.65,0,0,0-.21.49.68.68,0,0,0,.21.48A.75.75,0,0,0,36,40.87Z"/><path class="a" d="M49,40.87l1.54-1.45v4.27a.71.71,0,0,0,1.42,0V39.42l1.53,1.45a.78.78,0,0,0,.5.19.74.74,0,0,0,.5-.19.69.69,0,0,0,.22-.48.66.66,0,0,0-.22-.49l-2.81-2.64,0,0h-.77L48,39.9a.67.67,0,0,0,0,1A.76.76,0,0,0,49,40.87Z"/><path class="a" d="M21.68,53.66h7.83a2.45,2.45,0,0,0,1.6-.57,1.93,1.93,0,0,0,.6-1.47,1.89,1.89,0,0,0-.6-1.46,2.4,2.4,0,0,0-1.57-.57H19.78a.68.68,0,1,0,0,1.36h9.77a1,1,0,0,1,.58.19.8.8,0,0,1,0,1,1,1,0,0,1-.59.2H21.71a2.45,2.45,0,0,0-1.6.57,1.92,1.92,0,0,0-.6,1.46,1.89,1.89,0,0,0,.6,1.46,2.45,2.45,0,0,0,1.57.58h7.91a.88.88,0,0,1,.54.19.63.63,0,0,1,.16.48.62.62,0,0,1-.16.48,1,1,0,0,1-.59.2H21.71a2.45,2.45,0,0,0-1.6.57,2.08,2.08,0,0,0,0,2.92,2.42,2.42,0,0,0,1.57.58h7.76A1,1,0,0,1,30,62a.76.76,0,0,1,0,1,1.05,1.05,0,0,1-.59.2H19.65a.68.68,0,1,0,0,1.35h9.77A2.38,2.38,0,0,0,31,63.92,2.05,2.05,0,0,0,31,61a2.4,2.4,0,0,0-1.57-.57H21.67a1,1,0,0,1-.58-.19.64.64,0,0,1-.16-.49.62.62,0,0,1,.16-.48,1,1,0,0,1,.59-.2h7.84a2.37,2.37,0,0,0,1.59-.57,2.08,2.08,0,0,0,0-2.92A2.41,2.41,0,0,0,29.54,55H21.67a1,1,0,0,1-.58-.2.8.8,0,0,1,0-1A1.13,1.13,0,0,1,21.68,53.66Z"/><path class="a" d="M34.62,53.66h7.83a2.4,2.4,0,0,0,1.6-.56,1.91,1.91,0,0,0,.6-1.47,1.89,1.89,0,0,0-.6-1.46,2.41,2.41,0,0,0-1.57-.57H32.72a.68.68,0,1,0,0,1.36h9.77a1,1,0,0,1,.58.19.63.63,0,0,1,.16.48.62.62,0,0,1-.16.48,1.08,1.08,0,0,1-.54.21H34.65a2.47,2.47,0,0,0-1.61.57,1.92,1.92,0,0,0-.6,1.46,1.89,1.89,0,0,0,.61,1.46,2.45,2.45,0,0,0,1.57.58h7.87a1,1,0,0,1,.58.19.62.62,0,0,1,.16.48.6.6,0,0,1-.16.48,1,1,0,0,1-.59.2H34.65a2.42,2.42,0,0,0-1.6.57,2.05,2.05,0,0,0,0,2.92,2.42,2.42,0,0,0,1.57.58h7.74a.94.94,0,0,1,.58.19.62.62,0,0,1,.16.48.6.6,0,0,1-.16.48,1,1,0,0,1-.59.2H32.59a.68.68,0,1,0,0,1.35h9.77a2.4,2.4,0,0,0,1.56-.57,2.08,2.08,0,0,0,0-2.92,2.41,2.41,0,0,0-1.57-.57H34.61a1,1,0,0,1-.58-.19.66.66,0,0,1-.17-.49.62.62,0,0,1,.17-.48,1,1,0,0,1,.59-.2h7.83a2.34,2.34,0,0,0,1.6-.57,2.08,2.08,0,0,0,0-2.92A2.41,2.41,0,0,0,42.48,55h-7.9a1,1,0,0,1-.55-.2.62.62,0,0,1-.16-.48.63.63,0,0,1,.16-.48A.92.92,0,0,1,34.62,53.66Z"/><path class="a" d="M47.56,59.07h7.83A2.33,2.33,0,0,0,57,58.5a2.08,2.08,0,0,0,0-2.92A2.41,2.41,0,0,0,55.42,55H47.55a.94.94,0,0,1-.58-.2.61.61,0,0,1-.17-.48.64.64,0,0,1,.17-.48.85.85,0,0,1,.59-.19h7.83a2.42,2.42,0,0,0,1.6-.56,2,2,0,0,0,.6-1.47,1.89,1.89,0,0,0-.6-1.46,2.42,2.42,0,0,0-1.57-.57H45.66a.68.68,0,1,0,0,1.36h9.77a1,1,0,0,1,.58.19.63.63,0,0,1,.16.48.62.62,0,0,1-.16.48,1.08,1.08,0,0,1-.54.21H47.58a2.45,2.45,0,0,0-1.6.57,2,2,0,0,0-.6,1.46,1.92,1.92,0,0,0,.6,1.46,2.45,2.45,0,0,0,1.58.58h7.86a1,1,0,0,1,.59.19.8.8,0,0,1,0,1,1,1,0,0,1-.59.2H47.58a2.41,2.41,0,0,0-1.6.57,2.08,2.08,0,0,0,0,2.92,2.46,2.46,0,0,0,1.58.58h7.75a.9.9,0,0,1,.57.19.8.8,0,0,1,0,1,1,1,0,0,1-.59.2H45.53a.68.68,0,1,0,0,1.35H55.3a2.4,2.4,0,0,0,1.56-.57,2.08,2.08,0,0,0,0-2.92,2.4,2.4,0,0,0-1.57-.57H47.54a1,1,0,0,1-.57-.2.61.61,0,0,1-.17-.48.62.62,0,0,1,.17-.48A1,1,0,0,1,47.56,59.07Z"/><path class="b" d="M14.21,74A11.51,11.51,0,1,0,2.69,62.48,11.51,11.51,0,0,0,14.21,74"/><path class="c" d="M14.21,74A11.51,11.51,0,1,0,2.69,62.48,11.51,11.51,0,0,0,14.21,74Z"/><path class="b" d="M14.21,73.86A11.38,11.38,0,1,0,2.82,62.48,11.38,11.38,0,0,0,14.21,73.86"/><path class="a" d="M14.21,52.52a10,10,0,1,1-10,10,10,10,0,0,1,10-10m0-1.42A11.38,11.38,0,1,0,25.59,62.48,11.38,11.38,0,0,0,14.21,51.1Z"/><polyline class="b" points="8.71 62.55 12.56 66.48 20.19 58.69"/><polyline class="d" points="8.71 62.55 12.56 66.48 20.19 58.69"/><rect class="e" x="-2206.91" y="-181.73" width="4692.54" height="1133.5"/></svg>