<svg xmlns="http://www.w3.org/2000/svg" xmlns:xlink="http://www.w3.org/1999/xlink" width="18.33mm" height="16.43mm" viewBox="0 0 51.96 46.57"><defs><style>.a,.d,.e{fill:none;}.b{clip-path:url(#a);}.c{fill:#f7ab5c;}.d{stroke:#f7a958;stroke-width:0.25px;}.d,.e{stroke-miterlimit:10;}.e{stroke:#f3e600;}</style><clipPath id="a"><rect class="a" x="4.6" y="4.54" width="41.73" height="37.61"/></clipPath></defs><title>DPE_</title><g class="b"><path class="c" d="M36.79,30.77a1.67,1.67,0,0,0,.61-1.32V13.91a2.66,2.66,0,0,1,5.32,0V29.45a1.71,1.71,0,0,0,.61,1.32,5.1,5.1,0,1,1-7.18.64A5.53,5.53,0,0,1,36.79,30.77ZM33.92,35a6.19,6.19,0,0,0,5.9,5.81h.24A6.15,6.15,0,0,0,44,30a.67.67,0,0,1-.25-.52V13.91a3.7,3.7,0,1,0-7.4,0V29.45a.69.69,0,0,1-.24.52,6.11,6.11,0,0,0-2.2,5"/><path class="d" d="M36.79,30.77a1.67,1.67,0,0,0,.61-1.32V13.91a2.66,2.66,0,0,1,5.32,0V29.45a1.71,1.71,0,0,0,.61,1.32,5.1,5.1,0,1,1-7.18.64A5.53,5.53,0,0,1,36.79,30.77ZM33.92,35a6.19,6.19,0,0,0,5.9,5.81h.24A6.15,6.15,0,0,0,44,30a.67.67,0,0,1-.25-.52V13.91a3.7,3.7,0,1,0-7.4,0V29.45a.69.69,0,0,1-.24.52A6.11,6.11,0,0,0,33.92,35Z"/><path class="c" d="M40.06,32.45a2.24,2.24,0,1,1-2.23,2.23,2.23,2.23,0,0,1,2.23-2.23m0,5.51a3.28,3.28,0,0,0,.52-6.51V15.69a.51.51,0,0,0-.51-.53.52.52,0,0,0-.53.52h0V31.45A3.28,3.28,0,0,0,40.06,38"/><path class="d" d="M40.06,32.45a2.24,2.24,0,1,1-2.23,2.23A2.23,2.23,0,0,1,40.06,32.45Zm0,5.51a3.28,3.28,0,0,0,.52-6.51V15.69a.51.51,0,0,0-.51-.53.52.52,0,0,0-.53.52h0V31.45A3.28,3.28,0,0,0,40.06,38Z"/><path class="c" d="M31.28,31.28a.52.52,0,0,0-.52.53.52.52,0,0,0,.52.52h.47a.52.52,0,0,0,.52-.52.52.52,0,0,0-.52-.53Z"/><path class="d" d="M31.28,31.28a.52.52,0,0,0-.52.53.52.52,0,0,0,.52.52h.47a.52.52,0,0,0,.52-.52.52.52,0,0,0-.52-.53Z"/><path class="c" d="M33.43,22.15c.3-.37.62-.72.94-1.06a.52.52,0,1,0-.75-.72q-.51.52-1,1.11a3.73,3.73,0,0,1-2.86,1.34H29a4.76,4.76,0,0,0-.48,9.49.52.52,0,0,0,.57-.47.51.51,0,0,0-.47-.57,3.71,3.71,0,0,1,.38-7.4h.74a4.77,4.77,0,0,0,3.66-1.72"/><path class="d" d="M33.43,22.15c.3-.37.62-.72.94-1.06a.52.52,0,1,0-.75-.72q-.51.52-1,1.11a3.73,3.73,0,0,1-2.86,1.34H29a4.76,4.76,0,0,0-.48,9.49.52.52,0,0,0,.57-.47.51.51,0,0,0-.47-.57,3.71,3.71,0,0,1,.38-7.4h.74A4.77,4.77,0,0,0,33.43,22.15Z"/><path class="c" d="M15.62,32.33A3.08,3.08,0,0,1,18,33.43L19.34,35A4.1,4.1,0,0,0,22.5,36.5a3.08,3.08,0,0,1,2.95,2.19l.63,2.08a16.6,16.6,0,0,1-2,.2H22.72l-.38,0h-.17l-.42,0h-.11l-.52-.06-.14,0-.37-.05-.2,0-.3-.06-.22,0-.31-.07-.45-.11-.15,0-.35-.1-.08,0a17.73,17.73,0,0,1-10.31-8Zm-8.74-.28a1.14,1.14,0,0,1,.1.19l0,0a18.68,18.68,0,0,0,11.63,9.15l.18,0,.3.08.29.06.24,0,.51.1.18,0,.41.07.18,0,.5.06h.07l.57,0h.16l.44,0h.75a18.82,18.82,0,0,0,3.44-.32h0a16.38,16.38,0,0,0,5.51-2,.53.53,0,0,0,.19-.72.52.52,0,0,0-.71-.19,15.86,15.86,0,0,1-4.75,1.78l-.67-2.21a4.12,4.12,0,0,0-3.95-2.94,3.09,3.09,0,0,1-2.36-1.09l-1.36-1.61a4.13,4.13,0,0,0-3.16-1.47H7.67a17.38,17.38,0,0,1-1.89-7.93A17.65,17.65,0,0,1,23.41,5.71a18.12,18.12,0,0,1,2.33.16l-1.83,5.41a3.79,3.79,0,0,1-3.6,2.58,4.89,4.89,0,0,0-3.52,1.52L15,17.29a3.83,3.83,0,0,1-2.76,1.19h-2a.52.52,0,1,0,0,1h2A4.85,4.85,0,0,0,15.74,18l1.81-1.91a3.81,3.81,0,0,1,2.76-1.19,4.84,4.84,0,0,0,4.59-3.29L26.79,6A17.6,17.6,0,0,1,34.88,10a.53.53,0,0,0,.74-.06.52.52,0,0,0-.06-.74A18.68,18.68,0,0,0,6.86,32s0,0,0,0"/><path class="d" d="M15.62,32.33A3.08,3.08,0,0,1,18,33.43L19.34,35A4.1,4.1,0,0,0,22.5,36.5a3.08,3.08,0,0,1,2.95,2.19l.63,2.08a16.6,16.6,0,0,1-2,.2H22.72l-.38,0h-.17l-.42,0h-.11l-.52-.06-.14,0-.37-.05-.2,0-.3-.06-.22,0-.31-.07-.45-.11-.15,0-.35-.1-.08,0a17.73,17.73,0,0,1-10.31-8Zm-8.74-.28a1.14,1.14,0,0,1,.1.19l0,0a18.68,18.68,0,0,0,11.63,9.15l.18,0,.3.08.29.06.24,0,.51.1.18,0,.41.07.18,0,.5.06h.07l.57,0h.16l.44,0h.75a18.82,18.82,0,0,0,3.44-.32h0a16.38,16.38,0,0,0,5.51-2,.53.53,0,0,0,.19-.72.52.52,0,0,0-.71-.19,15.86,15.86,0,0,1-4.75,1.78l-.67-2.21a4.12,4.12,0,0,0-3.95-2.94,3.09,3.09,0,0,1-2.36-1.09l-1.36-1.61a4.13,4.13,0,0,0-3.16-1.47H7.67a17.38,17.38,0,0,1-1.89-7.93A17.65,17.65,0,0,1,23.41,5.71a18.12,18.12,0,0,1,2.33.16l-1.83,5.41a3.79,3.79,0,0,1-3.6,2.58,4.89,4.89,0,0,0-3.52,1.52L15,17.29a3.83,3.83,0,0,1-2.76,1.19h-2a.52.52,0,1,0,0,1h2A4.85,4.85,0,0,0,15.74,18l1.81-1.91a3.81,3.81,0,0,1,2.76-1.19,4.84,4.84,0,0,0,4.59-3.29L26.79,6A17.6,17.6,0,0,1,34.88,10a.53.53,0,0,0,.74-.06.52.52,0,0,0-.06-.74A18.68,18.68,0,0,0,6.86,32S6.87,32,6.88,32.05Z"/></g><rect class="e" x="-4202.75" y="-207.99" width="4692.54" height="1133.5"/></svg>