<svg xmlns="http://www.w3.org/2000/svg" width="4mm" height="4mm" viewBox="0 0 11.34 11.34"><defs><style>.a{fill:#e6007e;}.b{fill:#fff;}.c{fill:none;stroke:#f3e600;stroke-miterlimit:10;}</style></defs><title>DPE_</title><path class="a" d="M1.88,9.78a.85.85,0,0,1-.74-.43.86.86,0,0,1,0-.85L4.92,1.93a.87.87,0,0,1,.75-.44.85.85,0,0,1,.74.44L10.2,8.5a.86.86,0,0,1-.75,1.28Z"/><path class="b" d="M5.67,1.85a.5.5,0,0,1,.44.25L9.89,8.67a.51.51,0,0,1-.44.76H1.88a.5.5,0,0,1-.43-.76L5.23,2.1a.5.5,0,0,1,.44-.25m0-.71a1.2,1.2,0,0,0-1,.61L.83,8.32a1.22,1.22,0,0,0,1,1.82H9.45A1.22,1.22,0,0,0,10.5,8.32L6.72,1.75a1.2,1.2,0,0,0-1-.61Z"/><rect class="c" x="-2960.18" y="-301.91" width="4692.54" height="1133.5"/><path class="b" d="M6.14,7.9v.16c0,.25-.14.4-.47.4s-.48-.15-.48-.4V7.9c0-.25.15-.4.48-.4s.47.15.47.4"/><polygon class="b" points="6.07 5.25 5.84 7.09 5.5 7.09 5.27 5.25 5.27 4 6.07 4 6.07 5.25"/></svg>