<svg xmlns="http://www.w3.org/2000/svg" width="66.74mm" height="91.25mm" viewBox="0 0 189.18 258.66"><defs><style>.a{fill:#a4dbf8;}.b{fill:#fff;}.c{fill:#7792b1;}.d{fill:#1d1d1b;}.e{fill:#606f8f;}.f{fill:#4d5271;}.g{fill:#393551;}.h{fill:#281b35;}.i{fill:#8cb4d3;}.j,.k{fill:none;}.j{stroke:#a5dbf8;stroke-miterlimit:10;stroke-width:1.42px;}.k{stroke:#1d1d1b;stroke-width:0.99px;}</style></defs><title>DPE_</title><path class="a" d="M25.36,83.63H43.29a5.28,5.28,0,0,0,5.28-5.28h0a5.28,5.28,0,0,0-5.28-5.27H25.36Z"/><path class="b" d="M32.62,81.5,32.17,80h-2.1l-.45,1.5H28.24l2.07-6.29H32l2,6.29Zm-1.49-5h0l-.69,2.38h1.44Z"/><path class="c" d="M25.84,117.07V97.65h31.1a9.71,9.71,0,1,1,0,19.42Z"/><path class="d" d="M56.94,98.15a9.21,9.21,0,1,1,0,18.42H26.33V98.15H56.94m0-1H25.34v20.41h31.6a10.2,10.2,0,0,0,10.2-10.2h0a10.21,10.21,0,0,0-10.2-10.21Z"/><path class="e" d="M25.36,129.6H75a5.28,5.28,0,0,0,5.28-5.28h0A5.29,5.29,0,0,0,75,119H25.36Z"/><path class="b" d="M28.7,121.18h2.36c1.67,0,2.77,1,2.77,3.14s-1.1,3.14-2.77,3.14H28.7Zm2.36,5.07c.81,0,1.32-.44,1.32-1.44v-1c0-1-.51-1.44-1.32-1.44h-1v3.85Z"/><path class="f" d="M25.36,141.64H83.24a5.27,5.27,0,0,0,5.28-5.28h0a5.28,5.28,0,0,0-5.28-5.28H25.36Z"/><path class="b" d="M29.1,139.5v-6.28h4.28v1.21H30.47v1.29H33v1.21H30.47v1.36h2.91v1.21Z"/><path class="g" d="M25.36,153.68h66.1a5.28,5.28,0,0,0,5.28-5.28h0a5.27,5.27,0,0,0-5.28-5.28H25.36Z"/><path class="b" d="M29.2,151.54v-6.28h4.17v1.21h-2.8v1.29H33V149H30.57v2.57Z"/><path class="h" d="M25.36,165.72H99.77a5.28,5.28,0,0,0,5.28-5.28h0a5.27,5.27,0,0,0-5.28-5.28H25.36Z"/><path class="b" d="M32.58,162.58h0c-.09.63-.67,1.11-1.61,1.11-1.44,0-2.58-1.12-2.58-3.23s1.15-3.27,2.85-3.27a2.51,2.51,0,0,1,2.42,1.46l-1.12.63a1.3,1.3,0,0,0-1.3-.88c-.85,0-1.4.49-1.4,1.53v1c0,1.05.55,1.53,1.4,1.53.68,0,1.23-.32,1.23-.93v-.32H31.26v-1.14h2.48v3.5H32.58Z"/><path class="i" d="M25.36,95.67h26.3a5.28,5.28,0,0,0,5.28-5.28h0a5.29,5.29,0,0,0-5.28-5.28H25.36Z"/><path class="b" d="M28.59,87.25h3.05a1.52,1.52,0,0,1,1.65,1.61c0,1-.53,1.33-1.17,1.35v.06a1.39,1.39,0,0,1,1.42,1.47,1.69,1.69,0,0,1-1.62,1.79H28.59ZM30,89.83h1.36a.54.54,0,0,0,.58-.58V89a.54.54,0,0,0-.58-.58H30Zm0,2.55h1.58a.53.53,0,0,0,.59-.57v-.3a.54.54,0,0,0-.59-.57H30Z"/><path class="b" d="M35.09,114.35c-3.79,0-6.06-2.58-6.06-6.9s2.27-7.09,6.06-7.09a5.12,5.12,0,0,1,5.15,3.25.49.49,0,0,1-.22.64l-2.36,1.23a.59.59,0,0,1-.23,0,.43.43,0,0,1-.19,0,.48.48,0,0,1-.28-.31,1.74,1.74,0,0,0-1.87-1.4c-1.38,0-2.17.94-2.17,2.57v2c0,1.63.79,2.56,2.17,2.56a2.08,2.08,0,0,0,2-1.55.51.51,0,0,1,.3-.29.45.45,0,0,1,.16,0,.43.43,0,0,1,.25.07l2.24,1.29a.5.5,0,0,1,.19.65A5.41,5.41,0,0,1,35.09,114.35Z"/><path class="d" d="M35.09,100.86a4.65,4.65,0,0,1,4.7,3L37.43,105a2.22,2.22,0,0,0-2.34-1.75c-1.6,0-2.66,1.08-2.66,3.06v2c0,2,1.06,3.06,2.66,3.06a2.57,2.57,0,0,0,2.5-1.88l2.24,1.3a4.92,4.92,0,0,1-4.74,3c-3.38,0-5.56-2.16-5.56-6.41s2.18-6.59,5.56-6.59m0-1c-4,0-6.55,2.9-6.55,7.58s2.45,7.4,6.55,7.4a5.89,5.89,0,0,0,5.63-3.56,1,1,0,0,0-.4-1.3l-2.23-1.29a1,1,0,0,0-.83-.08,1,1,0,0,0-.6.59,1.56,1.56,0,0,1-1.57,1.22c-1.11,0-1.67-.69-1.67-2.06v-2c0-1.37.56-2.07,1.67-2.07a1.25,1.25,0,0,1,1.39,1,1,1,0,0,0,1,.7,1,1,0,0,0,.46-.11l2.36-1.23a1,1,0,0,0,.44-1.29,5.62,5.62,0,0,0-5.6-3.53Z"/><rect class="j" x="14.72" y="24.14" width="156.02" height="170" rx="5.67"/><line class="k" x1="68.94" y1="107.36" x2="90.2" y2="107.36"/></svg>