<svg xmlns="http://www.w3.org/2000/svg" width="4mm" height="4mm" viewBox="0 0 11.34 11.34"><defs><style>.a{isolation:isolate;}.b{mix-blend-mode:multiply;}.c{fill:#1d1d1b;}.d{fill:none;stroke:#f3e600;stroke-miterlimit:10;}</style></defs><title>DPE_</title><g class="a"><g class="b"><path class="c" d="M9.66,5.35c-.4.26-1.23-.27-1.85-1.17S7,2.33,7.42,2.07s1.23.26,1.85,1.16.79,1.86.39,2.12"/><path class="c" d="M5.06,5.77a.2.2,0,1,1,.23.33L2.74,7.75a.21.21,0,0,1-.28-.06.19.19,0,0,1,.06-.28Zm2.35,0A.21.21,0,0,1,7.35,6L4.8,7.65a.22.22,0,0,1-.29-.05.2.2,0,0,1,.07-.28L7.12,5.67a.22.22,0,0,1,.29,0m1.72,0A3.06,3.06,0,0,1,7.5,4.43a2.88,2.88,0,0,1-.62-2L4.59,3.94,4.22,2.67A.22.22,0,0,0,4,2.5l-.41,0a.24.24,0,0,0-.21.26l.18,1.81L1.28,6.08c-.22.14-.32.27-.34.42a2.72,2.72,0,0,0,.5,1.91c.62.9,1.27,1.21,1.84,1a1.65,1.65,0,0,0,.21-.09Z"/></g><rect class="d" x="-2759.97" y="-287.42" width="4692.54" height="1133.5"/></g></svg>