<svg xmlns="http://www.w3.org/2000/svg" width="14mm" height="14mm" viewBox="0 0 39.69 39.69"><defs><style>.a{fill:#a1a1a1;}.b,.c{fill:none;stroke-miterlimit:10;}.b{stroke:#9d9d9c;stroke-width:0.35px;}.c{stroke:#f3e600;}</style></defs><title>DPE_</title><path class="a" d="M9.56,25.65H30V14.43L19.79,4.81,9.56,14.43Zm20.76.57H9v-12L19.79,4l10.84,10.2V25.94a.29.29,0,0,1-.31.28"/><path class="b" d="M9.56,25.65H30V14.43L19.79,4.81,9.56,14.43Zm20.76.57H9v-12L19.79,4l10.84,10.2V25.94A.29.29,0,0,1,30.32,26.22Z"/><path class="a" d="M12.43,25.2a.3.3,0,0,1-.31-.29V22a.31.31,0,0,1,.62,0v2.9a.3.3,0,0,1-.31.29"/><path class="b" d="M12.43,25.2a.3.3,0,0,1-.31-.29V22a.31.31,0,0,1,.62,0v2.9A.3.3,0,0,1,12.43,25.2Z"/><path class="a" d="M14,23.31a.3.3,0,0,1-.21-.09l-1.36-1.28-1.36,1.28a.32.32,0,0,1-.43,0,.28.28,0,0,1,0-.41l1.61-1.51h.36l1.61,1.51a.28.28,0,0,1,0,.41.31.31,0,0,1-.22.09"/><path class="b" d="M14,23.31a.3.3,0,0,1-.21-.09l-1.36-1.28-1.36,1.28a.32.32,0,0,1-.43,0,.28.28,0,0,1,0-.41l1.61-1.51h.36l1.61,1.51a.28.28,0,0,1,0,.41A.31.31,0,0,1,14,23.31Z"/><path class="a" d="M19.84,25.2a.29.29,0,0,1-.3-.29V22a.29.29,0,0,1,.3-.29.3.3,0,0,1,.31.29v2.9a.3.3,0,0,1-.31.29"/><path class="b" d="M19.84,25.2a.29.29,0,0,1-.3-.29V22a.29.29,0,0,1,.3-.29.3.3,0,0,1,.31.29v2.9A.3.3,0,0,1,19.84,25.2Z"/><path class="a" d="M21.42,23.31a.31.31,0,0,1-.22-.09l-1.36-1.28-1.35,1.28a.33.33,0,0,1-.44,0,.28.28,0,0,1,0-.41l1.61-1.51H20l1.61,1.51a.28.28,0,0,1,0,.41.3.3,0,0,1-.21.09"/><path class="b" d="M21.42,23.31a.31.31,0,0,1-.22-.09l-1.36-1.28-1.35,1.28a.33.33,0,0,1-.44,0,.28.28,0,0,1,0-.41l1.61-1.51H20l1.61,1.51a.28.28,0,0,1,0,.41A.3.3,0,0,1,21.42,23.31Z"/><path class="a" d="M27.26,25.2a.3.3,0,0,1-.31-.29V22a.31.31,0,0,1,.61,0v2.9a.3.3,0,0,1-.3.29"/><path class="b" d="M27.26,25.2a.3.3,0,0,1-.31-.29V22a.31.31,0,0,1,.61,0v2.9A.3.3,0,0,1,27.26,25.2Z"/><path class="a" d="M28.83,23.31a.31.31,0,0,1-.22-.09l-1.35-1.28L25.9,23.22a.33.33,0,0,1-.44,0,.28.28,0,0,1,0-.41l1.61-1.51h.37l1.61,1.51a.28.28,0,0,1,0,.41.31.31,0,0,1-.22.09"/><path class="b" d="M28.83,23.31a.31.31,0,0,1-.22-.09l-1.35-1.28L25.9,23.22a.33.33,0,0,1-.44,0,.28.28,0,0,1,0-.41l1.61-1.51h.37l1.61,1.51a.28.28,0,0,1,0,.41A.31.31,0,0,1,28.83,23.31Z"/><path class="a" d="M14.78,36.73H9.18a.29.29,0,1,1,0-.58h5.59a.67.67,0,0,0,.41-.14.46.46,0,0,0,.12-.35.45.45,0,0,0-.13-.35.66.66,0,0,0-.39-.13H10.34a1.31,1.31,0,0,1-.83-.3,1.07,1.07,0,0,1,0-1.53,1.2,1.2,0,0,1,.84-.3h4.49a.67.67,0,0,0,.41-.14.57.57,0,0,0,0-.7.66.66,0,0,0-.4-.14H10.34a1.25,1.25,0,0,1-.83-.3A1,1,0,0,1,9.19,31a1,1,0,0,1,.32-.77,1.32,1.32,0,0,1,.84-.3h4.49a.67.67,0,0,0,.41-.14.44.44,0,0,0,.12-.34.45.45,0,0,0-.12-.35.65.65,0,0,0-.4-.14H9.25a.29.29,0,1,1,0-.58h5.59a1.35,1.35,0,0,1,.84.3,1.1,1.1,0,0,1,0,1.53,1.34,1.34,0,0,1-.85.3H10.34a.67.67,0,0,0-.41.14.46.46,0,0,0-.12.35.48.48,0,0,0,.12.35.75.75,0,0,0,.4.14h4.51a1.39,1.39,0,0,1,.84.31,1.09,1.09,0,0,1,0,1.52,1.23,1.23,0,0,1-.85.3H10.34a.67.67,0,0,0-.41.14.48.48,0,0,0-.12.35.46.46,0,0,0,.12.35.66.66,0,0,0,.4.14h4.44a1.31,1.31,0,0,1,.83.3,1.1,1.1,0,0,1,0,1.53,1.3,1.3,0,0,1-.82.3"/><path class="b" d="M14.78,36.73H9.18a.29.29,0,1,1,0-.58h5.59a.67.67,0,0,0,.41-.14.46.46,0,0,0,.12-.35.45.45,0,0,0-.13-.35.66.66,0,0,0-.39-.13H10.34a1.31,1.31,0,0,1-.83-.3,1.07,1.07,0,0,1,0-1.53,1.2,1.2,0,0,1,.84-.3h4.49a.67.67,0,0,0,.41-.14.57.57,0,0,0,0-.7.66.66,0,0,0-.4-.14H10.34a1.25,1.25,0,0,1-.83-.3A1,1,0,0,1,9.19,31a1,1,0,0,1,.32-.77,1.32,1.32,0,0,1,.84-.3h4.49a.67.67,0,0,0,.41-.14.44.44,0,0,0,.12-.34.45.45,0,0,0-.12-.35.65.65,0,0,0-.4-.14H9.25a.29.29,0,1,1,0-.58h5.59a1.35,1.35,0,0,1,.84.3,1.1,1.1,0,0,1,0,1.53,1.34,1.34,0,0,1-.85.3H10.34a.67.67,0,0,0-.41.14.46.46,0,0,0-.12.35.48.48,0,0,0,.12.35.75.75,0,0,0,.4.14h4.51a1.39,1.39,0,0,1,.84.31,1.09,1.09,0,0,1,0,1.52,1.23,1.23,0,0,1-.85.3H10.34a.67.67,0,0,0-.41.14.48.48,0,0,0-.12.35.46.46,0,0,0,.12.35.66.66,0,0,0,.4.14h4.44a1.31,1.31,0,0,1,.83.3,1.1,1.1,0,0,1,0,1.53A1.3,1.3,0,0,1,14.78,36.73Z"/><path class="a" d="M22.19,36.73h-5.6a.29.29,0,1,1,0-.58h5.59a.67.67,0,0,0,.41-.14.46.46,0,0,0,.12-.35.48.48,0,0,0-.12-.35.68.68,0,0,0-.4-.13H17.75a1.31,1.31,0,0,1-.83-.3,1.1,1.1,0,0,1,0-1.53,1.2,1.2,0,0,1,.84-.3h4.49a.67.67,0,0,0,.41-.14.54.54,0,0,0,0-.7.66.66,0,0,0-.4-.14H17.75a1.25,1.25,0,0,1-.83-.3,1,1,0,0,1-.31-.76,1,1,0,0,1,.31-.77,1.32,1.32,0,0,1,.84-.3h4.49a.59.59,0,0,0,.41-.14.41.41,0,0,0,.13-.34.43.43,0,0,0-.13-.35.65.65,0,0,0-.4-.14h-5.6a.29.29,0,1,1,0-.58h5.59a1.32,1.32,0,0,1,.84.3,1.1,1.1,0,0,1,0,1.53,1.32,1.32,0,0,1-.84.3h-4.5a.67.67,0,0,0-.41.14.46.46,0,0,0-.12.35.48.48,0,0,0,.12.35.63.63,0,0,0,.41.13h4.5a1.35,1.35,0,0,1,.84.31,1.09,1.09,0,0,1,0,1.52,1.2,1.2,0,0,1-.84.3h-4.5a.67.67,0,0,0-.41.14.48.48,0,0,0-.12.35.43.43,0,0,0,.13.35.63.63,0,0,0,.39.14h4.44a1.31,1.31,0,0,1,.83.3,1.07,1.07,0,0,1,0,1.53,1.3,1.3,0,0,1-.82.3"/><path class="b" d="M22.19,36.73h-5.6a.29.29,0,1,1,0-.58h5.59a.67.67,0,0,0,.41-.14.46.46,0,0,0,.12-.35.48.48,0,0,0-.12-.35.68.68,0,0,0-.4-.13H17.75a1.31,1.31,0,0,1-.83-.3,1.1,1.1,0,0,1,0-1.53,1.2,1.2,0,0,1,.84-.3h4.49a.67.67,0,0,0,.41-.14.54.54,0,0,0,0-.7.66.66,0,0,0-.4-.14H17.75a1.25,1.25,0,0,1-.83-.3,1,1,0,0,1-.31-.76,1,1,0,0,1,.31-.77,1.32,1.32,0,0,1,.84-.3h4.49a.59.59,0,0,0,.41-.14.41.41,0,0,0,.13-.34.43.43,0,0,0-.13-.35.65.65,0,0,0-.4-.14h-5.6a.29.29,0,1,1,0-.58h5.59a1.32,1.32,0,0,1,.84.3,1.1,1.1,0,0,1,0,1.53,1.32,1.32,0,0,1-.84.3h-4.5a.67.67,0,0,0-.41.14.46.46,0,0,0-.12.35.48.48,0,0,0,.12.35.63.63,0,0,0,.41.13h4.5a1.35,1.35,0,0,1,.84.31,1.09,1.09,0,0,1,0,1.52,1.2,1.2,0,0,1-.84.3h-4.5a.67.67,0,0,0-.41.14.48.48,0,0,0-.12.35.43.43,0,0,0,.13.35.63.63,0,0,0,.39.14h4.44a1.31,1.31,0,0,1,.83.3,1.07,1.07,0,0,1,0,1.53A1.3,1.3,0,0,1,22.19,36.73Z"/><path class="a" d="M29.6,36.73H24a.29.29,0,1,1,0-.58h5.59A.67.67,0,0,0,30,36a.43.43,0,0,0,.13-.35.48.48,0,0,0-.13-.35.7.7,0,0,0-.4-.13H25.17a1.32,1.32,0,0,1-.84-.3,1.1,1.1,0,0,1,0-1.53,1.26,1.26,0,0,1,.84-.3h4.5a.7.7,0,0,0,.41-.14.57.57,0,0,0,0-.7.69.69,0,0,0-.41-.14h-4.5a1.26,1.26,0,0,1-.84-.3A1,1,0,0,1,24,31a1,1,0,0,1,.31-.77,1.32,1.32,0,0,1,.84-.3h4.5a.61.61,0,0,0,.41-.14.44.44,0,0,0,.12-.34.46.46,0,0,0-.12-.35.67.67,0,0,0-.41-.14H24.08a.29.29,0,1,1,0-.58h5.59a1.31,1.31,0,0,1,.83.3,1.1,1.1,0,0,1,0,1.53,1.32,1.32,0,0,1-.84.3H25.17a.67.67,0,0,0-.41.14.43.43,0,0,0-.13.35.45.45,0,0,0,.13.35.68.68,0,0,0,.4.13h4.51a1.35,1.35,0,0,1,.83.31,1.09,1.09,0,0,1,0,1.52,1.2,1.2,0,0,1-.84.3H25.17a.67.67,0,0,0-.41.14.45.45,0,0,0-.13.35.43.43,0,0,0,.13.35.66.66,0,0,0,.4.14h4.43a1.33,1.33,0,0,1,.84.3,1.1,1.1,0,0,1,0,1.53,1.31,1.31,0,0,1-.83.3"/><path class="b" d="M29.6,36.73H24a.29.29,0,1,1,0-.58h5.59A.67.67,0,0,0,30,36a.43.43,0,0,0,.13-.35.48.48,0,0,0-.13-.35.7.7,0,0,0-.4-.13H25.17a1.32,1.32,0,0,1-.84-.3,1.1,1.1,0,0,1,0-1.53,1.26,1.26,0,0,1,.84-.3h4.5a.7.7,0,0,0,.41-.14.57.57,0,0,0,0-.7.69.69,0,0,0-.41-.14h-4.5a1.26,1.26,0,0,1-.84-.3A1,1,0,0,1,24,31a1,1,0,0,1,.31-.77,1.32,1.32,0,0,1,.84-.3h4.5a.61.61,0,0,0,.41-.14.44.44,0,0,0,.12-.34.46.46,0,0,0-.12-.35.67.67,0,0,0-.41-.14H24.08a.29.29,0,1,1,0-.58h5.59a1.31,1.31,0,0,1,.83.3,1.1,1.1,0,0,1,0,1.53,1.32,1.32,0,0,1-.84.3H25.17a.67.67,0,0,0-.41.14.43.43,0,0,0-.13.35.45.45,0,0,0,.13.35.68.68,0,0,0,.4.13h4.51a1.35,1.35,0,0,1,.83.31,1.09,1.09,0,0,1,0,1.52,1.2,1.2,0,0,1-.84.3H25.17a.67.67,0,0,0-.41.14.45.45,0,0,0-.13.35.43.43,0,0,0,.13.35.66.66,0,0,0,.4.14h4.43a1.33,1.33,0,0,1,.84.3,1.1,1.1,0,0,1,0,1.53A1.31,1.31,0,0,1,29.6,36.73Z"/><rect class="c" x="-1906.03" y="-379.28" width="4692.54" height="1133.5"/></svg>