<svg xmlns="http://www.w3.org/2000/svg" width="116.75mm" height="91.25mm" viewBox="0 0 330.95 258.66"><defs><style>.a{fill:#00a06d;}.b{fill:#fff;}.c{fill:#d7221f;}.d{fill:#1d1d1b;}.e{fill:#52b153;}.f{fill:#a5cc74;}.g{fill:#f4e70f;}.h{fill:#f0b40f;}.i{fill:#eb8235;}.j,.l{fill:none;stroke:#1d1d1b;stroke-width:1.42px;}.j{stroke-miterlimit:10;}.k{fill:#e30613;}</style></defs><title>DPE_</title><polygon class="a" points="156.72 45.31 110.73 45.31 110.73 21.84 156.72 21.84 164.66 33.57 156.72 45.31"/><path class="b" d="M126.52,40.83l-1-3.32h-4.66l-1,3.32h-3.09l4.61-14h3.76l4.54,14Zm-3.3-11.2h-.1l-1.54,5.3h3.2Z"/><polygon class="c" points="111.44 226.68 111.44 182.75 266.45 182.75 281.42 204.72 266.45 226.68 111.44 226.68"/><path class="d" d="M266.08,183.46l14.48,21.26L266.08,226H112.14V183.46H266.08m.74-1.42H110.73v45.35H266.82l15.46-22.67L266.82,182Z"/><polygon class="e" points="175.11 72.01 110.73 72.01 110.73 48.54 175.11 48.54 183.05 60.27 175.11 72.01"/><path class="b" d="M118.1,53.56h6.78a3.38,3.38,0,0,1,3.68,3.59c0,2.14-1.18,2.94-2.6,3v.12a3.09,3.09,0,0,1,3.14,3.28,3.76,3.76,0,0,1-3.6,4h-7.4Zm3,5.73h3A1.18,1.18,0,0,0,125.44,58v-.6a1.18,1.18,0,0,0-1.28-1.28h-3Zm0,5.68h3.5a1.18,1.18,0,0,0,1.3-1.26V63a1.18,1.18,0,0,0-1.3-1.26h-3.5Z"/><polygon class="f" points="193.35 98.71 110.73 98.71 110.73 75.24 193.35 75.24 201.3 86.97 193.35 98.71"/><path class="b" d="M117.72,86.87c0-4.72,2.42-7.32,6.18-7.32a5.17,5.17,0,0,1,5.22,3.28l-2.62,1.36a2.47,2.47,0,0,0-2.6-1.94c-1.78,0-3,1.2-3,3.4v2.24c0,2.2,1.18,3.4,3,3.4a2.87,2.87,0,0,0,2.78-2.08l2.48,1.44A5.46,5.46,0,0,1,123.9,94C120.14,94,117.72,91.59,117.72,86.87Z"/><polygon class="g" points="211.6 125.41 110.73 125.41 110.73 101.94 211.6 101.94 219.55 113.67 211.6 125.41"/><path class="b" d="M117.8,106.5h5.26c3.7,0,6.14,2.34,6.14,7s-2.44,7-6.14,7H117.8Zm5.26,11.26c1.8,0,2.92-1,2.92-3.2V112.4c0-2.22-1.12-3.2-2.92-3.2h-2.22v8.56Z"/><polygon class="h" points="229.88 152.11 110.73 152.11 110.73 128.64 229.88 128.64 237.82 140.38 229.88 152.11"/><path class="b" d="M118.7,147.33v-14h9.5v2.7h-6.46v2.86h5.54v2.68h-5.54v3h6.46v2.7Z"/><polygon class="i" points="248.06 178.81 110.73 178.81 110.73 155.34 248.06 155.34 256 167.08 248.06 178.81"/><path class="b" d="M118.92,173.78v-14h9.26v2.7H122v2.86h5.3v2.68H122v5.72Z"/><path class="j" d="M289.75,134.24a24.88,24.88,0,1,0-24.88-24.88A24.88,24.88,0,0,0,289.75,134.24Z"/><path class="k" d="M282.25,118.56a1,1,0,0,1-.44-.1.92.92,0,0,1-.4-1.25,10.15,10.15,0,0,1,16.92,0,.92.92,0,0,1-.4,1.25,1,1,0,0,1-1.27-.39,8.27,8.27,0,0,0-13.58,0,.93.93,0,0,1-.83.49"/><path class="k" d="M283.86,106.5a1.48,1.48,0,1,1-1.51,1.48,1.5,1.5,0,0,1,1.51-1.48"/><path class="k" d="M295.91,106.5A1.48,1.48,0,1,1,294.4,108a1.49,1.49,0,0,1,1.51-1.48"/><polygon class="k" points="277.07 111.01 277.07 108.85 272.5 108.85 272.5 107.78 269.67 109.93 272.5 112.08 272.5 111.01 277.07 111.01"/><polygon class="k" points="277.07 116.7 277.07 114.54 272.5 114.54 272.5 113.47 269.67 115.62 272.5 117.77 272.5 116.7 277.07 116.7"/><polygon class="k" points="302.42 111.01 302.42 108.85 306.99 108.85 306.99 107.78 309.82 109.93 306.99 112.08 306.99 111.01 302.42 111.01"/><polygon class="k" points="302.42 116.7 302.42 114.54 306.99 114.54 306.99 113.47 309.82 115.62 306.99 117.77 306.99 116.7 302.42 116.7"/><polygon class="k" points="291.68 121.17 293.88 121.17 293.88 125.63 294.98 125.63 292.78 128.4 290.58 125.63 291.68 125.63 291.68 121.17"/><polygon class="k" points="285.86 121.17 288.06 121.17 288.06 125.63 289.16 125.63 286.96 128.4 284.76 125.63 285.86 125.63 285.86 121.17"/><polygon class="k" points="295.2 97.69 293.64 96.17 296.87 93.01 296.1 92.25 299.66 91.81 299.21 95.29 298.43 94.53 295.2 97.69"/><polygon class="k" points="299.32 101.71 297.76 100.19 300.99 97.03 300.22 96.28 303.77 95.84 303.32 99.31 302.55 98.56 299.32 101.71"/><polygon class="k" points="281.44 100.19 279.88 101.71 276.65 98.56 275.88 99.31 275.43 95.84 278.99 96.28 278.21 97.03 281.44 100.19"/><polygon class="k" points="285.56 96.17 284 97.69 280.77 94.53 279.99 95.29 279.55 91.81 283.1 92.25 282.33 93.01 285.56 96.17"/><polygon class="k" points="281.95 96.43 280.15 98.19 281.1 99.11 282.9 97.35 281.95 96.43"/><rect class="k" x="288.6" y="122.63" width="2.55" height="1.31"/><rect class="k" x="304.36" y="111.53" width="1.34" height="2.49"/><polygon class="k" points="298.27 98.95 299.22 98.03 297.42 96.27 296.47 97.19 298.27 98.95"/><path class="k" d="M300.59,101.21l3.77,3.69v3.43h1.33v-3.7a.68.68,0,0,0-.19-.47l-4-3.87Z"/><path class="k" d="M285.21,95.09l4.56-4.45,4.39,4.29.94-.93-4.86-4.75a.68.68,0,0,0-.94,0l-5,4.92Z"/><path class="k" d="M304.36,117.22v5.41h-9.94v1.31H305a.65.65,0,0,0,.66-.65v-6.07Z"/><path class="k" d="M285.32,122.63H275.18v-5.41h-1.34v6.07a.66.66,0,0,0,.67.65h10.81Z"/><path class="k" d="M275.18,108.33V104.9l3.6-3.52-.94-.93-3.8,3.71a.65.65,0,0,0-.2.47v3.7Z"/><rect class="k" x="273.84" y="111.53" width="1.34" height="2.49"/><path class="l" d="M289.71,134.28v64.77s0,5.67-5.67,5.67h-3.39"/><line class="l" x1="65.13" y1="185.94" x2="65.13" y2="223.49"/><path class="d" d="M110.72,183.46V226H15.88a2.39,2.39,0,0,1-2.4-2.4V185.86a2.4,2.4,0,0,1,2.4-2.4h94.84m1.42-1.42H15.88a3.82,3.82,0,0,0-3.82,3.82v37.71a3.82,3.82,0,0,0,3.82,3.82h96.26V182Z"/><path class="b" d="M130.54,220.81c-7.73,0-12.72-6.18-12.72-15.75,0-9.87,5.36-16,14-16,5.52,0,9.65,2.49,11.94,7.21a.71.71,0,0,1-.28.92l-5.21,3a.65.65,0,0,1-.36.1.93.93,0,0,1-.23,0,.73.73,0,0,1-.43-.41,5.36,5.36,0,0,0-5.43-3.67c-3.79,0-5.8,2.23-5.8,6.43v4.71c0,4.21,2,6.43,5.8,6.43,2.33,0,5-1,5-3.66v-.76H132.1a.71.71,0,0,1-.71-.71v-5.34a.7.7,0,0,1,.71-.7h11.55a.7.7,0,0,1,.71.7V219.6a.7.7,0,0,1-.71.7h-5.38a.7.7,0,0,1-.71-.7v-1.7C136.15,219.73,133.65,220.81,130.54,220.81Z"/><path class="d" d="M131.8,189.77c5.21,0,9.12,2.31,11.3,6.81l-5.21,3a6.06,6.06,0,0,0-6.09-4.12c-4,0-6.51,2.27-6.51,7.14v4.71c0,4.87,2.56,7.14,6.51,7.14,3.2,0,5.76-1.51,5.76-4.37v-1.47H132.1v-5.33h11.55V219.6h-5.38v-4.67h-.21c-.42,2.94-3.11,5.17-7.52,5.17-6.72,0-12-5.21-12-15s5.33-15.29,13.27-15.29m0-1.42c-9.06,0-14.69,6.41-14.69,16.71,0,10,5.27,16.46,13.43,16.46a10.19,10.19,0,0,0,6.31-1.91,1.42,1.42,0,0,0,1.42,1.4h5.38a1.42,1.42,0,0,0,1.42-1.41V203.26a1.42,1.42,0,0,0-1.42-1.42H132.1a1.41,1.41,0,0,0-1.42,1.42v5.33A1.42,1.42,0,0,0,132.1,210h4v.05c0,2.81-3.61,2.95-4.34,2.95-3.42,0-5.09-1.87-5.09-5.72v-4.71c0-3.85,1.67-5.72,5.09-5.72a4.66,4.66,0,0,1,4.77,3.21,1.42,1.42,0,0,0,.85.83,1.6,1.6,0,0,0,.47.08,1.48,1.48,0,0,0,.71-.19l5.21-3a1.43,1.43,0,0,0,.57-1.85c-2.42-5-6.77-7.61-12.58-7.61Z"/></svg>