<svg xmlns="http://www.w3.org/2000/svg" width="5mm" height="5mm" viewBox="0 0 14.17 14.17"><defs><style>.a{fill:none;stroke:#f3e600;stroke-miterlimit:10;}.b{fill:#3d428c;}</style></defs><title>DPE_</title><rect class="a" x="-4494.65" y="-232.74" width="4692.54" height="1133.5"/><path class="b" d="M7.54,3.36a3,3,0,0,0-3,3A3,3,0,0,0,5,8.05l-2,2a.24.24,0,0,0,0,.35l.59.59a.23.23,0,0,0,.17.07A.24.24,0,0,0,3.91,11L6,9A3,3,0,1,0,7.54,3.36Zm0,5.57a2.54,2.54,0,1,1,2.54-2.54A2.54,2.54,0,0,1,7.54,8.93Z"/></svg>