<svg xmlns="http://www.w3.org/2000/svg" width="8mm" height="8mm" viewBox="0 0 22.68 22.68"><defs><style>.a{isolation:isolate;}.b{mix-blend-mode:multiply;}.c{fill:#1d1d1b;}.d{fill:none;stroke:#f3e600;stroke-miterlimit:10;}</style></defs><title>DPE_</title><g class="a"><g class="b"><path class="c" d="M5.66,7.84H13.5a1.35,1.35,0,0,1,1.35,1.35v1.62a.28.28,0,0,0,.27.27h1.63a.27.27,0,0,0,.27-.26v-3a2.17,2.17,0,0,0-2.17-2.16H5.66Zm11.09,4.33H15.12a1.36,1.36,0,0,1-1.35-1.36V9.19a.27.27,0,0,0-.27-.27H5.12a.54.54,0,0,1-.54-.54V5.13a.54.54,0,0,1,.54-.54h9.73A3.26,3.26,0,0,1,18.1,7.84v3a1.36,1.36,0,0,1-1.35,1.35"/><path class="c" d="M11.07,5.68a.55.55,0,0,1-.54-.55V2.43a.54.54,0,0,1,1.08,0v2.7a.55.55,0,0,1-.54.55"/><path class="c" d="M13.77,3H8.36a.54.54,0,1,1,0-1.08h5.41a.54.54,0,0,1,0,1.08"/><path class="c" d="M15.52,16.37a5.76,5.76,0,0,0-1.1,1.94,1.1,1.1,0,0,0,2.2,0,6,6,0,0,0-1.1-1.94m0,4h0a2.06,2.06,0,0,1-2.06-2.06c0-.83,1.18-2.39,1.68-3a.51.51,0,0,1,.38-.18h0a.47.47,0,0,1,.37.18c.4.5,1.69,2.18,1.69,3a2.06,2.06,0,0,1-2.06,2.06"/></g><rect class="d" x="-2736.12" y="-229.89" width="4692.54" height="1133.5"/></g></svg>