<svg xmlns="http://www.w3.org/2000/svg" width="8mm" height="8mm" viewBox="0 0 22.68 22.68"><defs><style>.a{isolation:isolate;}.b{mix-blend-mode:multiply;}.c{fill:#1d1d1b;}.d{fill:none;stroke:#f3e600;stroke-miterlimit:10;}</style></defs><title>DPE_</title><g class="a"><g class="b"><path class="c" d="M18.08,21.28a1.83,1.83,0,0,1-1.33-.57,1.79,1.79,0,0,1-1.32.57,1.83,1.83,0,0,1-1.33-.57,1.79,1.79,0,0,1-1.32.57,1.83,1.83,0,0,1-1.33-.57,1.79,1.79,0,0,1-1.32.57,1.83,1.83,0,0,1-1.33-.57,1.79,1.79,0,0,1-1.32.57,1.83,1.83,0,0,1-1.33-.57A1.8,1.8,0,0,1,3,19.51v0H1.8A.48.48,0,0,1,1.33,19v-.82a.47.47,0,0,1,.47-.48H3V3.78A1.79,1.79,0,0,1,4.83,2a1.77,1.77,0,0,1,1.32.58A1.8,1.8,0,0,1,7.48,2a1.77,1.77,0,0,1,1.32.58A1.8,1.8,0,0,1,10.13,2a1.77,1.77,0,0,1,1.32.58A1.8,1.8,0,0,1,12.78,2a1.77,1.77,0,0,1,1.32.58A1.8,1.8,0,0,1,15.43,2a1.77,1.77,0,0,1,1.32.58A1.8,1.8,0,0,1,18.08,2a.49.49,0,0,1,.31.11,1.68,1.68,0,0,1,1.49,1.67v.06h1.23a.47.47,0,0,1,.47.47V5.52a.47.47,0,0,1-.47.47H19.88V19.51A1.79,1.79,0,0,1,18.08,21.28ZM17.85,3a.84.84,0,0,0-.62.81V19.51a.85.85,0,0,0,1.7,0V3.78A.78.78,0,0,0,18.08,3,.46.46,0,0,1,17.85,3Zm-2.42,0a.85.85,0,0,0-.85.84V19.51a.85.85,0,0,0,1.7,0V3.78A.85.85,0,0,0,15.43,2.94Zm-2.65,0a.85.85,0,0,0-.85.84V19.51a.85.85,0,0,0,1.7,0V3.78A.85.85,0,0,0,12.78,2.94Zm-2.65,0a.85.85,0,0,0-.85.84V19.51a.85.85,0,0,0,1.7,0V3.78A.85.85,0,0,0,10.13,2.94Zm-2.65,0a.85.85,0,0,0-.85.84V19.51a.85.85,0,0,0,1.7,0V3.78A.85.85,0,0,0,7.48,2.94ZM4,19v.52a.85.85,0,0,0,1.7,0V3.78a.85.85,0,0,0-1.7,0ZM19.88,5.05h.76V4.78h-.76Z"/></g><rect class="d" x="-3264.38" y="-349.02" width="4692.54" height="1133.5"/></g></svg>