<svg xmlns="http://www.w3.org/2000/svg" width="27mm" height="27mm" viewBox="0 0 76.54 76.54"><defs><style>.a,.c,.e,.f{fill:none;}.a,.e{stroke:#2caf85;}.a{stroke-linecap:round;stroke-linejoin:round;stroke-width:1.42px;}.b{fill:#fff;}.c{stroke:#fff;stroke-width:3px;}.c,.e,.f{stroke-miterlimit:10;}.d{fill:#2caf85;}.e{stroke-width:2px;}.f{stroke:#f3e600;}</style></defs><title>DPE_</title><path class="a" d="M4,51.39c2.44,0,0,4.19,2.58,4.19s-.14-4.19,2.49-4.19H9c2.54,0-.19,4.12,2.45,4.19s.09-4.19,2.49-4.19,0,4.19,2.53,4.19-.06-4.19,2.45-4.19,0,4.19,2.57,4.19-.13-4.19,2.49-4.19h0c2.54,0-.19,4.12,2.45,4.19s.09-4.19,2.49-4.19,0,4.19,2.53,4.19-.06-4.19,2.45-4.19,0,4.19,2.57,4.19-.16-4.25,2.46-4.25-.18,4.12,2.45,4.19.09-4.19,2.49-4.19,0,4.19,2.54,4.19-.07-4.19,2.44-4.19,0,4.19,2.58,4.19-.14-4.19,2.49-4.19h0c2.54,0-.19,4.12,2.45,4.19s.09-4.19,2.49-4.19,0,4.19,2.53,4.19-.06-4.19,2.45-4.19,0,4.19,2.57,4.19-.13-4.19,2.49-4.19h0c2.54,0-.19,4.12,2.45,4.19"/><path class="a" d="M49,50.39V45.55M29,51.25v-5.7m25.21-36-10,9.79L38,25.47V45.38H70.36V25.47Zm-32.31,0-10,9.79L5.68,25.47V45.38H38V25.47Z"/><path class="b" d="M14.21,74A11.51,11.51,0,1,0,2.69,62.48,11.51,11.51,0,0,0,14.21,74"/><path class="c" d="M14.21,74A11.51,11.51,0,1,0,2.69,62.48,11.51,11.51,0,0,0,14.21,74Z"/><path class="b" d="M14.21,73.86A11.38,11.38,0,1,0,2.82,62.48,11.38,11.38,0,0,0,14.21,73.86"/><path class="d" d="M14.21,52.52a10,10,0,1,1-10,10,10,10,0,0,1,10-10m0-1.42A11.38,11.38,0,1,0,25.59,62.48,11.38,11.38,0,0,0,14.21,51.1Z"/><polyline class="b" points="8.71 62.55 12.56 66.48 20.19 58.69"/><polyline class="e" points="8.71 62.55 12.56 66.48 20.19 58.69"/><rect class="f" x="-2302.91" y="-181.73" width="4692.54" height="1133.5"/></svg>