<svg xmlns="http://www.w3.org/2000/svg" width="90.34mm" height="31.74mm" viewBox="0 0 256.08 89.97"><defs><style>.a{fill:#fff;}.b{fill:none;stroke:#f3e600;stroke-miterlimit:10;}.c{fill:#ededed;}.d,.f{fill:#e52322;}.d{opacity:0.25;}.e{fill:#b3b3b3;}</style></defs><title>DPE_</title><rect class="a" width="256.08" height="89.97"/><rect class="b" x="-1326.76" y="-183.31" width="4692.54" height="1133.5"/><rect class="c" x="193.11" y="4.25" width="58.7" height="67.3"/><rect class="c" x="130.16" y="4.25" width="58.7" height="67.3"/><rect class="c" x="67.2" y="4.25" width="58.7" height="67.3"/><rect class="d" x="4.25" y="4.25" width="58.7" height="67.3"/><rect class="e" x="193.11" y="71.55" width="58.7" height="14.17"/><rect class="e" x="130.16" y="71.55" width="58.7" height="14.17"/><rect class="e" x="67.2" y="71.55" width="58.7" height="14.17"/><rect class="f" x="4.25" y="71.55" width="58.7" height="14.17"/><path class="f" d="M33.6,15.22,54,35.62V61.17H13.2V35.62l7.85-7.85L33.6,15.22m0-2-1,1L20.05,26.77l-7.86,7.85-.41.42V62.59H55.42V35L55,34.62,34.6,14.22l-1-1Z"/><path class="f" d="M51.69,58.85H15.51V36.59L33.6,18.5,51.69,36.59ZM16.93,57.43H50.27V37.17L33.6,20.5,16.93,37.17Z"/></svg>