<svg xmlns="http://www.w3.org/2000/svg" width="5mm" height="5mm" viewBox="0 0 14.17 14.17"><defs><style>.a{fill:none;stroke:#f3e600;stroke-miterlimit:10;}.b{fill:#3d428c;}</style></defs><title>DPE_</title><rect class="a" x="-4524.07" y="-232.74" width="4692.54" height="1133.5"/><path class="b" d="M10.79,5.87a2.62,2.62,0,0,1-1.93,1A3.76,3.76,0,0,1,7.23,6.4,3.36,3.36,0,0,0,5.79,6a2.28,2.28,0,0,0-1.5.75l-.44-.53a2.7,2.7,0,0,1,1.94-1,3.72,3.72,0,0,1,1.62.46,3.32,3.32,0,0,0,1.44.43,2.27,2.27,0,0,0,1.47-.74Zm.05,2.51a2.63,2.63,0,0,1-1.94,1,3.72,3.72,0,0,1-1.61-.46,3.61,3.61,0,0,0-1.46-.43,2.24,2.24,0,0,0-1.49.75l-.43-.55a2.66,2.66,0,0,1,1.93-1,3.59,3.59,0,0,1,1.62.46,3.55,3.55,0,0,0,1.44.43,2.09,2.09,0,0,0,1.48-.75Z"/></svg>