<svg xmlns="http://www.w3.org/2000/svg" width="116.75mm" height="91.25mm" viewBox="0 0 330.95 258.66"><defs><style>.a{fill:#d7221f;}.b{fill:#fff;}.c{fill:#00a06d;}.d{fill:#1d1d1b;}.e{fill:#52b153;}.f{fill:#a5cc74;}.g{fill:#f4e70f;}.h{fill:#f0b40f;}.i{fill:#eb8235;}.j,.k{fill:none;}.j{stroke:#9d9d9c;stroke-width:1.5px;}.k{stroke:#1d1d1b;stroke-width:1.42px;}</style></defs><title>DPE_</title><polygon class="a" points="282.52 227.66 110.73 227.66 110.73 204.19 282.52 204.19 290.57 215.92 282.52 227.66"/><path class="b" d="M126.44,220.73h-.1c-.2,1.4-1.48,2.46-3.58,2.46-3.2,0-5.72-2.48-5.72-7.16s2.54-7.28,6.32-7.28a5.59,5.59,0,0,1,5.38,3.24l-2.48,1.42a2.89,2.89,0,0,0-2.9-2c-1.88,0-3.1,1.08-3.1,3.4v2.24c0,2.32,1.22,3.4,3.1,3.4,1.52,0,2.74-.72,2.74-2.08v-.7h-2.6v-2.54H129V223h-2.56Z"/><polygon class="c" points="111.44 66.86 111.44 22.93 156.56 22.93 171.53 44.9 156.56 66.86 111.44 66.86"/><path class="d" d="M156.19,23.64l14.49,21.25L156.19,66.15h-44V23.64h44m.75-1.42H110.73V67.57h46.21l15.45-22.68L156.94,22.22Z"/><polygon class="e" points="191.69 94.25 110.73 94.25 110.73 70.78 191.69 70.78 199.63 82.52 191.69 94.25"/><path class="b" d="M118.1,75.81h6.78a3.38,3.38,0,0,1,3.68,3.58c0,2.14-1.18,2.94-2.6,3v.12a3.09,3.09,0,0,1,3.14,3.28,3.76,3.76,0,0,1-3.6,4h-7.4Zm3,5.72h3a1.18,1.18,0,0,0,1.28-1.28v-.6a1.18,1.18,0,0,0-1.28-1.28h-3Zm0,5.68h3.5a1.18,1.18,0,0,0,1.3-1.26v-.68a1.18,1.18,0,0,0-1.3-1.26h-3.5Z"/><polygon class="f" points="209.8 120.93 110.73 120.93 110.73 97.46 209.8 97.46 217.75 109.2 209.8 120.93"/><path class="b" d="M117.72,109.09c0-4.72,2.42-7.32,6.18-7.32a5.17,5.17,0,0,1,5.22,3.28l-2.62,1.36a2.47,2.47,0,0,0-2.6-1.94c-1.78,0-3,1.2-3,3.4v2.24c0,2.2,1.18,3.4,3,3.4a2.87,2.87,0,0,0,2.78-2.08l2.48,1.44a5.46,5.46,0,0,1-5.26,3.34C120.14,116.21,117.72,113.81,117.72,109.09Z"/><polygon class="g" points="227.94 147.61 110.73 147.61 110.73 124.14 227.94 124.14 235.88 135.88 227.94 147.61"/><path class="b" d="M117.8,128.7h5.26c3.7,0,6.14,2.34,6.14,7s-2.44,7-6.14,7H117.8ZM123.06,140c1.8,0,2.92-1,2.92-3.2V134.6c0-2.22-1.12-3.2-2.92-3.2h-2.22V140Z"/><polygon class="h" points="245.94 174.29 110.73 174.29 110.73 150.82 245.94 150.82 253.88 162.56 245.94 174.29"/><path class="b" d="M118.7,169.52v-14h9.5v2.7h-6.46v2.86h5.54v2.68h-5.54v3h6.46v2.7Z"/><polygon class="i" points="264.2 200.98 110.73 200.98 110.73 177.5 264.2 177.5 272.14 189.24 264.2 200.98"/><path class="b" d="M118.92,195.94V182h9.26v2.7H122v2.86h5.3v2.68H122v5.72Z"/><line class="j" x1="106.07" y1="177.5" x2="106.07" y2="227.66"/><line class="k" x1="65.13" y1="26.12" x2="65.13" y2="63.67"/><path class="d" d="M110.72,23.64V66.15H15.88a2.4,2.4,0,0,1-2.4-2.4V26a2.39,2.39,0,0,1,2.4-2.4h94.84m1.42-1.42H15.88A3.82,3.82,0,0,0,12.06,26V63.75a3.82,3.82,0,0,0,3.82,3.82h96.26V22.22Z"/><path class="b" d="M139,60.36a.7.7,0,0,1-.68-.5l-2-6.47h-8.73l-2,6.47a.71.71,0,0,1-.68.5h-6.47a.73.73,0,0,1-.58-.29.7.7,0,0,1-.09-.64l9.66-29.32a.71.71,0,0,1,.67-.49h7.9a.71.71,0,0,1,.67.49l9.54,29.32a.71.71,0,0,1-.68.93Zm-4.61-13.81L132,38.29l-2.4,8.26Z"/><path class="d" d="M136.14,30.33l9.53,29.32H139l-2.1-7h-9.79l-2.1,7h-6.47l9.66-29.32h7.9m-7.48,16.93h6.72l-3.27-11.13h-.22l-3.23,11.13m7.48-18.35h-7.9a1.44,1.44,0,0,0-1.35,1l-9.66,29.32a1.42,1.42,0,0,0,1.35,1.86h6.47a1.41,1.41,0,0,0,1.35-1l1.8-6h7.68l1.8,6a1.42,1.42,0,0,0,1.36,1h6.63A1.42,1.42,0,0,0,147,59.21l-9.53-29.32a1.43,1.43,0,0,0-1.35-1Zm-5.59,16.93,1.46-5,1.48,5Z"/></svg>