<svg xmlns="http://www.w3.org/2000/svg" width="23mm" height="23mm" viewBox="0 0 65.2 65.2"><defs><style>.a,.d,.e,.f{fill:none;}.a,.e{stroke:#2caf85;}.a{stroke-linecap:round;stroke-linejoin:round;stroke-width:1.42px;}.b{fill:#2caf85;}.c{fill:#fff;}.d{stroke:#fff;stroke-width:3px;}.d,.e,.f{stroke-miterlimit:10;}.e{stroke-width:2px;}.f{stroke:#f3e600;}</style></defs><title>DPE_</title><path class="a" d="M49.93,50.37H15.17V29.11l7-7,.17-.18L32.55,11.73,49.93,29.11ZM32.55,7.45,20,20l-7.85,7.86V53.4H53V27.86Z"/><polygon class="b" points="11.85 27.72 14.7 29.59 34.63 9.26 32.47 7.11 11.85 27.72"/><polygon class="b" points="32.13 7.11 29.98 9.26 49.93 29.47 52.75 27.72 32.13 7.11 32.13 7.11"/><path class="c" d="M14.21,59.54A11.52,11.52,0,1,0,2.69,48,11.51,11.51,0,0,0,14.21,59.54"/><path class="d" d="M14.21,59.54A11.52,11.52,0,1,0,2.69,48,11.51,11.51,0,0,0,14.21,59.54Z"/><path class="c" d="M14.21,59.4A11.38,11.38,0,1,0,2.82,48,11.38,11.38,0,0,0,14.21,59.4"/><path class="b" d="M14.21,38.06a10,10,0,1,1-10,10,10,10,0,0,1,10-10m0-1.42A11.38,11.38,0,1,0,25.59,48,11.39,11.39,0,0,0,14.21,36.64Z"/><polyline class="c" points="8.71 48.1 12.56 52.02 20.19 44.24"/><polyline class="e" points="8.71 48.1 12.56 52.02 20.19 44.24"/><rect class="f" x="-1899.6" y="-460.92" width="4692.54" height="1133.5"/></svg>