<svg xmlns="http://www.w3.org/2000/svg" width="90.52mm" height="32.13mm" viewBox="0 0 256.59 91.09"><defs><style>.a{fill:#fff;}.b{fill:#ededed;}.c{fill:#dbede3;}.d{fill:#2caf85;}.e{fill:none;stroke:#f3e600;stroke-miterlimit:10;}.f{fill:#b3b3b3;}</style></defs><title>DPE_</title><rect class="a" width="256.08" height="91.09"/><rect class="b" x="88.36" y="4.25" width="79.86" height="68.41"/><rect class="b" x="4.25" y="4.25" width="79.86" height="68.41"/><rect class="c" x="172.48" y="4.25" width="79.86" height="68.41"/><path class="d" d="M212.41,18.46a20,20,0,1,0,20,20,20,20,0,0,0-20-20m0,2.78a17.22,17.22,0,1,1-17.22,17.22,17.24,17.24,0,0,1,17.22-17.22"/><path class="d" d="M224.32,37.4a1,1,0,0,0-1.06,1.06,10.91,10.91,0,0,1-21.81,0,1.06,1.06,0,1,0-2.12,0,13.07,13.07,0,0,0,22.35,9.2,12.81,12.81,0,0,0,3.7-9.2A1,1,0,0,0,224.32,37.4Z"/><path class="d" d="M204.43,30.43a2,2,0,1,1-2,2,2,2,0,0,1,2-2"/><path class="d" d="M220.54,30.43a2,2,0,1,1-2,2,2,2,0,0,1,2-2"/><rect class="e" x="-1332.19" y="-616.92" width="4692.54" height="1133.5"/><rect class="f" x="4.25" y="72.66" width="79.86" height="14.17"/><rect class="f" x="88.36" y="72.66" width="79.86" height="14.17"/><rect class="d" x="172.48" y="72.66" width="79.86" height="14.17"/></svg>