<svg xmlns="http://www.w3.org/2000/svg" width="8mm" height="8mm" viewBox="0 0 22.68 22.68"><defs><style>.a{fill:none;stroke:#f3e600;stroke-miterlimit:10;}.b{fill:#1d1d1b;}</style></defs><title>DPE_</title><rect class="a" x="-3160.48" y="-404.73" width="4692.54" height="1133.5"/><path class="b" d="M14.91.68H7.17A3.55,3.55,0,0,0,3.62,4.23v10.5a3.55,3.55,0,0,0,3,3.49v.69a2,2,0,0,0,2,2h.12v1h1v-1H12.4v1h1v-1h.12a2,2,0,0,0,2-2v-.69a3.55,3.55,0,0,0,3-3.49V4.23A3.55,3.55,0,0,0,14.91.68Zm-.42,18.23a1,1,0,0,1-1,1h-5a1,1,0,0,1-1-1v-.63h6.9Zm3-4.18a2.55,2.55,0,0,1-2.55,2.55H7.17a2.55,2.55,0,0,1-2.55-2.55V4.23A2.55,2.55,0,0,1,7.17,1.68h7.74a2.55,2.55,0,0,1,2.55,2.55Z"/><rect class="b" x="10.19" y="18.72" width="1.71" height="0.72"/></svg>