<svg xmlns="http://www.w3.org/2000/svg" width="8mm" height="8mm" viewBox="0 0 22.68 22.68"><defs><style>.a{isolation:isolate;}.b{mix-blend-mode:multiply;}.c{fill:#1d1d1b;}.d{fill:none;stroke:#f3e600;stroke-miterlimit:10;}</style></defs><title>DPE_</title><g class="a"><g class="b"><path class="c" d="M14.73,12.18a3.3,3.3,0,0,0-1.11,2.09H9.09A3.3,3.3,0,0,0,7.91,12.1,5.27,5.27,0,0,1,6,7.41a5.39,5.39,0,1,1,8.72,4.77m-1.57,6.1H9.54a.43.43,0,0,1-.43-.43v-.68H13.6v.68a.44.44,0,0,1-.44.43M12,20.05H10.68a.44.44,0,0,1-.44-.44v-.46h2.22v.46a.44.44,0,0,1-.43.44m-2.92-4.9H13.6V16.3H9.11Zm6.4-11.81a6.26,6.26,0,0,0-10.37,4,6.15,6.15,0,0,0,2.2,5.42,2.37,2.37,0,0,1,.88,1.81v3.27a1.29,1.29,0,0,0,1.13,1.28v.5a1.31,1.31,0,0,0,1.31,1.31H12a1.31,1.31,0,0,0,1.3-1.31v-.48a1.3,1.3,0,0,0,1.14-1.28v-3.2a2.43,2.43,0,0,1,.82-1.79A6.27,6.27,0,0,0,16.15,4a5.38,5.38,0,0,0-.66-.69Z"/></g><rect class="d" x="-2818.3" y="-229.89" width="4692.54" height="1133.5"/></g></svg>